<svg width="379" height="231" viewBox="0 0 379 231" fill="none" xmlns="http://www.w3.org/2000/svg">
<g filter="url(#filter0_d_22_3907)">
<rect x="10" width="369" height="220" rx="17.3511" fill="#080C10"/>
<mask id="mask0_22_3907" style="mask-type:alpha" maskUnits="userSpaceOnUse" x="10" y="0" width="369" height="220">
<rect x="10" width="369" height="220" rx="17.3511" fill="url(#paint0_linear_22_3907)"/>
</mask>
<g mask="url(#mask0_22_3907)">
<path d="M341.94 136.063L341.984 136.124L342.035 136.179C343.867 138.133 345.952 139.262 348.216 139.592C350.464 139.92 352.771 139.444 355.041 138.397C359.545 136.32 364.129 131.894 368.338 126.247C376.776 114.927 384.095 98.1708 386.445 83.4467C386.575 84.4815 386.701 85.702 386.824 87.0974C387.58 95.6984 388.158 110.599 388.592 128.509C389.449 163.853 389.742 210.779 389.75 243.728L-14.417 236.676L8.89628 140.618C10.747 147.801 13.461 156.711 16.6866 164.41C18.6995 169.214 20.9381 173.611 23.3274 176.828C25.6585 179.967 28.3963 182.338 31.4737 182.338C33.3864 182.338 35.1505 181.468 36.7499 180.169C38.3503 178.868 39.8845 177.059 41.3653 174.984C43.8685 171.477 46.3485 167.021 48.8152 162.59C49.2604 161.79 49.7051 160.991 50.1495 160.198C53.0903 154.953 56.0126 149.996 59.0264 146.638C62.0783 143.239 64.832 141.895 67.5442 142.819C70.7958 143.927 73.7272 145.978 76.4815 148.416C78.5097 150.211 80.3844 152.162 82.2133 154.064C82.8824 154.76 83.5453 155.45 84.2073 156.123C86.6225 158.58 89.0579 160.854 91.5856 162.069C92.873 162.689 94.2274 163.056 95.6474 163.015C97.0753 162.974 98.4874 162.522 99.8853 161.625C101.334 160.696 102.67 159.119 103.933 157.257C105.211 155.374 106.49 153.083 107.789 150.614C108.531 149.203 109.279 147.735 110.041 146.241C111.971 142.455 113.986 138.501 116.197 134.892C119.293 129.839 122.615 125.74 126.32 123.85C128.137 122.923 130.037 122.531 132.077 122.814C134.131 123.099 136.419 124.08 138.972 126.055C148.82 133.673 154.174 142.817 157.979 149.316C158.228 149.741 158.47 150.155 158.706 150.556C159.663 152.18 160.547 153.636 161.395 154.793C162.226 155.927 163.12 156.915 164.144 157.46C165.276 158.063 166.492 158.082 167.697 157.427C168.795 156.83 169.827 155.706 170.873 154.178C171.774 152.863 172.71 151.462 173.679 150.013C177.121 144.863 180.967 139.108 185.038 134.472C187.641 131.508 190.267 129.084 192.855 127.592C195.429 126.108 197.86 125.602 200.182 126.268C206.232 128.004 211.866 125.581 216.1 121.974C220.319 118.38 223.379 113.428 224.319 109.583C224.74 107.864 225.517 105.309 226.579 102.705C227.646 100.088 228.966 97.5047 230.446 95.6706C231.969 93.7844 233.379 93.0205 234.642 93.2118C235.965 93.4121 237.808 94.7412 239.945 98.8192C242.946 104.544 246.43 113.685 249.972 122.978C251.509 127.012 253.058 131.075 254.582 134.899C257.077 141.157 259.516 146.792 261.717 150.476C262.801 152.289 263.917 153.788 265.06 154.607C265.647 155.027 266.352 155.348 267.139 155.323C267.963 155.297 268.651 154.898 269.184 154.317C269.738 153.713 270.144 152.783 270.474 151.78C270.819 150.733 271.135 149.429 271.434 147.931C272.032 144.933 272.579 141.041 273.122 136.636C273.52 133.409 273.916 129.907 274.329 126.257C275.048 119.892 275.818 113.078 276.738 106.5C278.186 96.1353 279.98 86.5643 282.448 80.4874C283.698 77.4082 285.02 75.4906 286.33 74.6872C286.94 74.3136 287.539 74.1848 288.177 74.2804C288.843 74.38 289.657 74.7403 290.63 75.5355C298.974 82.3587 303.234 94.5982 306.507 105.503C306.839 106.609 307.161 107.703 307.477 108.775C308.694 112.904 309.816 116.712 311.026 119.649C311.789 121.502 312.628 123.118 313.62 124.288C314.624 125.472 315.892 126.316 317.474 126.316C320.682 126.316 326.226 127.937 331.399 130.069C333.955 131.122 336.359 132.275 338.265 133.364C339.219 133.909 340.032 134.429 340.672 134.905C341.327 135.392 341.735 135.785 341.94 136.063Z" fill="url(#paint1_linear_22_3907)" fill-opacity="0.13" stroke="#5DFDCB" stroke-width="2.5"/>
<g filter="url(#filter1_f_22_3907)">
<path d="M31.4737 181.088C21.7474 181.088 12.3684 150.579 8.89474 135.324L-16 237.899L391 245C391 178.984 389.842 54.2109 385.211 83.2475C380.579 112.284 356.263 149.527 342.947 135.324C340.439 131.905 324.421 125.066 317.474 125.066C308.789 125.066 308.789 88.7706 291.421 74.5679C274.053 60.3652 274.053 147.159 268.263 153.472C262.474 159.784 249.737 114.809 241.053 98.2389C232.368 81.669 224.842 102.184 223.105 109.286C221.368 116.387 211.526 128.223 200.526 125.066C189.526 121.91 177.947 141.636 169.842 153.472C161.737 165.307 161.158 141.636 139.737 125.066C118.316 108.497 109.053 154.261 99.2105 160.573C89.3684 166.885 81.8421 146.37 67.9474 141.636C54.0526 136.902 43.6316 181.088 31.4737 181.088Z" fill="url(#paint2_linear_22_3907)" fill-opacity="0.13"/>
<path d="M341.94 136.063L341.984 136.124L342.035 136.179C343.867 138.133 345.952 139.262 348.216 139.592C350.464 139.92 352.771 139.444 355.041 138.397C359.545 136.32 364.129 131.894 368.338 126.247C376.776 114.927 384.095 98.1708 386.445 83.4467C386.575 84.4815 386.701 85.702 386.824 87.0974C387.58 95.6984 388.158 110.599 388.592 128.509C389.449 163.853 389.742 210.779 389.75 243.728L-14.417 236.676L8.89628 140.618C10.747 147.801 13.461 156.711 16.6866 164.41C18.6995 169.214 20.9381 173.611 23.3274 176.828C25.6585 179.967 28.3963 182.338 31.4737 182.338C33.3864 182.338 35.1505 181.468 36.7499 180.169C38.3503 178.868 39.8845 177.059 41.3653 174.984C43.8685 171.477 46.3485 167.021 48.8152 162.59C49.2604 161.79 49.7051 160.991 50.1495 160.198C53.0903 154.953 56.0126 149.996 59.0264 146.638C62.0783 143.239 64.832 141.895 67.5442 142.819C70.7958 143.927 73.7272 145.978 76.4815 148.416C78.5097 150.211 80.3844 152.162 82.2133 154.064C82.8824 154.76 83.5453 155.45 84.2073 156.123C86.6225 158.58 89.0579 160.854 91.5856 162.069C92.873 162.689 94.2274 163.056 95.6474 163.015C97.0753 162.974 98.4874 162.522 99.8853 161.625C101.334 160.696 102.67 159.119 103.933 157.257C105.211 155.374 106.49 153.083 107.789 150.614C108.531 149.203 109.279 147.735 110.041 146.241C111.971 142.455 113.986 138.501 116.197 134.892C119.293 129.839 122.615 125.74 126.32 123.85C128.137 122.923 130.037 122.531 132.077 122.814C134.131 123.099 136.419 124.08 138.972 126.055C148.82 133.673 154.174 142.817 157.979 149.316C158.228 149.741 158.47 150.155 158.706 150.556C159.663 152.18 160.547 153.636 161.395 154.793C162.226 155.927 163.12 156.915 164.144 157.46C165.276 158.063 166.492 158.082 167.697 157.427C168.795 156.83 169.827 155.706 170.873 154.178C171.774 152.863 172.71 151.462 173.679 150.013C177.121 144.863 180.967 139.108 185.038 134.472C187.641 131.508 190.267 129.084 192.855 127.592C195.429 126.108 197.86 125.602 200.182 126.268C206.232 128.004 211.866 125.581 216.1 121.974C220.319 118.38 223.379 113.428 224.319 109.583C224.74 107.864 225.517 105.309 226.579 102.705C227.646 100.088 228.966 97.5047 230.446 95.6706C231.969 93.7844 233.379 93.0205 234.642 93.2118C235.965 93.4121 237.808 94.7412 239.945 98.8192C242.946 104.544 246.43 113.685 249.972 122.978C251.509 127.012 253.058 131.075 254.582 134.899C257.077 141.157 259.516 146.792 261.717 150.476C262.801 152.289 263.917 153.788 265.06 154.607C265.647 155.027 266.352 155.348 267.139 155.323C267.963 155.297 268.651 154.898 269.184 154.317C269.738 153.713 270.144 152.783 270.474 151.78C270.819 150.733 271.135 149.429 271.434 147.931C272.032 144.933 272.579 141.041 273.122 136.636C273.52 133.409 273.916 129.907 274.329 126.257C275.048 119.892 275.818 113.078 276.738 106.5C278.186 96.1353 279.98 86.5643 282.448 80.4874C283.698 77.4082 285.02 75.4906 286.33 74.6872C286.94 74.3136 287.539 74.1848 288.177 74.2804C288.843 74.38 289.657 74.7403 290.63 75.5355C298.974 82.3587 303.234 94.5982 306.507 105.503C306.839 106.609 307.161 107.703 307.477 108.775C308.694 112.904 309.816 116.712 311.026 119.649C311.789 121.502 312.628 123.118 313.62 124.288C314.624 125.472 315.892 126.316 317.474 126.316C320.682 126.316 326.226 127.937 331.399 130.069C333.955 131.122 336.359 132.275 338.265 133.364C339.219 133.909 340.032 134.429 340.672 134.905C341.327 135.392 341.735 135.785 341.94 136.063Z" stroke="#5DFDCB" stroke-width="2.5"/>
</g>
</g>
<path d="M41.091 45V42.9494L45.8823 38.5131C46.2898 38.1187 46.6315 37.7638 46.9076 37.4483C47.188 37.1329 47.4005 36.824 47.5451 36.5216C47.6897 36.2149 47.762 35.8841 47.762 35.5292C47.762 35.1348 47.6722 34.7953 47.4925 34.5105C47.3129 34.2213 47.0675 34 46.7564 33.8467C46.4453 33.6889 46.0926 33.6101 45.6983 33.6101C45.2864 33.6101 44.9271 33.6933 44.6204 33.8598C44.3137 34.0263 44.0771 34.2651 43.9106 34.5762C43.7441 34.8873 43.6608 35.2575 43.6608 35.6869H40.9596C40.9596 34.8062 41.1589 34.0416 41.5577 33.3932C41.9564 32.7447 42.515 32.243 43.2336 31.8881C43.9522 31.5332 44.7803 31.3557 45.718 31.3557C46.6819 31.3557 47.521 31.5266 48.2352 31.8684C48.9538 32.2058 49.5124 32.6746 49.9112 33.2749C50.3099 33.8751 50.5092 34.5631 50.5092 35.3386C50.5092 35.8469 50.4085 36.3485 50.2069 36.8437C50.0097 37.3388 49.657 37.8887 49.1488 38.4933C48.6405 39.0936 47.9241 39.8144 46.9996 40.6557L45.0344 42.5814V42.6734H50.6867V45H41.091ZM55.8181 43.1597L55.7458 43.8827C55.6888 44.4611 55.5793 45.0372 55.4172 45.6112C55.2594 46.1896 55.0929 46.7132 54.9177 47.182C54.7468 47.6509 54.6088 48.0189 54.5036 48.2862H52.6896C52.7554 48.0277 52.8452 47.6662 52.9591 47.2017C53.073 46.7417 53.1804 46.2247 53.2811 45.6507C53.3819 45.0767 53.4455 44.4917 53.4717 43.8958L53.5046 43.1597H55.8181ZM63.1594 45.184C62.2305 45.184 61.4024 45.0131 60.6751 44.6714C59.9521 44.3296 59.3781 43.8586 58.9531 43.2583C58.5281 42.658 58.3068 41.9701 58.2893 41.1946H61.0497C61.0804 41.716 61.2995 42.1388 61.7069 42.4631C62.1144 42.7873 62.5986 42.9494 63.1594 42.9494C63.6064 42.9494 64.0007 42.8508 64.3425 42.6537C64.6886 42.4521 64.9581 42.1739 65.1509 41.819C65.348 41.4597 65.4466 41.0478 65.4466 40.5834C65.4466 40.1101 65.3459 39.6939 65.1443 39.3346C64.9471 38.9753 64.6733 38.6949 64.3228 38.4933C63.9722 38.2918 63.5713 38.1888 63.12 38.1844C62.7257 38.1844 62.3423 38.2655 61.9698 38.4276C61.6018 38.5897 61.3148 38.811 61.1089 39.0914L58.5785 38.6379L59.216 31.5398H67.4446V33.8664H61.5624L61.214 37.238H61.2929C61.5295 36.905 61.8866 36.629 62.3642 36.4099C62.8418 36.1908 63.3763 36.0813 63.9678 36.0813C64.7784 36.0813 65.5014 36.2719 66.1367 36.6531C66.7721 37.0343 67.2738 37.5579 67.6418 38.2239C68.0099 38.8855 68.1917 39.6479 68.1873 40.5111C68.1917 41.418 67.9814 42.2243 67.5564 42.9297C67.1357 43.6308 66.5464 44.1828 65.7884 44.5859C65.0348 44.9847 64.1584 45.184 63.1594 45.184ZM75.1475 45.184C74.166 45.184 73.2919 45.0153 72.5251 44.678C71.7627 44.3362 71.1602 43.8674 70.7177 43.2715C70.2795 42.6712 70.0539 41.9789 70.0407 41.1946H72.9063C72.9238 41.5232 73.0312 41.8124 73.2283 42.0621C73.4299 42.3075 73.6972 42.4981 74.0302 42.6339C74.3632 42.7698 74.7378 42.8377 75.154 42.8377C75.5878 42.8377 75.9712 42.761 76.3042 42.6077C76.6372 42.4543 76.8979 42.2418 77.0863 41.9701C77.2747 41.6985 77.3689 41.3852 77.3689 41.0303C77.3689 40.671 77.2682 40.3533 77.0666 40.0773C76.8694 39.7969 76.5846 39.5778 76.2122 39.42C75.8441 39.2623 75.406 39.1834 74.8977 39.1834H73.6424V37.0934H74.8977C75.3271 37.0934 75.7061 37.0189 76.0347 36.87C76.3677 36.721 76.6263 36.5151 76.8103 36.2522C76.9943 35.9849 77.0863 35.6738 77.0863 35.3189C77.0863 34.9815 77.0053 34.6857 76.8431 34.4316C76.6854 34.1731 76.462 33.9715 76.1728 33.8269C75.888 33.6824 75.555 33.6101 75.1738 33.6101C74.7882 33.6101 74.4355 33.6802 74.1156 33.8204C73.7958 33.9562 73.5394 34.1512 73.3466 34.4053C73.1538 34.6594 73.0509 34.9574 73.0377 35.2992H70.3102C70.3233 34.5236 70.5446 33.8401 70.974 33.2486C71.4034 32.6571 71.9818 32.1948 72.7091 31.8618C73.4408 31.5244 74.2668 31.3557 75.1869 31.3557C76.1158 31.3557 76.9286 31.5244 77.6253 31.8618C78.3219 32.1992 78.8631 32.6549 79.2486 33.2289C79.6386 33.7985 79.8314 34.4382 79.827 35.148C79.8314 35.9016 79.597 36.5304 79.1238 37.0343C78.6549 37.5382 78.0437 37.858 77.2901 37.9938V38.099C78.2803 38.2261 79.0339 38.57 79.551 39.1309C80.0724 39.6873 80.3309 40.384 80.3265 41.2209C80.3309 41.9877 80.1096 42.669 79.6627 43.2649C79.2202 43.8608 78.6089 44.3296 77.829 44.6714C77.0491 45.0131 76.1552 45.184 75.1475 45.184ZM87.5381 45.184C86.8458 45.1796 86.1776 45.0635 85.5335 44.8357C84.8938 44.6078 84.3198 44.2376 83.8115 43.725C83.3033 43.2123 82.9001 42.5332 82.6022 41.6875C82.3086 40.8419 82.1619 39.8034 82.1619 38.5722C82.1662 37.4418 82.2955 36.4318 82.5496 35.5423C82.8081 34.6485 83.1762 33.8905 83.6538 33.2683C84.1358 32.6461 84.7119 32.1729 85.3823 31.8487C86.0527 31.52 86.8041 31.3557 87.6366 31.3557C88.5349 31.3557 89.3279 31.531 90.0159 31.8815C90.7038 32.2277 91.2558 32.6987 91.6721 33.2946C92.0927 33.8905 92.3469 34.5587 92.4345 35.2992H89.6281C89.5185 34.8303 89.2885 34.4623 88.938 34.195C88.5875 33.9277 88.1537 33.7941 87.6366 33.7941C86.7603 33.7941 86.0943 34.1753 85.6386 34.9377C85.1873 35.7001 84.9573 36.7363 84.9485 38.0464H85.0406C85.2421 37.6477 85.5138 37.3081 85.8555 37.0277C86.2017 36.7429 86.5938 36.526 87.032 36.377C87.4745 36.2237 87.9412 36.147 88.4319 36.147C89.2294 36.147 89.9392 36.3354 90.5614 36.7122C91.1835 37.0847 91.6743 37.5973 92.0336 38.2502C92.3929 38.903 92.5725 39.6501 92.5725 40.4913C92.5725 41.4027 92.36 42.2133 91.935 42.9231C91.5144 43.6329 90.925 44.1894 90.167 44.5925C89.4134 44.9912 88.5371 45.1884 87.5381 45.184ZM87.5249 42.9494C87.9631 42.9494 88.3552 42.8443 88.7014 42.6339C89.0475 42.4236 89.3192 42.1388 89.5164 41.7795C89.7135 41.4202 89.8121 41.0171 89.8121 40.5702C89.8121 40.1233 89.7135 39.7224 89.5164 39.3675C89.3236 39.0126 89.0563 38.7299 88.7145 38.5196C88.3728 38.3093 87.9828 38.2042 87.5446 38.2042C87.216 38.2042 86.9115 38.2655 86.6311 38.3882C86.355 38.5109 86.1119 38.6817 85.9015 38.9008C85.6956 39.1199 85.5335 39.374 85.4152 39.6632C85.2969 39.948 85.2377 40.2525 85.2377 40.5768C85.2377 41.0106 85.3363 41.4071 85.5335 41.7664C85.735 42.1257 86.0067 42.4127 86.3485 42.6274C86.6946 42.8421 87.0868 42.9494 87.5249 42.9494Z" fill="white"/>
<path d="M102.835 42.4621V35.4822H104.6V42.4621H102.835ZM100.227 39.8545V38.0898H107.207V39.8545H100.227ZM112.466 44V42.4621L116.059 39.1348C116.365 38.839 116.621 38.5729 116.828 38.3362C117.038 38.0996 117.198 37.868 117.306 37.6412C117.415 37.4112 117.469 37.1631 117.469 36.8969C117.469 36.6011 117.401 36.3465 117.267 36.1329C117.132 35.916 116.948 35.75 116.715 35.635C116.481 35.5167 116.217 35.4575 115.921 35.4575C115.612 35.4575 115.343 35.52 115.113 35.6449C114.883 35.7697 114.705 35.9488 114.58 36.1821C114.455 36.4155 114.393 36.6931 114.393 37.0152H112.367C112.367 36.3547 112.517 35.7812 112.816 35.2949C113.115 34.8085 113.534 34.4322 114.073 34.1661C114.611 33.8999 115.233 33.7668 115.936 33.7668C116.659 33.7668 117.288 33.895 117.824 34.1513C118.363 34.4043 118.782 34.7559 119.081 35.2061C119.38 35.6564 119.529 36.1723 119.529 36.7539C119.529 37.1351 119.454 37.5114 119.303 37.8828C119.155 38.2541 118.89 38.6665 118.509 39.12C118.128 39.5702 117.59 40.1108 116.897 40.7417L115.423 42.186V42.255H119.662V44H112.466ZM122.456 44.1282C122.131 44.1282 121.851 44.0131 121.618 43.7831C121.388 43.5498 121.273 43.2705 121.273 42.9451C121.273 42.6231 121.388 42.347 121.618 42.117C121.851 41.887 122.131 41.772 122.456 41.772C122.771 41.772 123.048 41.887 123.284 42.117C123.521 42.347 123.639 42.6231 123.639 42.9451C123.639 43.162 123.583 43.3608 123.471 43.5416C123.363 43.719 123.22 43.862 123.043 43.9704C122.865 44.0756 122.67 44.1282 122.456 44.1282ZM125.191 42.2255V40.5446L129.405 33.9048H130.854V36.2314H129.997L127.34 40.4361V40.515H133.329V42.2255H125.191ZM130.036 44V41.7128L130.075 40.9685V33.9048H132.077V44H130.036ZM138.482 44.138C137.746 44.138 137.091 44.0115 136.516 43.7585C135.944 43.5021 135.492 43.1505 135.16 42.7036C134.831 42.2534 134.662 41.7342 134.652 41.1459H136.801C136.815 41.3924 136.895 41.6093 137.043 41.7966C137.194 41.9806 137.395 42.1236 137.644 42.2255C137.894 42.3273 138.175 42.3783 138.487 42.3783C138.813 42.3783 139.1 42.3208 139.35 42.2057C139.6 42.0907 139.795 41.9313 139.937 41.7276C140.078 41.5239 140.148 41.2889 140.148 41.0227C140.148 40.7532 140.073 40.515 139.922 40.308C139.774 40.0976 139.56 39.9333 139.281 39.815C139.005 39.6967 138.676 39.6376 138.295 39.6376H137.354V38.0701H138.295C138.617 38.0701 138.901 38.0142 139.148 37.9025C139.398 37.7907 139.591 37.6363 139.729 37.4391C139.868 37.2387 139.937 37.0053 139.937 36.7392C139.937 36.4861 139.876 36.2643 139.754 36.0737C139.636 35.8798 139.468 35.7287 139.251 35.6202C139.038 35.5118 138.788 35.4575 138.502 35.4575C138.213 35.4575 137.948 35.5101 137.708 35.6153C137.469 35.7172 137.276 35.8634 137.132 36.054C136.987 36.2446 136.91 36.468 136.9 36.7244H134.854C134.864 36.1427 135.03 35.6301 135.352 35.1864C135.674 34.7428 136.108 34.3961 136.654 34.1464C137.202 33.8933 137.822 33.7668 138.512 33.7668C139.209 33.7668 139.818 33.8933 140.341 34.1464C140.863 34.3994 141.269 34.7412 141.558 35.1716C141.851 35.5988 141.995 36.0786 141.992 36.611C141.995 37.1762 141.82 37.6478 141.465 38.0257C141.113 38.4036 140.655 38.6435 140.089 38.7454V38.8242C140.832 38.9195 141.397 39.1775 141.785 39.5981C142.176 40.0155 142.37 40.538 142.367 41.1657C142.37 41.7407 142.204 42.2517 141.869 42.6987C141.537 43.1456 141.078 43.4972 140.494 43.7535C139.909 44.0099 139.238 44.138 138.482 44.138ZM149.427 42.1072V41.5748C149.427 41.1706 149.512 40.7992 149.683 40.4608C149.857 40.119 150.109 39.8463 150.437 39.6425C150.769 39.4355 151.173 39.332 151.65 39.332C152.133 39.332 152.539 39.4338 152.867 39.6376C153.199 39.8413 153.449 40.1141 153.617 40.4558C153.787 40.7943 153.873 41.1673 153.873 41.5748V42.1072C153.873 42.5114 153.787 42.8843 153.617 43.2261C153.446 43.5646 153.194 43.8357 152.862 44.0394C152.53 44.2465 152.126 44.35 151.65 44.35C151.167 44.35 150.761 44.2465 150.432 44.0394C150.104 43.8357 149.854 43.5646 149.683 43.2261C149.512 42.8843 149.427 42.5114 149.427 42.1072ZM150.861 41.5748V42.1072C150.861 42.3405 150.917 42.5606 151.029 42.7677C151.144 42.9747 151.351 43.0782 151.65 43.0782C151.949 43.0782 152.153 42.9764 152.261 42.7726C152.373 42.5689 152.429 42.347 152.429 42.1072V41.5748C152.429 41.3349 152.376 41.1114 152.271 40.9044C152.166 40.6974 151.959 40.5939 151.65 40.5939C151.354 40.5939 151.149 40.6974 151.034 40.9044C150.919 41.1114 150.861 41.3349 150.861 41.5748ZM144.246 36.33V35.7977C144.246 35.3902 144.333 35.0172 144.507 34.6787C144.681 34.3369 144.933 34.0642 145.261 33.8605C145.593 33.6567 145.994 33.5548 146.464 33.5548C146.95 33.5548 147.358 33.6567 147.687 33.8605C148.015 34.0642 148.265 34.3369 148.436 34.6787C148.607 35.0172 148.692 35.3902 148.692 35.7977V36.33C148.692 36.7375 148.605 37.1105 148.431 37.449C148.26 37.7875 148.009 38.0586 147.677 38.2623C147.348 38.4628 146.944 38.563 146.464 38.563C145.984 38.563 145.578 38.4611 145.247 38.2574C144.918 38.0503 144.668 37.7792 144.497 37.444C144.33 37.1056 144.246 36.7342 144.246 36.33ZM145.69 35.7977V36.33C145.69 36.5699 145.746 36.7917 145.858 36.9955C145.973 37.1992 146.175 37.3011 146.464 37.3011C146.766 37.3011 146.972 37.1992 147.08 36.9955C147.192 36.7917 147.248 36.5699 147.248 36.33V35.7977C147.248 35.5578 147.195 35.3343 147.09 35.1273C146.985 34.9202 146.776 34.8167 146.464 34.8167C146.172 34.8167 145.97 34.9219 145.858 35.1322C145.746 35.3425 145.69 35.5643 145.69 35.7977ZM144.897 44L151.837 33.9048H153.129L146.188 44H144.897Z" fill="#5DFDCB"/>
<path d="M40.6165 66.1406V64.8182H48.4964V66.1406H45.3196V75H43.7884V66.1406H40.6165ZM52.2276 75.1541C51.5117 75.1541 50.887 74.9901 50.3533 74.6619C49.8197 74.3338 49.4054 73.8748 49.1104 73.2848C48.8155 72.6948 48.668 72.0054 48.668 71.2166C48.668 70.4245 48.8155 69.7318 49.1104 69.1385C49.4054 68.5452 49.8197 68.0845 50.3533 67.7564C50.887 67.4283 51.5117 67.2642 52.2276 67.2642C52.9435 67.2642 53.5683 67.4283 54.1019 67.7564C54.6355 68.0845 55.0498 68.5452 55.3448 69.1385C55.6398 69.7318 55.7873 70.4245 55.7873 71.2166C55.7873 72.0054 55.6398 72.6948 55.3448 73.2848C55.0498 73.8748 54.6355 74.3338 54.1019 74.6619C53.5683 74.9901 52.9435 75.1541 52.2276 75.1541ZM52.2326 73.9062C52.6966 73.9062 53.0811 73.7836 53.386 73.5384C53.6909 73.2931 53.9163 72.9666 54.0621 72.5589C54.2113 72.1513 54.2859 71.7022 54.2859 71.2116C54.2859 70.7244 54.2113 70.277 54.0621 69.8693C53.9163 69.4583 53.6909 69.1286 53.386 68.88C53.0811 68.6314 52.6966 68.5071 52.2326 68.5071C51.7653 68.5071 51.3775 68.6314 51.0692 68.88C50.7643 69.1286 50.5373 69.4583 50.3881 69.8693C50.2423 70.277 50.1694 70.7244 50.1694 71.2116C50.1694 71.7022 50.2423 72.1513 50.3881 72.5589C50.5373 72.9666 50.7643 73.2931 51.0692 73.5384C51.3775 73.7836 51.7653 73.9062 52.2326 73.9062ZM61.0112 67.3636V68.5568H56.84V67.3636H61.0112ZM57.9586 65.5341H59.4451V72.7578C59.4451 73.0462 59.4882 73.2633 59.5744 73.4091C59.6606 73.5516 59.7716 73.6494 59.9075 73.7024C60.0467 73.7521 60.1975 73.777 60.3599 73.777C60.4792 73.777 60.5836 73.7687 60.6731 73.7521C60.7626 73.7356 60.8322 73.7223 60.8819 73.7124L61.1504 74.9403C61.0642 74.9735 60.9416 75.0066 60.7825 75.0398C60.6234 75.0762 60.4245 75.0961 60.1859 75.0994C59.7948 75.1061 59.4302 75.0365 59.0922 74.8906C58.7541 74.7448 58.4806 74.5194 58.2718 74.2145C58.063 73.9096 57.9586 73.5268 57.9586 73.0661V65.5341ZM64.8778 75.169C64.3939 75.169 63.9564 75.0795 63.5653 74.9006C63.1742 74.7183 62.8643 74.4548 62.6357 74.1101C62.4103 73.7654 62.2976 73.3428 62.2976 72.8423C62.2976 72.4115 62.3804 72.0568 62.5462 71.7784C62.7119 71.5 62.9356 71.2796 63.2173 71.1172C63.4991 70.9548 63.8139 70.8321 64.1619 70.7493C64.5099 70.6664 64.8646 70.6035 65.2259 70.5604C65.6832 70.5073 66.0545 70.4643 66.3395 70.4311C66.6245 70.3946 66.8317 70.3366 66.9609 70.2571C67.0902 70.1776 67.1548 70.0483 67.1548 69.8693V69.8345C67.1548 69.4003 67.0322 69.0639 66.7869 68.8253C66.545 68.5866 66.1837 68.4673 65.7031 68.4673C65.2027 68.4673 64.8082 68.5784 64.5199 68.8004C64.2348 69.0192 64.0376 69.2628 63.9283 69.5312L62.5312 69.2131C62.697 68.7491 62.9389 68.3745 63.2571 68.0895C63.5786 67.8011 63.9482 67.5923 64.3658 67.4631C64.7834 67.3305 65.2225 67.2642 65.6832 67.2642C65.9882 67.2642 66.3113 67.3007 66.6527 67.3736C66.9974 67.4432 67.3189 67.5724 67.6172 67.7614C67.9188 67.9503 68.1657 68.2204 68.358 68.5717C68.5502 68.9197 68.6463 69.3722 68.6463 69.929V75H67.1946V73.956H67.1349C67.0388 74.1482 66.8946 74.3371 66.7024 74.5227C66.5102 74.7083 66.2633 74.8625 65.9616 74.9851C65.66 75.1077 65.2988 75.169 64.8778 75.169ZM65.201 73.9759C65.612 73.9759 65.9633 73.8946 66.255 73.7322C66.55 73.5698 66.7737 73.3577 66.9261 73.0959C67.0819 72.8307 67.1598 72.5473 67.1598 72.2457V71.2614C67.1068 71.3144 67.004 71.3641 66.8516 71.4105C66.7024 71.4536 66.5317 71.4917 66.3395 71.5249C66.1473 71.5547 65.96 71.5829 65.7777 71.6094C65.5954 71.6326 65.4429 71.6525 65.3203 71.669C65.032 71.7055 64.7685 71.7668 64.5298 71.853C64.2945 71.9392 64.1056 72.0634 63.9631 72.2259C63.8239 72.3849 63.7543 72.5971 63.7543 72.8622C63.7543 73.2301 63.8902 73.5085 64.1619 73.6974C64.4337 73.883 64.7801 73.9759 65.201 73.9759ZM72.1127 64.8182V75H70.6262V64.8182H72.1127ZM86.155 64.8182V75H84.7431L79.5676 67.5327H79.4732V75H77.937V64.8182H79.3588L84.5392 72.2955H84.6337V64.8182H86.155ZM93.114 71.8331V67.3636H94.6055V75H93.1438V73.6776H93.0643C92.8886 74.0852 92.6069 74.425 92.2191 74.6967C91.8346 74.9652 91.3557 75.0994 90.7823 75.0994C90.2918 75.0994 89.8576 74.9917 89.4798 74.7763C89.1052 74.5575 88.8103 74.2344 88.5948 73.8068C88.3827 73.3793 88.2766 72.8506 88.2766 72.2209V67.3636H89.7631V72.0419C89.7631 72.5623 89.9073 72.9766 90.1957 73.2848C90.484 73.593 90.8585 73.7472 91.3192 73.7472C91.5977 73.7472 91.8744 73.6776 92.1495 73.5384C92.4279 73.3991 92.6583 73.1887 92.8406 72.907C93.0262 72.6252 93.1173 72.2673 93.114 71.8331ZM96.6028 75V67.3636H98.0297V68.6065H98.1241C98.2832 68.1856 98.5434 67.8575 98.9047 67.6222C99.2659 67.3835 99.6984 67.2642 100.202 67.2642C100.713 67.2642 101.14 67.3835 101.485 67.6222C101.833 67.8608 102.09 68.1889 102.256 68.6065H102.335C102.517 68.1989 102.807 67.8741 103.205 67.6321C103.603 67.3868 104.077 67.2642 104.627 67.2642C105.32 67.2642 105.885 67.4813 106.322 67.9155C106.763 68.3497 106.983 69.0043 106.983 69.8793V75H105.497V70.0185C105.497 69.5014 105.356 69.1269 105.074 68.8949C104.793 68.6629 104.456 68.5469 104.065 68.5469C103.581 68.5469 103.205 68.696 102.937 68.9943C102.668 69.2893 102.534 69.6688 102.534 70.1328V75H101.052V69.924C101.052 69.5097 100.923 69.1766 100.665 68.9247C100.406 68.6728 100.07 68.5469 99.6554 68.5469C99.3736 68.5469 99.1135 68.6214 98.8748 68.7706C98.6395 68.9164 98.4489 69.1203 98.3031 69.3821C98.1606 69.6439 98.0893 69.9472 98.0893 70.2919V75H96.6028ZM109.095 75V64.8182H110.582V68.6016H110.671C110.757 68.4425 110.882 68.2585 111.044 68.0497C111.206 67.8409 111.432 67.6586 111.72 67.5028C112.009 67.3438 112.39 67.2642 112.864 67.2642C113.48 67.2642 114.03 67.42 114.514 67.7315C114.998 68.0431 115.378 68.4922 115.653 69.0788C115.931 69.6655 116.07 70.3714 116.07 71.1967C116.07 72.022 115.933 72.7296 115.658 73.3196C115.383 73.9062 115.005 74.3587 114.524 74.6768C114.044 74.9917 113.495 75.1491 112.879 75.1491C112.415 75.1491 112.035 75.0713 111.74 74.9155C111.448 74.7597 111.22 74.5774 111.054 74.3686C110.888 74.1598 110.761 73.9742 110.671 73.8118H110.547V75H109.095ZM110.552 71.1818C110.552 71.7187 110.63 72.1894 110.786 72.5938C110.941 72.9981 111.167 73.3146 111.462 73.5433C111.757 73.7687 112.118 73.8814 112.545 73.8814C112.99 73.8814 113.361 73.7637 113.659 73.5284C113.957 73.2898 114.183 72.9666 114.335 72.5589C114.491 72.1513 114.569 71.6922 114.569 71.1818C114.569 70.678 114.493 70.2256 114.34 69.8246C114.191 69.4235 113.966 69.107 113.664 68.875C113.366 68.643 112.993 68.527 112.545 68.527C112.115 68.527 111.75 68.638 111.452 68.8601C111.157 69.0821 110.933 69.392 110.781 69.7898C110.628 70.1875 110.552 70.6515 110.552 71.1818ZM121.031 75.1541C120.278 75.1541 119.63 74.9934 119.087 74.6719C118.547 74.3471 118.129 73.8913 117.834 73.3047C117.542 72.7147 117.396 72.0237 117.396 71.2315C117.396 70.4493 117.542 69.7599 117.834 69.1634C118.129 68.5668 118.54 68.1011 119.067 67.7663C119.597 67.4316 120.217 67.2642 120.926 67.2642C121.357 67.2642 121.775 67.3355 122.179 67.478C122.584 67.6205 122.946 67.8442 123.268 68.1491C123.589 68.4541 123.843 68.8501 124.029 69.3374C124.214 69.8213 124.307 70.4096 124.307 71.1023V71.6293H118.237V70.5156H122.85C122.85 70.1245 122.771 69.7782 122.612 69.4766C122.453 69.1716 122.229 68.9313 121.941 68.7557C121.655 68.58 121.321 68.4922 120.936 68.4922C120.519 68.4922 120.154 68.5949 119.843 68.8004C119.534 69.0026 119.296 69.2678 119.127 69.5959C118.961 69.9207 118.878 70.2737 118.878 70.6548V71.5249C118.878 72.0353 118.968 72.4695 119.146 72.8274C119.329 73.1854 119.582 73.4588 119.907 73.6477C120.232 73.8333 120.611 73.9261 121.046 73.9261C121.327 73.9261 121.584 73.8864 121.816 73.8068C122.048 73.724 122.249 73.6013 122.418 73.4389C122.587 73.2765 122.716 73.076 122.806 72.8374L124.213 73.0909C124.1 73.5052 123.898 73.8681 123.606 74.1797C123.318 74.4879 122.955 74.7282 122.517 74.9006C122.083 75.0696 121.588 75.1541 121.031 75.1541ZM125.956 75V67.3636H127.393V68.5767H127.473C127.612 68.1657 127.857 67.8426 128.208 67.6072C128.563 67.3686 128.964 67.2493 129.412 67.2493C129.504 67.2493 129.614 67.2526 129.74 67.2592C129.869 67.2659 129.97 67.2741 130.043 67.2841V68.706C129.983 68.6894 129.877 68.6712 129.725 68.6513C129.572 68.6281 129.42 68.6165 129.267 68.6165C128.916 68.6165 128.603 68.6911 128.328 68.8402C128.056 68.986 127.841 69.1899 127.681 69.4517C127.522 69.7102 127.443 70.0052 127.443 70.3366V75H125.956ZM138.251 75.1541C137.535 75.1541 136.91 74.9901 136.377 74.6619C135.843 74.3338 135.429 73.8748 135.134 73.2848C134.839 72.6948 134.691 72.0054 134.691 71.2166C134.691 70.4245 134.839 69.7318 135.134 69.1385C135.429 68.5452 135.843 68.0845 136.377 67.7564C136.91 67.4283 137.535 67.2642 138.251 67.2642C138.967 67.2642 139.592 67.4283 140.125 67.7564C140.659 68.0845 141.073 68.5452 141.368 69.1385C141.663 69.7318 141.811 70.4245 141.811 71.2166C141.811 72.0054 141.663 72.6948 141.368 73.2848C141.073 73.8748 140.659 74.3338 140.125 74.6619C139.592 74.9901 138.967 75.1541 138.251 75.1541ZM138.256 73.9062C138.72 73.9062 139.105 73.7836 139.409 73.5384C139.714 73.2931 139.94 72.9666 140.086 72.5589C140.235 72.1513 140.309 71.7022 140.309 71.2116C140.309 70.7244 140.235 70.277 140.086 69.8693C139.94 69.4583 139.714 69.1286 139.409 68.88C139.105 68.6314 138.72 68.5071 138.256 68.5071C137.789 68.5071 137.401 68.6314 137.093 68.88C136.788 69.1286 136.561 69.4583 136.412 69.8693C136.266 70.277 136.193 70.7244 136.193 71.2116C136.193 71.7022 136.266 72.1513 136.412 72.5589C136.561 72.9666 136.788 73.2931 137.093 73.5384C137.401 73.7836 137.789 73.9062 138.256 73.9062ZM147.104 67.3636V68.5568H142.789V67.3636H147.104ZM143.972 75V66.4787C143.972 66.0014 144.077 65.6053 144.285 65.2905C144.494 64.9723 144.771 64.7353 145.116 64.5795C145.46 64.4205 145.835 64.3409 146.239 64.3409C146.537 64.3409 146.793 64.3658 147.005 64.4155C147.217 64.4619 147.374 64.505 147.477 64.5447L147.129 65.7479C147.059 65.728 146.97 65.7048 146.861 65.6783C146.751 65.6484 146.619 65.6335 146.463 65.6335C146.102 65.6335 145.843 65.723 145.687 65.902C145.535 66.081 145.459 66.3395 145.459 66.6776V75H143.972ZM152.462 75V64.8182H156.191C156.914 64.8182 157.512 64.9375 157.986 65.1761C158.46 65.4115 158.814 65.7313 159.05 66.1357C159.285 66.5367 159.403 66.9891 159.403 67.4929C159.403 67.9171 159.325 68.2751 159.169 68.5668C159.013 68.8551 158.804 69.0871 158.543 69.2628C158.284 69.4351 157.999 69.5611 157.688 69.6406V69.7401C158.026 69.7566 158.355 69.866 158.677 70.0682C159.002 70.267 159.27 70.5504 159.482 70.9183C159.694 71.2862 159.8 71.7337 159.8 72.2607C159.8 72.781 159.678 73.2483 159.433 73.6626C159.191 74.0736 158.816 74.4001 158.309 74.642C157.802 74.8807 157.154 75 156.365 75H152.462ZM153.999 73.6825H156.216C156.952 73.6825 157.479 73.54 157.797 73.255C158.115 72.9699 158.274 72.6136 158.274 72.1861C158.274 71.8646 158.193 71.5696 158.031 71.3011C157.868 71.0327 157.636 70.8189 157.335 70.6598C157.036 70.5007 156.682 70.4212 156.271 70.4212H153.999V73.6825ZM153.999 69.223H156.057C156.402 69.223 156.711 69.1567 156.987 69.0241C157.265 68.8916 157.485 68.706 157.648 68.4673C157.813 68.2254 157.896 67.9403 157.896 67.6122C157.896 67.1913 157.749 66.8383 157.454 66.5533C157.159 66.2682 156.706 66.1257 156.097 66.1257H153.999V69.223ZM161.623 75V64.8182H165.252C166.041 64.8182 166.695 64.9541 167.216 65.2259C167.739 65.4976 168.13 65.8738 168.389 66.3544C168.647 66.8317 168.777 67.3835 168.777 68.0099C168.777 68.633 168.646 69.1816 168.384 69.6555C168.125 70.1262 167.734 70.4924 167.211 70.7543C166.69 71.0161 166.036 71.147 165.247 71.147H162.498V69.8246H165.108C165.605 69.8246 166.009 69.7533 166.321 69.6108C166.636 69.4683 166.866 69.2611 167.012 68.9893C167.158 68.7176 167.23 68.3911 167.23 68.0099C167.23 67.6255 167.156 67.2924 167.007 67.0107C166.861 66.7289 166.631 66.5135 166.316 66.3643C166.004 66.2119 165.595 66.1357 165.088 66.1357H163.159V75H161.623ZM166.649 70.4062L169.164 75H167.414L164.949 70.4062H166.649ZM179.103 68.1293H177.551C177.492 67.7978 177.381 67.5062 177.218 67.2543C177.056 67.0024 176.857 66.7886 176.622 66.6129C176.386 66.4373 176.123 66.3047 175.831 66.2152C175.543 66.1257 175.236 66.081 174.912 66.081C174.325 66.081 173.8 66.2285 173.336 66.5234C172.875 66.8184 172.51 67.2509 172.242 67.821C171.977 68.3911 171.844 69.0871 171.844 69.9091C171.844 70.7377 171.977 71.437 172.242 72.0071C172.51 72.5772 172.877 73.008 173.341 73.2997C173.805 73.5914 174.327 73.7372 174.907 73.7372C175.228 73.7372 175.533 73.6941 175.821 73.608C176.113 73.5185 176.377 73.3875 176.612 73.2152C176.847 73.0429 177.046 72.8324 177.208 72.5838C177.374 72.3319 177.489 72.0436 177.551 71.7188L179.103 71.7237C179.02 72.2242 178.859 72.6849 178.62 73.1058C178.385 73.5234 178.082 73.8847 177.711 74.1896C177.343 74.4912 176.922 74.7249 176.448 74.8906C175.974 75.0563 175.457 75.1392 174.897 75.1392C174.015 75.1392 173.23 74.9304 172.54 74.5128C171.851 74.0919 171.307 73.4903 170.909 72.7081C170.515 71.9259 170.318 70.9929 170.318 69.9091C170.318 68.822 170.517 67.889 170.914 67.1101C171.312 66.3279 171.856 65.728 172.545 65.3104C173.234 64.8894 174.018 64.679 174.897 64.679C175.437 64.679 175.941 64.7569 176.408 64.9126C176.879 65.0651 177.301 65.2905 177.676 65.5888C178.05 65.8838 178.36 66.245 178.605 66.6726C178.851 67.0968 179.016 67.5824 179.103 68.1293ZM180.802 75V73.8864L184.247 70.3168C184.615 69.929 184.918 69.5893 185.157 69.2976C185.399 69.0026 185.579 68.7225 185.699 68.4574C185.818 68.1922 185.878 67.9105 185.878 67.6122C185.878 67.2741 185.798 66.9825 185.639 66.7372C185.48 66.4886 185.263 66.2981 184.988 66.1655C184.713 66.0296 184.403 65.9616 184.058 65.9616C183.693 65.9616 183.375 66.0362 183.104 66.1854C182.832 66.3345 182.623 66.545 182.477 66.8168C182.331 67.0885 182.258 67.4067 182.258 67.7713H180.792C180.792 67.1515 180.934 66.6096 181.219 66.1456C181.504 65.6816 181.895 65.322 182.393 65.0668C182.89 64.8082 183.455 64.679 184.088 64.679C184.728 64.679 185.291 64.8066 185.778 65.0618C186.269 65.3137 186.652 65.6584 186.927 66.0959C187.202 66.5301 187.339 67.0206 187.339 67.5675C187.339 67.9453 187.268 68.3149 187.126 68.6761C186.986 69.0374 186.743 69.4401 186.395 69.8842C186.047 70.325 185.563 70.8603 184.943 71.4901L182.92 73.608V73.6825H187.503V75H180.802ZM192.932 75.169C192.147 75.1657 191.476 74.9586 190.919 74.5476C190.362 74.1366 189.936 73.5384 189.641 72.7528C189.346 71.9673 189.199 71.0211 189.199 69.9141C189.199 68.8104 189.346 67.8674 189.641 67.0852C189.939 66.303 190.367 65.7064 190.924 65.2955C191.484 64.8845 192.153 64.679 192.932 64.679C193.711 64.679 194.379 64.8861 194.936 65.3004C195.493 65.7114 195.919 66.308 196.214 67.0902C196.512 67.8691 196.661 68.8104 196.661 69.9141C196.661 71.0244 196.514 71.9723 196.219 72.7578C195.924 73.54 195.498 74.1383 194.941 74.5526C194.384 74.9635 193.715 75.169 192.932 75.169ZM192.932 73.8416C193.622 73.8416 194.16 73.5052 194.548 72.8324C194.939 72.1596 195.135 71.1868 195.135 69.9141C195.135 69.0689 195.045 68.3546 194.866 67.7713C194.691 67.1847 194.437 66.7405 194.106 66.4389C193.778 66.134 193.386 65.9815 192.932 65.9815C192.246 65.9815 191.708 66.3196 191.317 66.9957C190.925 67.6719 190.728 68.6446 190.725 69.9141C190.725 70.7625 190.813 71.4801 190.988 72.0668C191.167 72.6501 191.421 73.0926 191.749 73.3942C192.077 73.6925 192.472 73.8416 192.932 73.8416ZM201.767 66.1406V64.8182H209.647V66.1406H206.47V75H204.939V66.1406H201.767ZM213.378 75.1541C212.662 75.1541 212.037 74.9901 211.504 74.6619C210.97 74.3338 210.556 73.8748 210.261 73.2848C209.966 72.6948 209.818 72.0054 209.818 71.2166C209.818 70.4245 209.966 69.7318 210.261 69.1385C210.556 68.5452 210.97 68.0845 211.504 67.7564C212.037 67.4283 212.662 67.2642 213.378 67.2642C214.094 67.2642 214.719 67.4283 215.252 67.7564C215.786 68.0845 216.2 68.5452 216.495 69.1385C216.79 69.7318 216.938 70.4245 216.938 71.2166C216.938 72.0054 216.79 72.6948 216.495 73.2848C216.2 73.8748 215.786 74.3338 215.252 74.6619C214.719 74.9901 214.094 75.1541 213.378 75.1541ZM213.383 73.9062C213.847 73.9062 214.231 73.7836 214.536 73.5384C214.841 73.2931 215.067 72.9666 215.213 72.5589C215.362 72.1513 215.436 71.7022 215.436 71.2116C215.436 70.7244 215.362 70.277 215.213 69.8693C215.067 69.4583 214.841 69.1286 214.536 68.88C214.231 68.6314 213.847 68.5071 213.383 68.5071C212.916 68.5071 212.528 68.6314 212.22 68.88C211.915 69.1286 211.688 69.4583 211.539 69.8693C211.393 70.277 211.32 70.7244 211.32 71.2116C211.32 71.7022 211.393 72.1513 211.539 72.5589C211.688 72.9666 211.915 73.2931 212.22 73.5384C212.528 73.7836 212.916 73.9062 213.383 73.9062ZM219.964 72.4098L219.954 70.5952H220.213L223.255 67.3636H225.035L221.565 71.0426H221.331L219.964 72.4098ZM218.597 75V64.8182H220.083V75H218.597ZM223.419 75L220.685 71.3707L221.709 70.3317L225.244 75H223.419ZM229.367 75.1541C228.614 75.1541 227.966 74.9934 227.423 74.6719C226.883 74.3471 226.465 73.8913 226.17 73.3047C225.878 72.7147 225.732 72.0237 225.732 71.2315C225.732 70.4493 225.878 69.7599 226.17 69.1634C226.465 68.5668 226.876 68.1011 227.403 67.7663C227.933 67.4316 228.553 67.2642 229.262 67.2642C229.693 67.2642 230.111 67.3355 230.515 67.478C230.919 67.6205 231.282 67.8442 231.604 68.1491C231.925 68.4541 232.179 68.8501 232.365 69.3374C232.55 69.8213 232.643 70.4096 232.643 71.1023V71.6293H226.573V70.5156H231.186C231.186 70.1245 231.107 69.7782 230.948 69.4766C230.789 69.1716 230.565 68.9313 230.276 68.7557C229.991 68.58 229.657 68.4922 229.272 68.4922C228.855 68.4922 228.49 68.5949 228.178 68.8004C227.87 69.0026 227.632 69.2678 227.463 69.5959C227.297 69.9207 227.214 70.2737 227.214 70.6548V71.5249C227.214 72.0353 227.303 72.4695 227.482 72.8274C227.665 73.1854 227.918 73.4588 228.243 73.6477C228.568 73.8333 228.947 73.9261 229.382 73.9261C229.663 73.9261 229.92 73.8864 230.152 73.8068C230.384 73.724 230.585 73.6013 230.754 73.4389C230.923 73.2765 231.052 73.076 231.142 72.8374L232.548 73.0909C232.436 73.5052 232.234 73.8681 231.942 74.1797C231.654 74.4879 231.291 74.7282 230.853 74.9006C230.419 75.0696 229.923 75.1541 229.367 75.1541ZM235.779 70.4659V75H234.292V67.3636H235.719V68.6065H235.814C235.989 68.2022 236.264 67.8774 236.639 67.6321C237.017 67.3868 237.492 67.2642 238.066 67.2642C238.586 67.2642 239.042 67.3736 239.433 67.5923C239.824 67.8078 240.127 68.1293 240.343 68.5568C240.558 68.9844 240.666 69.513 240.666 70.1428V75H239.179V70.3217C239.179 69.7682 239.035 69.3357 238.747 69.0241C238.458 68.7093 238.062 68.5518 237.559 68.5518C237.214 68.5518 236.907 68.6264 236.639 68.7756C236.374 68.9247 236.163 69.1435 236.007 69.4318C235.855 69.7169 235.779 70.0616 235.779 70.4659ZM248.382 69.228L247.034 69.4666C246.978 69.2943 246.889 69.1302 246.766 68.9744C246.647 68.8187 246.484 68.6911 246.279 68.5916C246.073 68.4922 245.816 68.4425 245.508 68.4425C245.087 68.4425 244.736 68.5369 244.454 68.7259C244.172 68.9115 244.032 69.1518 244.032 69.4467C244.032 69.7019 244.126 69.9074 244.315 70.0632C244.504 70.219 244.809 70.3466 245.23 70.446L246.443 70.7244C247.145 70.8868 247.669 71.1371 248.014 71.4751C248.359 71.8132 248.531 72.2524 248.531 72.7926C248.531 73.25 248.398 73.6577 248.133 74.0156C247.871 74.3703 247.505 74.6487 247.034 74.8509C246.567 75.053 246.025 75.1541 245.409 75.1541C244.554 75.1541 243.856 74.9718 243.316 74.6072C242.775 74.2393 242.444 73.7173 242.321 73.0412L243.758 72.8224C243.848 73.197 244.032 73.4804 244.31 73.6726C244.588 73.8615 244.951 73.956 245.399 73.956C245.886 73.956 246.275 73.8549 246.567 73.6527C246.859 73.4472 247.005 73.197 247.005 72.902C247.005 72.6634 246.915 72.4628 246.736 72.3004C246.56 72.138 246.29 72.0154 245.926 71.9325L244.633 71.6491C243.921 71.4867 243.394 71.2282 243.052 70.8736C242.714 70.5189 242.545 70.0698 242.545 69.5263C242.545 69.0755 242.671 68.6811 242.923 68.343C243.175 68.005 243.523 67.7415 243.967 67.5526C244.411 67.3603 244.92 67.2642 245.493 67.2642C246.319 67.2642 246.968 67.4432 247.442 67.8011C247.916 68.1558 248.229 68.6314 248.382 69.228Z" fill="#5F6679"/>
</g>
<defs>
<filter id="filter0_d_22_3907" x="0.746081" y="0" width="378.254" height="230.411" filterUnits="userSpaceOnUse" color-interpolation-filters="sRGB">
<feFlood flood-opacity="0" result="BackgroundImageFix"/>
<feColorMatrix in="SourceAlpha" type="matrix" values="0 0 0 0 0 0 0 0 0 0 0 0 0 0 0 0 0 0 127 0" result="hardAlpha"/>
<feOffset dx="-4.62696" dy="5.7837"/>
<feGaussianBlur stdDeviation="2.31348"/>
<feComposite in2="hardAlpha" operator="out"/>
<feColorMatrix type="matrix" values="0 0 0 0 0.0242344 0 0 0 0 0.00078125 0 0 0 0 0.0625 0 0 0 0.3 0"/>
<feBlend mode="normal" in2="BackgroundImageFix" result="effect1_dropShadow_22_3907"/>
<feBlend mode="normal" in="SourceGraphic" in2="effect1_dropShadow_22_3907" result="shape"/>
</filter>
<filter id="filter1_f_22_3907" x="-26" y="63" width="427" height="192" filterUnits="userSpaceOnUse" color-interpolation-filters="sRGB">
<feFlood flood-opacity="0" result="BackgroundImageFix"/>
<feBlend mode="normal" in="SourceGraphic" in2="BackgroundImageFix" result="shape"/>
<feGaussianBlur stdDeviation="5" result="effect1_foregroundBlur_22_3907"/>
</filter>
<linearGradient id="paint0_linear_22_3907" x1="-5.61599" y1="70.125" x2="387.333" y2="162.586" gradientUnits="userSpaceOnUse">
<stop stop-color="#080A0B"/>
<stop offset="1" stop-color="#1A1F21"/>
</linearGradient>
<linearGradient id="paint1_linear_22_3907" x1="222.526" y1="89.5597" x2="238.733" y2="182.446" gradientUnits="userSpaceOnUse">
<stop stop-color="#5DFDCB"/>
<stop offset="1" stop-color="#080C10"/>
</linearGradient>
<linearGradient id="paint2_linear_22_3907" x1="222.526" y1="89.5597" x2="238.733" y2="182.446" gradientUnits="userSpaceOnUse">
<stop stop-color="#5DFDCB"/>
<stop offset="1" stop-color="#080C10"/>
</linearGradient>
</defs>
</svg>
