<svg width="379" height="231" viewBox="0 0 379 231" fill="none" xmlns="http://www.w3.org/2000/svg">
<g filter="url(#filter0_d_22_3936)">
<rect x="10" width="369" height="220" rx="17.3511" fill="#080C10"/>
<mask id="mask0_22_3936" style="mask-type:alpha" maskUnits="userSpaceOnUse" x="10" y="0" width="369" height="220">
<rect x="10" width="369" height="220" rx="17.3511" fill="url(#paint0_linear_22_3936)"/>
</mask>
<g mask="url(#mask0_22_3936)">
<path d="M341.94 136.063L341.984 136.124L342.035 136.179C345.298 139.659 349.001 144.754 352.846 150.076L353.18 150.538C356.892 155.678 360.717 160.973 364.297 164.994C366.14 167.065 367.96 168.846 369.705 170.103C371.424 171.342 373.233 172.192 375.02 172.124C376.918 172.052 378.472 170.969 379.646 169.063C380.792 167.201 381.645 164.462 382.234 160.77C382.812 157.146 383.384 154.852 383.904 153.658C383.992 153.856 384.087 154.1 384.189 154.397C384.448 155.152 384.713 156.147 384.977 157.381C385.506 159.849 386.017 163.183 386.495 167.287C388.384 183.49 389.715 211.286 389.749 243.728L-14.417 236.676L9.29268 138.984C9.57636 139.214 9.91907 139.386 10.3311 139.445C11.1931 139.568 11.8965 139.123 12.3625 138.707C12.8512 138.27 13.308 137.664 13.7366 136.987C15.4031 134.358 17.3471 129.505 19.4099 124.355L19.513 124.097C21.6462 118.772 23.9403 113.061 26.2977 108.679C27.4779 106.485 28.6388 104.692 29.7591 103.465C30.9119 102.201 31.8244 101.75 32.5 101.75C35.1808 101.75 37.703 102.839 40.2549 104.686C42.8189 106.541 45.3122 109.085 47.9401 111.866C48.2861 112.233 48.6345 112.603 48.9856 112.977C53.8693 118.172 59.2798 123.927 66.0969 126.25C69.1824 127.301 72.1553 130.227 75.0788 134.236C77.712 137.846 80.1745 142.145 82.568 146.323C82.8096 146.745 83.0506 147.166 83.291 147.585C85.8773 152.089 88.4253 156.413 90.9801 159.199C92.2587 160.593 93.6401 161.717 95.1413 162.236C96.7205 162.781 98.3358 162.619 99.8853 161.625C102.526 159.931 104.61 157.519 106.506 155.278C106.592 155.177 106.677 155.076 106.762 154.975C108.605 152.795 110.273 150.821 112.225 149.469C114.191 148.107 116.429 147.394 119.424 147.933C122.495 148.486 126.449 150.372 131.735 154.46C139.707 160.626 145.896 167.636 151.043 173.466C152.744 175.393 154.332 177.192 155.833 178.788C157.331 180.382 158.755 181.785 160.117 182.891C161.471 183.99 162.828 184.85 164.197 185.287C165.602 185.736 167.022 185.739 168.407 185.12C169.756 184.518 170.944 183.382 172.031 181.794C174.157 178.691 176.376 173.367 178.655 167.34C179.666 164.666 180.686 161.862 181.722 159.011C183.062 155.326 184.43 151.564 185.844 147.906C188.339 141.449 190.889 135.56 193.468 131.493C194.76 129.455 196.005 127.965 197.182 127.082C198.335 126.217 199.3 126.015 200.182 126.268C206.232 128.004 211.866 125.581 216.1 121.974C220.319 118.38 223.379 113.428 224.319 109.583C224.469 108.971 224.768 108.553 225.175 108.261C225.601 107.955 226.221 107.734 227.067 107.672C228.781 107.546 231.17 108.094 233.9 109.423C239.329 112.067 245.673 117.596 249.893 125.647C252.83 131.251 255.058 136.968 256.991 141.93C257.901 144.265 258.746 146.434 259.569 148.344C260.204 149.817 260.829 151.142 261.462 152.248C262.087 153.34 262.76 154.293 263.516 154.962C264.288 155.646 265.246 156.115 266.36 155.985C267.431 155.86 268.364 155.211 269.184 154.317C270.104 153.314 270.861 151.575 271.544 149.584C272.247 147.533 272.94 144.995 273.652 142.217C273.997 140.87 274.347 139.465 274.706 138.024C275.836 133.485 277.054 128.595 278.482 124.061C280.378 118.039 282.566 112.927 285.21 110.177C286.502 108.833 287.805 108.155 289.156 108.097C290.517 108.037 292.181 108.595 294.209 110.253C300.633 115.506 304.122 118.973 306.498 121.334C307.323 122.154 308.015 122.841 308.648 123.423C309.883 124.557 310.951 125.338 312.36 125.789C313.721 126.223 315.3 126.316 317.474 126.316C320.682 126.316 326.226 127.937 331.399 130.069C333.955 131.122 336.359 132.275 338.265 133.364C339.219 133.909 340.032 134.429 340.672 134.905C341.327 135.392 341.735 135.785 341.94 136.063Z" fill="url(#paint1_linear_22_3936)" fill-opacity="0.13" stroke="#FD5D5D" stroke-width="2.5"/>
<g filter="url(#filter1_f_22_3936)">
<path d="M32.5 100.5C22.7737 100.5 12.3684 150.579 8.89474 135.324L-16 237.899L391 245C391 178.984 385.632 131.537 381 160.573C376.368 189.61 356.263 149.526 342.947 135.324C340.439 131.905 324.421 125.066 317.474 125.066C308.789 125.066 312.368 123.488 295 109.286C277.632 95.083 274.053 147.159 268.263 153.472C262.474 159.784 259.684 141.636 251 125.066C242.316 108.496 224.842 102.184 223.105 109.286C221.368 116.387 211.526 128.223 200.526 125.066C189.526 121.91 179.105 169.253 171 181.088C162.895 192.923 153.921 170.041 132.5 153.472C111.079 136.902 109.053 154.261 99.2105 160.573C89.3684 166.885 80.3947 129.801 66.5 125.066C52.6053 120.332 44.6579 100.5 32.5 100.5Z" fill="url(#paint2_linear_22_3936)" fill-opacity="0.13"/>
<path d="M341.94 136.063L341.984 136.124L342.035 136.179C345.298 139.659 349.001 144.754 352.846 150.076L353.18 150.538C356.892 155.677 360.717 160.973 364.297 164.994C366.14 167.065 367.96 168.846 369.705 170.103C371.424 171.342 373.233 172.191 375.02 172.124C376.918 172.052 378.472 170.969 379.646 169.063C380.792 167.201 381.645 164.462 382.234 160.77C382.812 157.146 383.384 154.852 383.904 153.658C383.992 153.856 384.087 154.1 384.189 154.397C384.448 155.152 384.713 156.147 384.977 157.381C385.506 159.849 386.017 163.183 386.495 167.286C388.384 183.49 389.715 211.285 389.749 243.728L-14.417 236.676L9.29268 138.984C9.57636 139.214 9.91907 139.386 10.3311 139.445C11.1931 139.568 11.8965 139.123 12.3625 138.707C12.8512 138.27 13.308 137.664 13.7366 136.987C15.4031 134.358 17.3471 129.505 19.4099 124.355L19.513 124.097C21.6462 118.772 23.9403 113.061 26.2977 108.679C27.4779 106.485 28.6388 104.692 29.7591 103.465C30.9119 102.201 31.8244 101.75 32.5 101.75C35.1808 101.75 37.703 102.839 40.2549 104.685C42.8189 106.541 45.3122 109.085 47.9401 111.866C48.2861 112.233 48.6345 112.603 48.9856 112.977C53.8693 118.172 59.2798 123.927 66.0969 126.25C69.1824 127.301 72.1553 130.227 75.0788 134.236C77.712 137.846 80.1745 142.145 82.568 146.323C82.8096 146.745 83.0506 147.166 83.291 147.585C85.8773 152.089 88.4253 156.413 90.9801 159.199C92.2587 160.593 93.6401 161.717 95.1413 162.235C96.7205 162.781 98.3358 162.619 99.8853 161.625C102.526 159.931 104.61 157.519 106.506 155.278C106.592 155.176 106.677 155.076 106.762 154.975C108.605 152.794 110.273 150.821 112.225 149.469C114.191 148.107 116.429 147.394 119.424 147.933C122.495 148.486 126.449 150.372 131.735 154.46C139.707 160.626 145.896 167.636 151.043 173.466C152.744 175.393 154.332 177.192 155.833 178.788C157.331 180.382 158.755 181.784 160.117 182.89C161.471 183.99 162.828 184.85 164.197 185.287C165.602 185.736 167.022 185.739 168.407 185.12C169.756 184.518 170.944 183.382 172.031 181.794C174.157 178.69 176.376 173.367 178.655 167.34C179.666 164.666 180.686 161.862 181.722 159.011C183.062 155.326 184.43 151.564 185.844 147.906C188.339 141.449 190.889 135.559 193.468 131.493C194.76 129.455 196.005 127.965 197.182 127.082C198.335 126.217 199.3 126.015 200.182 126.268C206.232 128.004 211.866 125.58 216.1 121.974C220.319 118.38 223.379 113.428 224.319 109.583C224.469 108.971 224.768 108.553 225.175 108.26C225.601 107.955 226.221 107.734 227.067 107.672C228.781 107.546 231.17 108.094 233.9 109.423C239.329 112.067 245.673 117.596 249.893 125.647C252.83 131.251 255.058 136.968 256.991 141.93C257.901 144.265 258.746 146.434 259.569 148.344C260.204 149.817 260.829 151.142 261.462 152.248C262.087 153.34 262.76 154.293 263.516 154.962C264.288 155.646 265.246 156.115 266.36 155.985C267.431 155.86 268.364 155.211 269.184 154.316C270.104 153.313 270.861 151.575 271.544 149.584C272.247 147.533 272.94 144.995 273.652 142.217C273.997 140.87 274.347 139.465 274.706 138.024C275.836 133.485 277.054 128.595 278.482 124.061C280.378 118.039 282.566 112.927 285.21 110.177C286.502 108.833 287.805 108.155 289.156 108.096C290.517 108.037 292.181 108.595 294.209 110.253C300.633 115.506 304.122 118.973 306.498 121.334C307.323 122.154 308.015 122.841 308.648 123.423C309.883 124.557 310.951 125.338 312.36 125.789C313.721 126.223 315.3 126.316 317.474 126.316C320.682 126.316 326.226 127.937 331.399 130.069C333.955 131.122 336.359 132.275 338.265 133.364C339.219 133.909 340.032 134.429 340.672 134.905C341.327 135.392 341.735 135.785 341.94 136.063Z" stroke="#FD5D5D" stroke-width="2.5"/>
</g>
</g>
<path d="M45.6128 46.6825V29.8572H46.6907V46.6825H45.6128ZM48.4718 35.4109C48.4192 34.8807 48.1936 34.4688 47.7948 34.1753C47.3961 33.8817 46.855 33.7349 46.1715 33.7349C45.707 33.7349 45.3149 33.8007 44.995 33.9321C44.6752 34.0592 44.4298 34.2366 44.2589 34.4645C44.0924 34.6923 44.0092 34.9508 44.0092 35.24C44.0004 35.481 44.0508 35.6913 44.1603 35.871C44.2742 36.0506 44.4298 36.2061 44.627 36.3376C44.8241 36.4647 45.052 36.5764 45.3105 36.6728C45.569 36.7648 45.845 36.8437 46.1386 36.9094L47.3479 37.1986C47.9351 37.33 48.474 37.5053 48.9647 37.7244C49.4555 37.9434 49.8805 38.2129 50.2398 38.5328C50.5991 38.8526 50.8773 39.2294 51.0745 39.6632C51.276 40.097 51.379 40.5943 51.3834 41.1552C51.379 41.9789 51.1687 42.6931 50.7524 43.2978C50.3406 43.898 49.7447 44.3647 48.9647 44.6977C48.1892 45.0263 47.2537 45.1906 46.1583 45.1906C45.0717 45.1906 44.1253 45.0241 43.3191 44.6911C42.5172 44.3581 41.8907 43.8652 41.4394 43.2123C40.9924 42.5551 40.758 41.7423 40.7361 40.774H43.4899C43.5206 41.2253 43.6499 41.6021 43.8777 41.9044C44.1099 42.2024 44.4188 42.428 44.8044 42.5814C45.1944 42.7303 45.6347 42.8048 46.1255 42.8048C46.6074 42.8048 47.0259 42.7347 47.3808 42.5945C47.7401 42.4543 48.0183 42.2593 48.2155 42.0096C48.4127 41.7598 48.5112 41.4728 48.5112 41.1486C48.5112 40.8463 48.4214 40.5921 48.2418 40.3862C48.0665 40.1803 47.808 40.005 47.4662 39.8604C47.1288 39.7158 46.7148 39.5844 46.224 39.4661L44.7584 39.098C43.6236 38.822 42.7275 38.3904 42.0703 37.8032C41.4131 37.2161 41.0866 36.4252 41.091 35.4306C41.0866 34.6156 41.3035 33.9036 41.7417 33.2946C42.1842 32.6855 42.7911 32.2101 43.5622 31.8684C44.3334 31.5266 45.2097 31.3557 46.1912 31.3557C47.1902 31.3557 48.0621 31.5266 48.807 31.8684C49.5562 32.2101 50.139 32.6855 50.5553 33.2946C50.9715 33.9036 51.1862 34.6091 51.1993 35.4109H48.4718ZM58.3846 45.184C57.6923 45.1796 57.0241 45.0635 56.38 44.8357C55.7403 44.6078 55.1663 44.2376 54.6581 43.725C54.1498 43.2123 53.7467 42.5332 53.4487 41.6875C53.1552 40.8419 53.0084 39.8034 53.0084 38.5722C53.0128 37.4418 53.142 36.4318 53.3962 35.5423C53.6547 34.6485 54.0227 33.8905 54.5003 33.2683C54.9823 32.6461 55.5585 32.1729 56.2289 31.8487C56.8992 31.52 57.6507 31.3557 58.4832 31.3557C59.3814 31.3557 60.1745 31.531 60.8624 31.8815C61.5503 32.2277 62.1024 32.6987 62.5186 33.2946C62.9393 33.8905 63.1934 34.5587 63.281 35.2992H60.4746C60.3651 34.8303 60.1351 34.4623 59.7845 34.195C59.434 33.9277 59.0002 33.7941 58.4832 33.7941C57.6069 33.7941 56.9409 34.1753 56.4852 34.9377C56.0339 35.7001 55.8038 36.7363 55.7951 38.0464H55.8871C56.0887 37.6477 56.3603 37.3081 56.7021 37.0277C57.0482 36.7429 57.4404 36.526 57.8785 36.377C58.3211 36.2237 58.7877 36.147 59.2784 36.147C60.0759 36.147 60.7857 36.3354 61.4079 36.7122C62.0301 37.0847 62.5208 37.5973 62.8801 38.2502C63.2394 38.903 63.4191 39.6501 63.4191 40.4913C63.4191 41.4027 63.2065 42.2133 62.7815 42.9231C62.3609 43.6329 61.7716 44.1894 61.0136 44.5925C60.2599 44.9912 59.3836 45.1884 58.3846 45.184ZM58.3715 42.9494C58.8096 42.9494 59.2018 42.8443 59.5479 42.6339C59.8941 42.4236 60.1657 42.1388 60.3629 41.7795C60.5601 41.4202 60.6587 41.0171 60.6587 40.5702C60.6587 40.1233 60.5601 39.7224 60.3629 39.3675C60.1701 39.0126 59.9028 38.7299 59.5611 38.5196C59.2193 38.3093 58.8293 38.2042 58.3912 38.2042C58.0626 38.2042 57.758 38.2655 57.4776 38.3882C57.2016 38.5109 56.9584 38.6817 56.7481 38.9008C56.5421 39.1199 56.38 39.374 56.2617 39.6632C56.1434 39.948 56.0843 40.2525 56.0843 40.5768C56.0843 41.0106 56.1829 41.4071 56.38 41.7664C56.5816 42.1257 56.8532 42.4127 57.195 42.6274C57.5411 42.8421 57.9333 42.9494 58.3715 42.9494ZM70.4121 45.184C69.4306 45.184 68.5565 45.0153 67.7897 44.678C67.0273 44.3362 66.4248 43.8674 65.9823 43.2715C65.5441 42.6712 65.3185 41.9789 65.3053 41.1946H68.1709C68.1884 41.5232 68.2958 41.8124 68.4929 42.0621C68.6945 42.3075 68.9618 42.4981 69.2948 42.6339C69.6278 42.7698 70.0024 42.8377 70.4186 42.8377C70.8524 42.8377 71.2358 42.761 71.5688 42.6077C71.9018 42.4543 72.1625 42.2418 72.3509 41.9701C72.5393 41.6985 72.6335 41.3852 72.6335 41.0303C72.6335 40.671 72.5328 40.3533 72.3312 40.0773C72.134 39.7969 71.8492 39.5778 71.4768 39.42C71.1087 39.2623 70.6706 39.1834 70.1623 39.1834H68.907V37.0934H70.1623C70.5917 37.0934 70.9707 37.0189 71.2993 36.87C71.6323 36.721 71.8909 36.5151 72.0749 36.2522C72.2589 35.9849 72.3509 35.6738 72.3509 35.3189C72.3509 34.9815 72.2699 34.6857 72.1077 34.4316C71.95 34.1731 71.7265 33.9715 71.4374 33.8269C71.1526 33.6824 70.8196 33.6101 70.4384 33.6101C70.0528 33.6101 69.7001 33.6802 69.3802 33.8204C69.0603 33.9562 68.804 34.1512 68.6112 34.4053C68.4184 34.6594 68.3155 34.9574 68.3023 35.2992H65.5748C65.5879 34.5236 65.8092 33.8401 66.2386 33.2486C66.668 32.6571 67.2464 32.1948 67.9737 31.8618C68.7054 31.5244 69.5314 31.3557 70.4515 31.3557C71.3804 31.3557 72.1932 31.5244 72.8899 31.8618C73.5865 32.1992 74.1277 32.6549 74.5132 33.2289C74.9032 33.7985 75.096 34.4382 75.0916 35.148C75.096 35.9016 74.8616 36.5304 74.3884 37.0343C73.9195 37.5382 73.3083 37.858 72.5547 37.9938V38.099C73.5449 38.2261 74.2985 38.57 74.8156 39.1309C75.337 39.6873 75.5955 40.384 75.5911 41.2209C75.5955 41.9877 75.3742 42.669 74.9273 43.2649C74.4848 43.8608 73.8735 44.3296 73.0936 44.6714C72.3137 45.0131 71.4198 45.184 70.4121 45.184ZM77.6368 45V42.9494L82.428 38.5131C82.8355 38.1187 83.1773 37.7638 83.4533 37.4483C83.7337 37.1329 83.9463 36.824 84.0908 36.5216C84.2354 36.2149 84.3077 35.8841 84.3077 35.5292C84.3077 35.1348 84.2179 34.7953 84.0383 34.5105C83.8586 34.2213 83.6133 34 83.3022 33.8467C82.9911 33.6889 82.6384 33.6101 82.244 33.6101C81.8321 33.6101 81.4728 33.6933 81.1661 33.8598C80.8594 34.0263 80.6228 34.2651 80.4563 34.5762C80.2898 34.8873 80.2066 35.2575 80.2066 35.6869H77.5053C77.5053 34.8062 77.7047 34.0416 78.1034 33.3932C78.5021 32.7447 79.0608 32.243 79.7794 31.8881C80.4979 31.5332 81.3261 31.3557 82.2637 31.3557C83.2277 31.3557 84.0667 31.5266 84.7809 31.8684C85.4995 32.2058 86.0582 32.6746 86.4569 33.2749C86.8556 33.8751 87.055 34.5631 87.055 35.3386C87.055 35.8469 86.9542 36.3485 86.7527 36.8437C86.5555 37.3388 86.2028 37.8887 85.6945 38.4933C85.1862 39.0936 84.4699 39.8144 83.5453 40.6557L81.5802 42.5814V42.6734H87.2324V45H77.6368ZM92.3638 43.1597L92.2915 43.8827C92.2346 44.4611 92.125 45.0372 91.9629 45.6112C91.8052 46.1896 91.6387 46.7132 91.4634 47.182C91.2925 47.6509 91.1545 48.0189 91.0494 48.2862H89.2354C89.3011 48.0277 89.3909 47.6662 89.5049 47.2017C89.6188 46.7417 89.7261 46.2247 89.8269 45.6507C89.9277 45.0767 89.9912 44.4917 90.0175 43.8958L90.0504 43.1597H92.3638ZM94.8975 45V42.9494L99.6888 38.5131C100.096 38.1187 100.438 37.7638 100.714 37.4483C100.994 37.1329 101.207 36.824 101.352 36.5216C101.496 36.2149 101.568 35.8841 101.568 35.5292C101.568 35.1348 101.479 34.7953 101.299 34.5105C101.119 34.2213 100.874 34 100.563 33.8467C100.252 33.6889 99.8991 33.6101 99.5047 33.6101C99.0929 33.6101 98.7336 33.6933 98.4269 33.8598C98.1202 34.0263 97.8835 34.2651 97.717 34.5762C97.5505 34.8873 97.4673 35.2575 97.4673 35.6869H94.766C94.766 34.8062 94.9654 34.0416 95.3641 33.3932C95.7629 32.7447 96.3215 32.243 97.0401 31.8881C97.7587 31.5332 98.5868 31.3557 99.5245 31.3557C100.488 31.3557 101.327 31.5266 102.042 31.8684C102.76 32.2058 103.319 32.6746 103.718 33.2749C104.116 33.8751 104.316 34.5631 104.316 35.3386C104.316 35.8469 104.215 36.3485 104.013 36.8437C103.816 37.3388 103.464 37.8887 102.955 38.4933C102.447 39.0936 101.731 39.8144 100.806 40.6557L98.8409 42.5814V42.6734H104.493V45H94.8975ZM111.721 45.184C111.029 45.1796 110.361 45.0635 109.717 44.8357C109.077 44.6078 108.503 44.2376 107.995 43.725C107.486 43.2123 107.083 42.5332 106.785 41.6875C106.492 40.8419 106.345 39.8034 106.345 38.5722C106.349 37.4418 106.479 36.4318 106.733 35.5423C106.991 34.6485 107.359 33.8905 107.837 33.2683C108.319 32.6461 108.895 32.1729 109.565 31.8487C110.236 31.52 110.987 31.3557 111.82 31.3557C112.718 31.3557 113.511 31.531 114.199 31.8815C114.887 32.2277 115.439 32.6987 115.855 33.2946C116.276 33.8905 116.53 34.5587 116.618 35.2992H113.811C113.702 34.8303 113.472 34.4623 113.121 34.195C112.771 33.9277 112.337 33.7941 111.82 33.7941C110.943 33.7941 110.277 34.1753 109.822 34.9377C109.37 35.7001 109.14 36.7363 109.132 38.0464H109.224C109.425 37.6477 109.697 37.3081 110.039 37.0277C110.385 36.7429 110.777 36.526 111.215 36.377C111.658 36.2237 112.124 36.147 112.615 36.147C113.412 36.147 114.122 36.3354 114.744 36.7122C115.367 37.0847 115.857 37.5973 116.217 38.2502C116.576 38.903 116.756 39.6501 116.756 40.4913C116.756 41.4027 116.543 42.2133 116.118 42.9231C115.697 43.6329 115.108 44.1894 114.35 44.5925C113.596 44.9912 112.72 45.1884 111.721 45.184ZM111.708 42.9494C112.146 42.9494 112.538 42.8443 112.884 42.6339C113.231 42.4236 113.502 42.1388 113.699 41.7795C113.897 41.4202 113.995 41.0171 113.995 40.5702C113.995 40.1233 113.897 39.7224 113.699 39.3675C113.507 39.0126 113.239 38.7299 112.898 38.5196C112.556 38.3093 112.166 38.2042 111.728 38.2042C111.399 38.2042 111.095 38.2655 110.814 38.3882C110.538 38.5109 110.295 38.6817 110.085 38.9008C109.879 39.1199 109.717 39.374 109.598 39.6632C109.48 39.948 109.421 40.2525 109.421 40.5768C109.421 41.0106 109.519 41.4071 109.717 41.7664C109.918 42.1257 110.19 42.4127 110.532 42.6274C110.878 42.8421 111.27 42.9494 111.708 42.9494ZM118.57 42.6339V40.3928L124.189 31.5398H126.121V34.6419H124.978L121.435 40.2482V40.3533H129.421V42.6339H118.57ZM125.03 45V41.9504L125.083 40.958V31.5398H127.751V45H125.03ZM134.133 43.1597L134.061 43.8827C134.004 44.4611 133.894 45.0372 133.732 45.6112C133.574 46.1896 133.408 46.7132 133.233 47.182C133.062 47.6509 132.924 48.0189 132.819 48.2862H131.005C131.07 48.0277 131.16 47.6662 131.274 47.2017C131.388 46.7417 131.495 46.2247 131.596 45.6507C131.697 45.0767 131.76 44.4917 131.787 43.8958L131.82 43.1597H134.133ZM136.463 42.6339V40.3928L142.082 31.5398H144.015V34.6419H142.871L139.328 40.2482V40.3533H147.314V42.6339H136.463ZM142.924 45V41.9504L142.976 40.958V31.5398H145.645V45H142.924ZM154.185 45.184C153.204 45.184 152.33 45.0153 151.563 44.678C150.801 44.3362 150.198 43.8674 149.756 43.2715C149.317 42.6712 149.092 41.9789 149.079 41.1946H151.944C151.962 41.5232 152.069 41.8124 152.266 42.0621C152.468 42.3075 152.735 42.4981 153.068 42.6339C153.401 42.7698 153.776 42.8377 154.192 42.8377C154.626 42.8377 155.009 42.761 155.342 42.6077C155.675 42.4543 155.936 42.2418 156.124 41.9701C156.313 41.6985 156.407 41.3852 156.407 41.0303C156.407 40.671 156.306 40.3533 156.104 40.0773C155.907 39.7969 155.622 39.5778 155.25 39.42C154.882 39.2623 154.444 39.1834 153.936 39.1834H152.68V37.0934H153.936C154.365 37.0934 154.744 37.0189 155.073 36.87C155.406 36.721 155.664 36.5151 155.848 36.2522C156.032 35.9849 156.124 35.6738 156.124 35.3189C156.124 34.9815 156.043 34.6857 155.881 34.4316C155.723 34.1731 155.5 33.9715 155.211 33.8269C154.926 33.6824 154.593 33.6101 154.212 33.6101C153.826 33.6101 153.473 33.6802 153.153 33.8204C152.834 33.9562 152.577 34.1512 152.385 34.4053C152.192 34.6594 152.089 34.9574 152.076 35.2992H149.348C149.361 34.5236 149.582 33.8401 150.012 33.2486C150.441 32.6571 151.02 32.1948 151.747 31.8618C152.479 31.5244 153.305 31.3557 154.225 31.3557C155.154 31.3557 155.966 31.5244 156.663 31.8618C157.36 32.1992 157.901 32.6549 158.287 33.2289C158.676 33.7985 158.869 34.4382 158.865 35.148C158.869 35.9016 158.635 36.5304 158.162 37.0343C157.693 37.5382 157.082 37.858 156.328 37.9938V38.099C157.318 38.2261 158.072 38.57 158.589 39.1309C159.11 39.6873 159.369 40.384 159.364 41.2209C159.369 41.9877 159.147 42.669 158.701 43.2649C158.258 43.8608 157.647 44.3296 156.867 44.6714C156.087 45.0131 155.193 45.184 154.185 45.184ZM166.688 45.2958C165.557 45.2914 164.584 45.0131 163.77 44.4611C162.959 43.909 162.335 43.1093 161.896 42.0621C161.463 41.0149 161.248 39.7552 161.252 38.283C161.252 36.8152 161.469 35.5642 161.903 34.5302C162.341 33.4961 162.965 32.7096 163.776 32.1707C164.591 31.6274 165.562 31.3557 166.688 31.3557C167.814 31.3557 168.782 31.6274 169.593 32.1707C170.408 32.714 171.034 33.5027 171.472 34.5368C171.911 35.5664 172.127 36.8152 172.123 38.283C172.123 39.7596 171.904 41.0215 171.466 42.0687C171.032 43.1159 170.41 43.9156 169.599 44.4676C168.789 45.0197 167.818 45.2958 166.688 45.2958ZM166.688 42.9363C167.459 42.9363 168.074 42.5485 168.534 41.773C168.995 40.9974 169.222 39.8341 169.218 38.283C169.218 37.2621 169.113 36.4121 168.903 35.7329C168.697 35.0538 168.403 34.5433 168.022 34.2016C167.645 33.8598 167.2 33.6889 166.688 33.6889C165.921 33.6889 165.307 34.0723 164.847 34.8391C164.387 35.6059 164.155 36.7538 164.151 38.283C164.151 39.3171 164.254 40.1803 164.46 40.8725C164.67 41.5605 164.966 42.0775 165.347 42.4236C165.728 42.7654 166.175 42.9363 166.688 42.9363ZM176.679 43.1597L176.607 43.8827C176.55 44.4611 176.441 45.0372 176.278 45.6112C176.121 46.1896 175.954 46.7132 175.779 47.182C175.608 47.6509 175.47 48.0189 175.365 48.2862H173.551C173.617 48.0277 173.706 47.6662 173.82 47.2017C173.934 46.7417 174.042 46.2247 174.142 45.6507C174.243 45.0767 174.307 44.4917 174.333 43.8958L174.366 43.1597H176.679ZM183.948 45.2958C182.818 45.2914 181.845 45.0131 181.03 44.4611C180.22 43.909 179.595 43.1093 179.157 42.0621C178.723 41.0149 178.509 39.7552 178.513 38.283C178.513 36.8152 178.73 35.5642 179.164 34.5302C179.602 33.4961 180.226 32.7096 181.037 32.1707C181.852 31.6274 182.822 31.3557 183.948 31.3557C185.074 31.3557 186.043 31.6274 186.853 32.1707C187.668 32.714 188.295 33.5027 188.733 34.5368C189.171 35.5664 189.388 36.8152 189.384 38.283C189.384 39.7596 189.165 41.0215 188.727 42.0687C188.293 43.1159 187.671 43.9156 186.86 44.4676C186.049 45.0197 185.079 45.2958 183.948 45.2958ZM183.948 42.9363C184.72 42.9363 185.335 42.5485 185.795 41.773C186.255 40.9974 186.483 39.8341 186.479 38.283C186.479 37.2621 186.374 36.4121 186.163 35.7329C185.957 35.0538 185.664 34.5433 185.283 34.2016C184.906 33.8598 184.461 33.6889 183.948 33.6889C183.182 33.6889 182.568 34.0723 182.108 34.8391C181.648 35.6059 181.416 36.7538 181.411 38.283C181.411 39.3171 181.514 40.1803 181.72 40.8725C181.931 41.5605 182.226 42.0775 182.608 42.4236C182.989 42.7654 183.436 42.9363 183.948 42.9363ZM191.413 45V42.9494L196.204 38.5131C196.612 38.1187 196.953 37.7638 197.23 37.4483C197.51 37.1329 197.722 36.824 197.867 36.5216C198.012 36.2149 198.084 35.8841 198.084 35.5292C198.084 35.1348 197.994 34.7953 197.814 34.5105C197.635 34.2213 197.389 34 197.078 33.8467C196.767 33.6889 196.415 33.6101 196.02 33.6101C195.608 33.6101 195.249 33.6933 194.942 33.8598C194.636 34.0263 194.399 34.2651 194.233 34.5762C194.066 34.8873 193.983 35.2575 193.983 35.6869H191.282C191.282 34.8062 191.481 34.0416 191.88 33.3932C192.278 32.7447 192.837 32.243 193.556 31.8881C194.274 31.5332 195.102 31.3557 196.04 31.3557C197.004 31.3557 197.843 31.5266 198.557 31.8684C199.276 32.2058 199.834 32.6746 200.233 33.2749C200.632 33.8751 200.831 34.5631 200.831 35.3386C200.831 35.8469 200.73 36.3485 200.529 36.8437C200.332 37.3388 199.979 37.8887 199.471 38.4933C198.962 39.0936 198.246 39.8144 197.322 40.6557L195.356 42.5814V42.6734H201.009V45H191.413ZM202.578 42.6339V40.3928L208.197 31.5398H210.129V34.6419H208.986L205.443 40.2482V40.3533H213.429V42.6339H202.578ZM209.038 45V41.9504L209.091 40.958V31.5398H211.759V45H209.038Z" fill="white"/>
<path d="M225.555 38.1194V39.7855H220.951V38.1194H225.555ZM230.538 44V42.4621L234.131 39.1348C234.437 38.839 234.693 38.5729 234.9 38.3362C235.11 38.0996 235.27 37.868 235.378 37.6412C235.487 37.4112 235.541 37.1631 235.541 36.8969C235.541 36.6011 235.473 36.3465 235.339 36.1329C235.204 35.916 235.02 35.75 234.787 35.635C234.553 35.5167 234.289 35.4575 233.993 35.4575C233.684 35.4575 233.415 35.52 233.185 35.6449C232.955 35.7697 232.777 35.9488 232.652 36.1821C232.527 36.4155 232.465 36.6931 232.465 37.0152H230.439C230.439 36.3547 230.589 35.7812 230.888 35.2949C231.187 34.8085 231.606 34.4322 232.145 34.1661C232.683 33.8999 233.305 33.7668 234.008 33.7668C234.731 33.7668 235.36 33.895 235.896 34.1513C236.435 34.4043 236.854 34.7559 237.153 35.2061C237.452 35.6564 237.601 36.1723 237.601 36.7539C237.601 37.1351 237.526 37.5114 237.375 37.8828C237.227 38.2541 236.962 38.6665 236.581 39.12C236.2 39.5702 235.662 40.1108 234.969 40.7417L233.495 42.186V42.255H237.734V44H230.538ZM240.528 44.1282C240.203 44.1282 239.923 44.0131 239.69 43.7831C239.46 43.5498 239.345 43.2705 239.345 42.9451C239.345 42.6231 239.46 42.347 239.69 42.117C239.923 41.887 240.203 41.772 240.528 41.772C240.844 41.772 241.12 41.887 241.356 42.117C241.593 42.347 241.711 42.6231 241.711 42.9451C241.711 43.162 241.655 43.3608 241.543 43.5416C241.435 43.719 241.292 43.862 241.115 43.9704C240.937 44.0756 240.742 44.1282 240.528 44.1282ZM243.263 42.2255V40.5446L247.477 33.9048H248.926V36.2314H248.069L245.412 40.4361V40.515H251.401V42.2255H243.263ZM248.108 44V41.7128L248.147 40.9685V33.9048H250.149V44H248.108ZM256.554 44.138C255.818 44.138 255.163 44.0115 254.588 43.7585C254.016 43.5021 253.564 43.1505 253.232 42.7036C252.903 42.2534 252.734 41.7342 252.724 41.1459H254.873C254.887 41.3924 254.967 41.6093 255.115 41.7966C255.266 41.9806 255.467 42.1236 255.716 42.2255C255.966 42.3273 256.247 42.3783 256.559 42.3783C256.885 42.3783 257.172 42.3208 257.422 42.2057C257.672 42.0907 257.867 41.9313 258.009 41.7276C258.15 41.5239 258.22 41.2889 258.22 41.0227C258.22 40.7532 258.145 40.515 257.994 40.308C257.846 40.0976 257.632 39.9333 257.353 39.815C257.077 39.6967 256.748 39.6376 256.367 39.6376H255.426V38.0701H256.367C256.689 38.0701 256.973 38.0142 257.22 37.9025C257.47 37.7907 257.663 37.6363 257.801 37.4391C257.94 37.2387 258.009 37.0053 258.009 36.7392C258.009 36.4861 257.948 36.2643 257.826 36.0737C257.708 35.8798 257.54 35.7287 257.323 35.6202C257.11 35.5118 256.86 35.4575 256.574 35.4575C256.285 35.4575 256.02 35.5101 255.78 35.6153C255.541 35.7172 255.348 35.8634 255.204 36.054C255.059 36.2446 254.982 36.468 254.972 36.7244H252.926C252.936 36.1427 253.102 35.6301 253.424 35.1864C253.746 34.7428 254.18 34.3961 254.726 34.1464C255.274 33.8933 255.894 33.7668 256.584 33.7668C257.281 33.7668 257.89 33.8933 258.413 34.1464C258.935 34.3994 259.341 34.7412 259.63 35.1716C259.923 35.5988 260.067 36.0786 260.064 36.611C260.067 37.1762 259.892 37.6478 259.537 38.0257C259.185 38.4036 258.727 38.6435 258.161 38.7454V38.8242C258.904 38.9195 259.469 39.1775 259.857 39.5981C260.248 40.0155 260.442 40.538 260.439 41.1657C260.442 41.7407 260.276 42.2517 259.941 42.6987C259.609 43.1456 259.15 43.4972 258.566 43.7535C257.981 44.0099 257.31 44.138 256.554 44.138ZM267.499 42.1072V41.5748C267.499 41.1706 267.584 40.7992 267.755 40.4608C267.929 40.119 268.181 39.8463 268.509 39.6425C268.841 39.4355 269.245 39.332 269.722 39.332C270.205 39.332 270.611 39.4338 270.939 39.6376C271.271 39.8413 271.521 40.1141 271.689 40.4558C271.859 40.7943 271.945 41.1673 271.945 41.5748V42.1072C271.945 42.5114 271.859 42.8843 271.689 43.2261C271.518 43.5646 271.266 43.8357 270.934 44.0394C270.602 44.2465 270.198 44.35 269.722 44.35C269.239 44.35 268.833 44.2465 268.504 44.0394C268.176 43.8357 267.926 43.5646 267.755 43.2261C267.584 42.8843 267.499 42.5114 267.499 42.1072ZM268.933 41.5748V42.1072C268.933 42.3405 268.989 42.5606 269.101 42.7677C269.216 42.9747 269.423 43.0782 269.722 43.0782C270.021 43.0782 270.225 42.9764 270.333 42.7726C270.445 42.5689 270.501 42.347 270.501 42.1072V41.5748C270.501 41.3349 270.448 41.1114 270.343 40.9044C270.238 40.6974 270.031 40.5939 269.722 40.5939C269.426 40.5939 269.221 40.6974 269.106 40.9044C268.991 41.1114 268.933 41.3349 268.933 41.5748ZM262.318 36.33V35.7977C262.318 35.3902 262.405 35.0172 262.579 34.6787C262.753 34.3369 263.005 34.0642 263.333 33.8605C263.665 33.6567 264.066 33.5548 264.536 33.5548C265.022 33.5548 265.43 33.6567 265.759 33.8605C266.087 34.0642 266.337 34.3369 266.508 34.6787C266.679 35.0172 266.764 35.3902 266.764 35.7977V36.33C266.764 36.7375 266.677 37.1105 266.503 37.449C266.332 37.7875 266.081 38.0586 265.749 38.2623C265.42 38.4628 265.016 38.563 264.536 38.563C264.056 38.563 263.65 38.4611 263.319 38.2574C262.99 38.0503 262.74 37.7792 262.569 37.444C262.402 37.1056 262.318 36.7342 262.318 36.33ZM263.762 35.7977V36.33C263.762 36.5699 263.818 36.7917 263.93 36.9955C264.045 37.1992 264.247 37.3011 264.536 37.3011C264.838 37.3011 265.044 37.1992 265.152 36.9955C265.264 36.7917 265.32 36.5699 265.32 36.33V35.7977C265.32 35.5578 265.267 35.3343 265.162 35.1273C265.057 34.9202 264.848 34.8167 264.536 34.8167C264.244 34.8167 264.042 34.9219 263.93 35.1322C263.818 35.3425 263.762 35.5643 263.762 35.7977ZM262.969 44L269.909 33.9048H271.201L264.26 44H262.969Z" fill="#FD5D5D"/>
<path d="M40.6165 66.1406V64.8182H48.4964V66.1406H45.3196V75H43.7884V66.1406H40.6165ZM52.2276 75.1541C51.5117 75.1541 50.887 74.9901 50.3533 74.6619C49.8197 74.3338 49.4054 73.8748 49.1104 73.2848C48.8155 72.6948 48.668 72.0054 48.668 71.2166C48.668 70.4245 48.8155 69.7318 49.1104 69.1385C49.4054 68.5452 49.8197 68.0845 50.3533 67.7564C50.887 67.4283 51.5117 67.2642 52.2276 67.2642C52.9435 67.2642 53.5683 67.4283 54.1019 67.7564C54.6355 68.0845 55.0498 68.5452 55.3448 69.1385C55.6398 69.7318 55.7873 70.4245 55.7873 71.2166C55.7873 72.0054 55.6398 72.6948 55.3448 73.2848C55.0498 73.8748 54.6355 74.3338 54.1019 74.6619C53.5683 74.9901 52.9435 75.1541 52.2276 75.1541ZM52.2326 73.9062C52.6966 73.9062 53.0811 73.7836 53.386 73.5384C53.6909 73.2931 53.9163 72.9666 54.0621 72.5589C54.2113 72.1513 54.2859 71.7022 54.2859 71.2116C54.2859 70.7244 54.2113 70.277 54.0621 69.8693C53.9163 69.4583 53.6909 69.1286 53.386 68.88C53.0811 68.6314 52.6966 68.5071 52.2326 68.5071C51.7653 68.5071 51.3775 68.6314 51.0692 68.88C50.7643 69.1286 50.5373 69.4583 50.3881 69.8693C50.2423 70.277 50.1694 70.7244 50.1694 71.2116C50.1694 71.7022 50.2423 72.1513 50.3881 72.5589C50.5373 72.9666 50.7643 73.2931 51.0692 73.5384C51.3775 73.7836 51.7653 73.9062 52.2326 73.9062ZM61.0112 67.3636V68.5568H56.84V67.3636H61.0112ZM57.9586 65.5341H59.4451V72.7578C59.4451 73.0462 59.4882 73.2633 59.5744 73.4091C59.6606 73.5516 59.7716 73.6494 59.9075 73.7024C60.0467 73.7521 60.1975 73.777 60.3599 73.777C60.4792 73.777 60.5836 73.7687 60.6731 73.7521C60.7626 73.7356 60.8322 73.7223 60.8819 73.7124L61.1504 74.9403C61.0642 74.9735 60.9416 75.0066 60.7825 75.0398C60.6234 75.0762 60.4245 75.0961 60.1859 75.0994C59.7948 75.1061 59.4302 75.0365 59.0922 74.8906C58.7541 74.7448 58.4806 74.5194 58.2718 74.2145C58.063 73.9096 57.9586 73.5268 57.9586 73.0661V65.5341ZM64.8778 75.169C64.3939 75.169 63.9564 75.0795 63.5653 74.9006C63.1742 74.7183 62.8643 74.4548 62.6357 74.1101C62.4103 73.7654 62.2976 73.3428 62.2976 72.8423C62.2976 72.4115 62.3804 72.0568 62.5462 71.7784C62.7119 71.5 62.9356 71.2796 63.2173 71.1172C63.4991 70.9548 63.8139 70.8321 64.1619 70.7493C64.5099 70.6664 64.8646 70.6035 65.2259 70.5604C65.6832 70.5073 66.0545 70.4643 66.3395 70.4311C66.6245 70.3946 66.8317 70.3366 66.9609 70.2571C67.0902 70.1776 67.1548 70.0483 67.1548 69.8693V69.8345C67.1548 69.4003 67.0322 69.0639 66.7869 68.8253C66.545 68.5866 66.1837 68.4673 65.7031 68.4673C65.2027 68.4673 64.8082 68.5784 64.5199 68.8004C64.2348 69.0192 64.0376 69.2628 63.9283 69.5312L62.5312 69.2131C62.697 68.7491 62.9389 68.3745 63.2571 68.0895C63.5786 67.8011 63.9482 67.5923 64.3658 67.4631C64.7834 67.3305 65.2225 67.2642 65.6832 67.2642C65.9882 67.2642 66.3113 67.3007 66.6527 67.3736C66.9974 67.4432 67.3189 67.5724 67.6172 67.7614C67.9188 67.9503 68.1657 68.2204 68.358 68.5717C68.5502 68.9197 68.6463 69.3722 68.6463 69.929V75H67.1946V73.956H67.1349C67.0388 74.1482 66.8946 74.3371 66.7024 74.5227C66.5102 74.7083 66.2633 74.8625 65.9616 74.9851C65.66 75.1077 65.2988 75.169 64.8778 75.169ZM65.201 73.9759C65.612 73.9759 65.9633 73.8946 66.255 73.7322C66.55 73.5698 66.7737 73.3577 66.9261 73.0959C67.0819 72.8307 67.1598 72.5473 67.1598 72.2457V71.2614C67.1068 71.3144 67.004 71.3641 66.8516 71.4105C66.7024 71.4536 66.5317 71.4917 66.3395 71.5249C66.1473 71.5547 65.96 71.5829 65.7777 71.6094C65.5954 71.6326 65.4429 71.6525 65.3203 71.669C65.032 71.7055 64.7685 71.7668 64.5298 71.853C64.2945 71.9392 64.1056 72.0634 63.9631 72.2259C63.8239 72.3849 63.7543 72.5971 63.7543 72.8622C63.7543 73.2301 63.8902 73.5085 64.1619 73.6974C64.4337 73.883 64.7801 73.9759 65.201 73.9759ZM72.1127 64.8182V75H70.6262V64.8182H72.1127ZM77.937 75V64.8182H81.6657C82.3882 64.8182 82.9864 64.9375 83.4604 65.1761C83.9344 65.4115 84.289 65.7313 84.5243 66.1357C84.7596 66.5367 84.8773 66.9891 84.8773 67.4929C84.8773 67.9171 84.7994 68.2751 84.6436 68.5668C84.4879 68.8551 84.2791 69.0871 84.0172 69.2628C83.7587 69.4351 83.4737 69.5611 83.1621 69.6406V69.7401C83.5002 69.7566 83.83 69.866 84.1515 70.0682C84.4763 70.267 84.7447 70.5504 84.9569 70.9183C85.169 71.2862 85.275 71.7337 85.275 72.2607C85.275 72.781 85.1524 73.2483 84.9071 73.6626C84.6652 74.0736 84.2907 74.4001 83.7836 74.642C83.2765 74.8807 82.6285 75 81.8397 75H77.937ZM79.4732 73.6825H81.6905C82.4263 73.6825 82.9533 73.54 83.2715 73.255C83.5897 72.9699 83.7488 72.6136 83.7488 72.1861C83.7488 71.8646 83.6676 71.5696 83.5051 71.3011C83.3427 71.0327 83.1107 70.8189 82.8091 70.6598C82.5108 70.5007 82.1562 70.4212 81.7452 70.4212H79.4732V73.6825ZM79.4732 69.223H81.5314C81.8761 69.223 82.186 69.1567 82.4611 69.0241C82.7395 68.8916 82.9599 68.706 83.1223 68.4673C83.2881 68.2254 83.3709 67.9403 83.3709 67.6122C83.3709 67.1913 83.2234 66.8383 82.9284 66.5533C82.6335 66.2682 82.181 66.1257 81.5712 66.1257H79.4732V69.223ZM87.0971 75V64.8182H90.7264C91.5152 64.8182 92.1698 64.9541 92.6902 65.2259C93.2138 65.4976 93.6049 65.8738 93.8635 66.3544C94.122 66.8317 94.2512 67.3835 94.2512 68.0099C94.2512 68.633 94.1203 69.1816 93.8585 69.6555C93.6 70.1262 93.2089 70.4924 92.6852 70.7543C92.1648 71.0161 91.5102 71.147 90.7214 71.147H87.9721V69.8246H90.5822C91.0794 69.8246 91.4837 69.7533 91.7953 69.6108C92.1101 69.4683 92.3405 69.2611 92.4863 68.9893C92.6322 68.7176 92.7051 68.3911 92.7051 68.0099C92.7051 67.6255 92.6305 67.2924 92.4814 67.0107C92.3355 66.7289 92.1052 66.5135 91.7903 66.3643C91.4788 66.2119 91.0694 66.1357 90.5623 66.1357H88.6333V75H87.0971ZM92.1234 70.4062L94.639 75H92.889L90.4231 70.4062H92.1234ZM104.577 68.1293H103.026C102.966 67.7978 102.855 67.5062 102.693 67.2543C102.531 67.0024 102.332 66.7886 102.096 66.6129C101.861 66.4373 101.598 66.3047 101.306 66.2152C101.018 66.1257 100.711 66.081 100.386 66.081C99.7995 66.081 99.2742 66.2285 98.8102 66.5234C98.3495 66.8184 97.9849 67.2509 97.7164 67.821C97.4513 68.3911 97.3187 69.0871 97.3187 69.9091C97.3187 70.7377 97.4513 71.437 97.7164 72.0071C97.9849 72.5772 98.3511 73.008 98.8152 73.2997C99.2792 73.5914 99.8012 73.7372 100.381 73.7372C100.703 73.7372 101.008 73.6941 101.296 73.608C101.588 73.5185 101.851 73.3875 102.086 73.2152C102.322 73.0429 102.521 72.8324 102.683 72.5838C102.849 72.3319 102.963 72.0436 103.026 71.7188L104.577 71.7237C104.494 72.2242 104.334 72.6849 104.095 73.1058C103.86 73.5234 103.556 73.8847 103.185 74.1896C102.817 74.4912 102.396 74.7249 101.922 74.8906C101.448 75.0563 100.931 75.1392 100.371 75.1392C99.4896 75.1392 98.7041 74.9304 98.0147 74.5128C97.3253 74.0919 96.7818 73.4903 96.3841 72.7081C95.9896 71.9259 95.7924 70.9929 95.7924 69.9091C95.7924 68.822 95.9913 67.889 96.389 67.1101C96.7868 66.3279 97.3303 65.728 98.0197 65.3104C98.7091 64.8894 99.493 64.679 100.371 64.679C100.912 64.679 101.415 64.7569 101.883 64.9126C102.353 65.0651 102.776 65.2905 103.15 65.5888C103.525 65.8838 103.835 66.245 104.08 66.6726C104.325 67.0968 104.491 67.5824 104.577 68.1293ZM106.276 75V73.8864L109.722 70.3168C110.089 69.929 110.393 69.5893 110.631 69.2976C110.873 69.0026 111.054 68.7225 111.173 68.4574C111.293 68.1922 111.352 67.9105 111.352 67.6122C111.352 67.2741 111.273 66.9825 111.114 66.7372C110.955 66.4886 110.737 66.2981 110.462 66.1655C110.187 66.0296 109.877 65.9616 109.533 65.9616C109.168 65.9616 108.85 66.0362 108.578 66.1854C108.306 66.3345 108.098 66.545 107.952 66.8168C107.806 67.0885 107.733 67.4067 107.733 67.7713H106.266C106.266 67.1515 106.409 66.6096 106.694 66.1456C106.979 65.6816 107.37 65.322 107.867 65.0668C108.364 64.8082 108.929 64.679 109.562 64.679C110.202 64.679 110.766 64.8066 111.253 65.0618C111.743 65.3137 112.126 65.6584 112.401 66.0959C112.676 66.5301 112.814 67.0206 112.814 67.5675C112.814 67.9453 112.743 68.3149 112.6 68.6761C112.461 69.0374 112.217 69.4401 111.869 69.8842C111.521 70.325 111.037 70.8603 110.418 71.4901L108.394 73.608V73.6825H112.978V75H106.276ZM118.407 75.169C117.621 75.1657 116.95 74.9586 116.393 74.5476C115.837 74.1366 115.411 73.5384 115.116 72.7528C114.821 71.9673 114.673 71.0211 114.673 69.9141C114.673 68.8104 114.821 67.8674 115.116 67.0852C115.414 66.303 115.842 65.7064 116.398 65.2955C116.959 64.8845 117.628 64.679 118.407 64.679C119.186 64.679 119.854 64.8861 120.411 65.3004C120.967 65.7114 121.393 66.308 121.688 67.0902C121.987 67.8691 122.136 68.8104 122.136 69.9141C122.136 71.0244 121.988 71.9723 121.693 72.7578C121.398 73.54 120.972 74.1383 120.415 74.5526C119.859 74.9635 119.189 75.169 118.407 75.169ZM118.407 73.8416C119.096 73.8416 119.635 73.5052 120.023 72.8324C120.414 72.1596 120.609 71.1868 120.609 69.9141C120.609 69.0689 120.52 68.3546 120.341 67.7713C120.165 67.1847 119.912 66.7405 119.58 66.4389C119.252 66.134 118.861 65.9815 118.407 65.9815C117.721 65.9815 117.182 66.3196 116.791 66.9957C116.4 67.6719 116.203 68.6446 116.2 69.9141C116.2 70.7625 116.287 71.4801 116.463 72.0668C116.642 72.6501 116.896 73.0926 117.224 73.3942C117.552 73.6925 117.946 73.8416 118.407 73.8416ZM127.744 64.8182H129.608L132.849 72.733H132.969L136.21 64.8182H138.075V75H136.613V67.6321H136.518L133.516 74.9851H132.303L129.3 67.6271H129.205V75H127.744V64.8182ZM142.411 75.169C141.927 75.169 141.49 75.0795 141.099 74.9006C140.707 74.7183 140.398 74.4548 140.169 74.1101C139.943 73.7654 139.831 73.3428 139.831 72.8423C139.831 72.4115 139.914 72.0568 140.079 71.7784C140.245 71.5 140.469 71.2796 140.751 71.1172C141.032 70.9548 141.347 70.8321 141.695 70.7493C142.043 70.6664 142.398 70.6035 142.759 70.5604C143.216 70.5073 143.588 70.4643 143.873 70.4311C144.158 70.3946 144.365 70.3366 144.494 70.2571C144.623 70.1776 144.688 70.0483 144.688 69.8693V69.8345C144.688 69.4003 144.565 69.0639 144.32 68.8253C144.078 68.5866 143.717 68.4673 143.236 68.4673C142.736 68.4673 142.341 68.5784 142.053 68.8004C141.768 69.0192 141.571 69.2628 141.461 69.5312L140.064 69.2131C140.23 68.7491 140.472 68.3745 140.79 68.0895C141.112 67.8011 141.481 67.5923 141.899 67.4631C142.317 67.3305 142.756 67.2642 143.216 67.2642C143.521 67.2642 143.845 67.3007 144.186 67.3736C144.531 67.4432 144.852 67.5724 145.15 67.7614C145.452 67.9503 145.699 68.2204 145.891 68.5717C146.083 68.9197 146.18 69.3722 146.18 69.929V75H144.728V73.956H144.668C144.572 74.1482 144.428 74.3371 144.236 74.5227C144.043 74.7083 143.796 74.8625 143.495 74.9851C143.193 75.1077 142.832 75.169 142.411 75.169ZM142.734 73.9759C143.145 73.9759 143.497 73.8946 143.788 73.7322C144.083 73.5698 144.307 73.3577 144.459 73.0959C144.615 72.8307 144.693 72.5473 144.693 72.2457V71.2614C144.64 71.3144 144.537 71.3641 144.385 71.4105C144.236 71.4536 144.065 71.4917 143.873 71.5249C143.68 71.5547 143.493 71.5829 143.311 71.6094C143.129 71.6326 142.976 71.6525 142.854 71.669C142.565 71.7055 142.302 71.7668 142.063 71.853C141.828 71.9392 141.639 72.0634 141.496 72.2259C141.357 72.3849 141.287 72.5971 141.287 72.8622C141.287 73.2301 141.423 73.5085 141.695 73.6974C141.967 73.883 142.313 73.9759 142.734 73.9759ZM148.159 75V67.3636H149.596V68.5767H149.676C149.815 68.1657 150.06 67.8426 150.412 67.6072C150.766 67.3686 151.167 67.2493 151.615 67.2493C151.708 67.2493 151.817 67.2526 151.943 67.2592C152.072 67.2659 152.173 67.2741 152.246 67.2841V68.706C152.186 68.6894 152.08 68.6712 151.928 68.6513C151.775 68.6281 151.623 68.6165 151.471 68.6165C151.119 68.6165 150.806 68.6911 150.531 68.8402C150.259 68.986 150.044 69.1899 149.885 69.4517C149.725 69.7102 149.646 70.0052 149.646 70.3366V75H148.159ZM154.9 72.4098L154.89 70.5952H155.148L158.191 67.3636H159.971L156.501 71.0426H156.267L154.9 72.4098ZM153.532 75V64.8182H155.019V75H153.532ZM158.355 75L155.621 71.3707L156.645 70.3317L160.18 75H158.355ZM164.302 75.1541C163.55 75.1541 162.902 74.9934 162.358 74.6719C161.818 74.3471 161.4 73.8913 161.105 73.3047C160.814 72.7147 160.668 72.0237 160.668 71.2315C160.668 70.4493 160.814 69.7599 161.105 69.1634C161.4 68.5668 161.811 68.1011 162.338 67.7663C162.869 67.4316 163.489 67.2642 164.198 67.2642C164.629 67.2642 165.046 67.3355 165.451 67.478C165.855 67.6205 166.218 67.8442 166.539 68.1491C166.861 68.4541 167.114 68.8501 167.3 69.3374C167.486 69.8213 167.578 70.4096 167.578 71.1023V71.6293H161.508V70.5156H166.122C166.122 70.1245 166.042 69.7782 165.883 69.4766C165.724 69.1716 165.5 68.9313 165.212 68.7557C164.927 68.58 164.592 68.4922 164.208 68.4922C163.79 68.4922 163.426 68.5949 163.114 68.8004C162.806 69.0026 162.567 69.2678 162.398 69.5959C162.232 69.9207 162.15 70.2737 162.15 70.6548V71.5249C162.15 72.0353 162.239 72.4695 162.418 72.8274C162.6 73.1854 162.854 73.4588 163.179 73.6477C163.503 73.8333 163.883 73.9261 164.317 73.9261C164.599 73.9261 164.856 73.8864 165.088 73.8068C165.32 73.724 165.52 73.6013 165.689 73.4389C165.858 73.2765 165.988 73.076 166.077 72.8374L167.484 73.0909C167.371 73.5052 167.169 73.8681 166.877 74.1797C166.589 74.4879 166.226 74.7282 165.789 74.9006C165.355 75.0696 164.859 75.1541 164.302 75.1541ZM172.792 67.3636V68.5568H168.621V67.3636H172.792ZM169.74 65.5341H171.226V72.7578C171.226 73.0462 171.269 73.2633 171.356 73.4091C171.442 73.5516 171.553 73.6494 171.689 73.7024C171.828 73.7521 171.979 73.777 172.141 73.777C172.26 73.777 172.365 73.7687 172.454 73.7521C172.544 73.7356 172.613 73.7223 172.663 73.7124L172.932 74.9403C172.845 74.9735 172.723 75.0066 172.564 75.0398C172.405 75.0762 172.206 75.0961 171.967 75.0994C171.576 75.1061 171.211 75.0365 170.873 74.8906C170.535 74.7448 170.262 74.5194 170.053 74.2145C169.844 73.9096 169.74 73.5268 169.74 73.0661V65.5341ZM186.718 68.1293H185.167C185.107 67.7978 184.996 67.5062 184.834 67.2543C184.671 67.0024 184.472 66.7886 184.237 66.6129C184.002 66.4373 183.738 66.3047 183.447 66.2152C183.158 66.1257 182.852 66.081 182.527 66.081C181.94 66.081 181.415 66.2285 180.951 66.5234C180.49 66.8184 180.126 67.2509 179.857 67.821C179.592 68.3911 179.459 69.0871 179.459 69.9091C179.459 70.7377 179.592 71.437 179.857 72.0071C180.126 72.5772 180.492 73.008 180.956 73.2997C181.42 73.5914 181.942 73.7372 182.522 73.7372C182.843 73.7372 183.148 73.6941 183.437 73.608C183.728 73.5185 183.992 73.3875 184.227 73.2152C184.462 73.0429 184.661 72.8324 184.824 72.5838C184.989 72.3319 185.104 72.0436 185.167 71.7188L186.718 71.7237C186.635 72.2242 186.474 72.6849 186.236 73.1058C186 73.5234 185.697 73.8847 185.326 74.1896C184.958 74.4912 184.537 74.7249 184.063 74.8906C183.589 75.0563 183.072 75.1392 182.512 75.1392C181.63 75.1392 180.845 74.9304 180.155 74.5128C179.466 74.0919 178.922 73.4903 178.525 72.7081C178.13 71.9259 177.933 70.9929 177.933 69.9091C177.933 68.822 178.132 67.889 178.53 67.1101C178.927 66.3279 179.471 65.728 180.16 65.3104C180.85 64.8894 181.634 64.679 182.512 64.679C183.052 64.679 183.556 64.7569 184.023 64.9126C184.494 65.0651 184.916 65.2905 185.291 65.5888C185.666 65.8838 185.975 66.245 186.221 66.6726C186.466 67.0968 186.632 67.5824 186.718 68.1293ZM190.659 75.169C190.175 75.169 189.738 75.0795 189.347 74.9006C188.955 74.7183 188.646 74.4548 188.417 74.1101C188.192 73.7654 188.079 73.3428 188.079 72.8423C188.079 72.4115 188.162 72.0568 188.327 71.7784C188.493 71.5 188.717 71.2796 188.999 71.1172C189.28 70.9548 189.595 70.8321 189.943 70.7493C190.291 70.6664 190.646 70.6035 191.007 70.5604C191.464 70.5073 191.836 70.4643 192.121 70.4311C192.406 70.3946 192.613 70.3366 192.742 70.2571C192.871 70.1776 192.936 70.0483 192.936 69.8693V69.8345C192.936 69.4003 192.813 69.0639 192.568 68.8253C192.326 68.5866 191.965 68.4673 191.484 68.4673C190.984 68.4673 190.589 68.5784 190.301 68.8004C190.016 69.0192 189.819 69.2628 189.71 69.5312L188.312 69.2131C188.478 68.7491 188.72 68.3745 189.038 68.0895C189.36 67.8011 189.729 67.5923 190.147 67.4631C190.565 67.3305 191.004 67.2642 191.464 67.2642C191.769 67.2642 192.093 67.3007 192.434 67.3736C192.779 67.4432 193.1 67.5724 193.398 67.7614C193.7 67.9503 193.947 68.2204 194.139 68.5717C194.331 68.9197 194.428 69.3722 194.428 69.929V75H192.976V73.956H192.916C192.82 74.1482 192.676 74.3371 192.484 74.5227C192.291 74.7083 192.045 74.8625 191.743 74.9851C191.441 75.1077 191.08 75.169 190.659 75.169ZM190.982 73.9759C191.393 73.9759 191.745 73.8946 192.036 73.7322C192.331 73.5698 192.555 73.3577 192.707 73.0959C192.863 72.8307 192.941 72.5473 192.941 72.2457V71.2614C192.888 71.3144 192.785 71.3641 192.633 71.4105C192.484 71.4536 192.313 71.4917 192.121 71.5249C191.929 71.5547 191.741 71.5829 191.559 71.6094C191.377 71.6326 191.224 71.6525 191.102 71.669C190.813 71.7055 190.55 71.7668 190.311 71.853C190.076 71.9392 189.887 72.0634 189.744 72.2259C189.605 72.3849 189.536 72.5971 189.536 72.8622C189.536 73.2301 189.671 73.5085 189.943 73.6974C190.215 73.883 190.561 73.9759 190.982 73.9759ZM196.407 77.8636V67.3636H197.859V68.6016H197.983C198.07 68.4425 198.194 68.2585 198.356 68.0497C198.519 67.8409 198.744 67.6586 199.032 67.5028C199.321 67.3438 199.702 67.2642 200.176 67.2642C200.792 67.2642 201.343 67.42 201.827 67.7315C202.31 68.0431 202.69 68.4922 202.965 69.0788C203.243 69.6655 203.383 70.3714 203.383 71.1967C203.383 72.022 203.245 72.7296 202.97 73.3196C202.695 73.9062 202.317 74.3587 201.836 74.6768C201.356 74.9917 200.807 75.1491 200.191 75.1491C199.727 75.1491 199.347 75.0713 199.052 74.9155C198.761 74.7597 198.532 74.5774 198.366 74.3686C198.201 74.1598 198.073 73.9742 197.983 73.8118H197.894V77.8636H196.407ZM197.864 71.1818C197.864 71.7187 197.942 72.1894 198.098 72.5938C198.254 72.9981 198.479 73.3146 198.774 73.5433C199.069 73.7687 199.43 73.8814 199.858 73.8814C200.302 73.8814 200.673 73.7637 200.971 73.5284C201.27 73.2898 201.495 72.9666 201.648 72.5589C201.803 72.1513 201.881 71.6922 201.881 71.1818C201.881 70.678 201.805 70.2256 201.653 69.8246C201.503 69.4235 201.278 69.107 200.976 68.875C200.678 68.643 200.305 68.527 199.858 68.527C199.427 68.527 199.062 68.638 198.764 68.8601C198.469 69.0821 198.245 69.392 198.093 69.7898C197.94 70.1875 197.864 70.6515 197.864 71.1818Z" fill="#5F6679"/>
</g>
<defs>
<filter id="filter0_d_22_3936" x="0.746081" y="0" width="378.254" height="230.411" filterUnits="userSpaceOnUse" color-interpolation-filters="sRGB">
<feFlood flood-opacity="0" result="BackgroundImageFix"/>
<feColorMatrix in="SourceAlpha" type="matrix" values="0 0 0 0 0 0 0 0 0 0 0 0 0 0 0 0 0 0 127 0" result="hardAlpha"/>
<feOffset dx="-4.62696" dy="5.7837"/>
<feGaussianBlur stdDeviation="2.31348"/>
<feComposite in2="hardAlpha" operator="out"/>
<feColorMatrix type="matrix" values="0 0 0 0 0.0242344 0 0 0 0 0.00078125 0 0 0 0 0.0625 0 0 0 0.3 0"/>
<feBlend mode="normal" in2="BackgroundImageFix" result="effect1_dropShadow_22_3936"/>
<feBlend mode="normal" in="SourceGraphic" in2="effect1_dropShadow_22_3936" result="shape"/>
</filter>
<filter id="filter1_f_22_3936" x="-26" y="90.5" width="427" height="164.5" filterUnits="userSpaceOnUse" color-interpolation-filters="sRGB">
<feFlood flood-opacity="0" result="BackgroundImageFix"/>
<feBlend mode="normal" in="SourceGraphic" in2="BackgroundImageFix" result="shape"/>
<feGaussianBlur stdDeviation="5" result="effect1_foregroundBlur_22_3936"/>
</filter>
<linearGradient id="paint0_linear_22_3936" x1="-5.61599" y1="70.125" x2="387.333" y2="162.586" gradientUnits="userSpaceOnUse">
<stop stop-color="#080A0B"/>
<stop offset="1" stop-color="#1A1F21"/>
</linearGradient>
<linearGradient id="paint1_linear_22_3936" x1="222.526" y1="89.5598" x2="238.733" y2="182.446" gradientUnits="userSpaceOnUse">
<stop stop-color="#FD5D5D"/>
<stop offset="1" stop-color="#080C10"/>
</linearGradient>
<linearGradient id="paint2_linear_22_3936" x1="222.526" y1="89.5597" x2="238.733" y2="182.446" gradientUnits="userSpaceOnUse">
<stop stop-color="#FD5D5D"/>
<stop offset="1" stop-color="#080C10"/>
</linearGradient>
</defs>
</svg>
