<svg width="263" height="21" viewBox="0 0 263 21" fill="none" xmlns="http://www.w3.org/2000/svg">
<mask id="mask0_80_717" style="mask-type:luminance" maskUnits="userSpaceOnUse" x="0" y="0" width="263" height="21">
<path d="M262.755 0H0V20.0505H262.755V0Z" fill="white"/>
</mask>
<g mask="url(#mask0_80_717)">
<path d="M32.1503 14.1647L25.0936 1.91181C23.5529 -0.640698 19.7608 -0.663051 18.2663 2.02654L10.8415 14.7622C9.46173 17.1076 11.1633 20.0267 13.9452 20.0267H28.8188C31.623 20.049 33.715 17.0152 32.1519 14.1647H32.1503Z" fill="white"/>
<path d="M21.9673 15.1302L21.5307 14.3718C21.1165 13.6595 20.221 12.1411 20.221 12.1411L14.243 1.75081C12.7023 -0.54838 9.02491 -0.755501 7.48419 2.16505L0.518316 14.2109C-0.929994 16.7395 0.793971 20.0266 3.92005 20.0505H28.747C24.931 20.0728 23.7121 18.0731 21.9658 15.1302H21.9673Z" fill="white"/>
<path d="M21.9675 15.0841L21.5309 14.3256C21.1167 13.6134 20.2212 12.095 20.2212 12.095L16.359 5.28983L10.8191 14.7384C9.43931 17.0838 11.1409 20.0029 13.9228 20.0029H28.75C24.9103 20.0029 23.7153 18.0494 21.969 15.0826L21.9675 15.0841Z" fill="white"/>
<path d="M123.92 5.10653C124.954 4.14096 126.77 3.68053 129.413 3.68053H135.597V0.16394H128.287C126.539 0.16394 125.068 0.34722 123.92 0.715269C122.793 1.08332 121.805 1.65849 120.955 2.46313C120.058 3.33631 119.345 4.41661 118.84 5.70406C118.335 7.01383 118.082 8.43984 118.082 9.93438C118.082 11.4289 118.335 12.7387 118.84 14.0038C119.345 15.2689 120.059 16.3715 120.955 17.2447C121.781 18.0494 122.771 18.6245 123.874 18.9926C125 19.3606 126.495 19.5439 128.287 19.5439H135.597V16.072H129.413C128.011 16.072 127.046 16.0258 126.495 15.9111C125.919 15.7964 125.39 15.6116 124.954 15.3359C124.081 14.7846 123.413 14.0708 122.977 13.1753C122.562 12.3021 122.355 11.198 122.355 9.91055C122.355 7.70375 122.884 6.07211 123.918 5.10653H123.92Z" fill="white"/>
<path d="M70.1043 19.5901H87.3454V16.1883H74.3108V11.3366H85.6901V8.1195H74.3108V3.6135H87.3454V0.187805H70.1043V19.5901Z" fill="white"/>
<path d="M91.6443 0.187805L99.7366 9.8897L91.6443 19.5901H96.8624L103.231 11.9117V7.88853L96.8624 0.187805H91.6443Z" fill="white"/>
<path d="M111.231 0.187805L104.862 7.88853V11.9117L111.231 19.5901H116.449L108.356 9.8897L116.449 0.187805H111.231Z" fill="white"/>
<path d="M53.2075 9.75114L45.4607 0.187805H41.4615V19.5901H45.668V6.6473L52.3805 14.6937H54.0121L60.7246 6.57876V19.5901H64.9326V0.187805H60.978L53.2075 9.75114Z" fill="white"/>
<path d="M150.825 19.5647L143.661 0.165405H147.669L153.021 15.3165L158.201 0.165405H162.109L154.932 19.5647H150.825Z" fill="white"/>
<path d="M168.993 19.8896C166.496 19.8896 164.627 19.0954 163.437 17.5278C162.494 16.2657 162.014 14.6445 162.014 12.7089C162.014 10.3963 162.643 8.56499 163.882 7.26564C165.119 5.96926 166.707 5.31064 168.601 5.31064C170.735 5.31064 172.438 5.99907 173.666 7.35503C174.865 8.6812 175.463 10.739 175.443 13.4718H165.587L165.593 13.7028C165.623 14.8844 165.964 15.8217 166.608 16.4877C167.254 17.1583 168.072 17.498 169.035 17.498C169.698 17.498 170.267 17.3177 170.726 16.963C171.143 16.6397 171.468 16.1376 171.694 15.4685L175.147 16.0288C174.658 17.2432 173.919 18.1879 172.946 18.8391C171.903 19.5364 170.573 19.8911 168.995 19.8911L168.993 19.8896ZM168.84 7.77076C167.92 7.77076 167.15 8.10008 166.548 8.74974C165.95 9.39495 165.653 10.2771 165.663 11.3693V11.5928H171.994L171.988 11.3619C171.958 10.207 171.641 9.31152 171.043 8.69909C170.443 8.08367 169.701 7.77076 168.84 7.77076Z" fill="white"/>
<path d="M188.675 19.5648V12.4511C188.675 10.8567 188.588 9.84647 188.41 9.3607C188.227 8.86152 187.921 8.46666 187.505 8.18801C187.091 7.91084 186.59 7.77078 186.017 7.77078C185.294 7.77078 184.635 7.96599 184.059 8.35042C183.478 8.73786 183.074 9.25938 182.858 9.9016C182.648 10.5259 182.545 11.6301 182.545 13.2766V19.5648H179.064V5.6355H182.265V8.16567L182.666 7.66201C183.91 6.10041 185.498 5.30917 187.386 5.30917C188.219 5.30917 188.989 5.4552 189.676 5.74578C190.356 6.03188 190.873 6.39844 191.215 6.83502C191.563 7.27607 191.807 7.7857 191.944 8.34745C192.084 8.92261 192.154 9.76601 192.154 10.8538V19.5648H188.673H188.675Z" fill="white"/>
<path d="M200.397 19.8896C199.721 19.8896 199.104 19.7794 198.564 19.5603C198.038 19.3472 197.649 19.0715 197.41 18.7437C197.165 18.4085 196.994 17.9421 196.897 17.3565C196.815 16.9243 196.775 16.0378 196.775 14.7116V8.21782H194.97V5.63553H196.775V2.68516L200.269 0.718262V5.63553H202.955V8.21782H200.269V14.2377C200.269 15.8426 200.316 16.2091 200.354 16.3462C200.418 16.5921 200.565 16.7962 200.793 16.9542C201.012 17.1062 201.279 17.1836 201.586 17.1836C201.929 17.1836 202.385 17.0898 202.975 16.896L203.259 19.3994C202.414 19.7242 201.452 19.8881 200.397 19.8881V19.8896Z" fill="white"/>
<path d="M210.762 19.8896C209.807 19.8896 208.938 19.6839 208.182 19.2801C207.437 18.8823 206.892 18.3146 206.56 17.5963C206.22 16.8632 206.049 15.8246 206.049 14.5089V5.63548H209.529V12.0175C209.529 14.0827 209.604 15.321 209.757 15.8023C209.917 16.3044 210.212 16.7083 210.634 17.0018C211.052 17.2939 211.586 17.4414 212.217 17.4414C212.931 17.4414 213.581 17.2491 214.147 16.8677C214.716 16.4862 215.112 16.0034 215.324 15.4327C215.531 14.8739 215.633 13.5791 215.633 11.4751V5.63397H219.113V19.5632H215.913V16.9258L215.503 17.5069C214.986 18.24 214.296 18.8271 213.453 19.2503C212.606 19.675 211.702 19.8896 210.763 19.8896H210.762Z" fill="white"/>
<path d="M223.464 19.5648V5.6355H226.665V8.21782L227.079 7.57707C227.682 6.64428 228.226 6.02591 228.693 5.73682C229.153 5.45372 229.685 5.30917 230.274 5.30917C231.065 5.30917 231.841 5.50885 232.583 5.90522L231.525 8.78702C230.916 8.44432 230.336 8.27146 229.797 8.27146C229.199 8.27146 228.682 8.43536 228.261 8.75872C227.835 9.08505 227.514 9.6438 227.279 10.4663C227.052 11.2606 226.942 12.8579 226.942 15.3478V19.5633H223.461L223.464 19.5648Z" fill="white"/>
<path d="M240.613 19.8896C238.115 19.8896 236.247 19.0954 235.057 17.5278C234.113 16.2657 233.634 14.6445 233.634 12.7089C233.634 10.3963 234.262 8.56499 235.502 7.26564C236.739 5.96926 238.327 5.31064 240.221 5.31064C242.355 5.31064 244.058 5.99907 245.286 7.35503C246.485 8.6812 247.082 10.739 247.063 13.4718H237.207L237.213 13.7028C237.242 14.8844 237.584 15.8217 238.227 16.4877C238.874 17.1583 239.692 17.498 240.655 17.498C241.318 17.498 241.887 17.3177 242.346 16.963C242.763 16.6397 243.088 16.1376 243.314 15.4685L246.767 16.0288C246.278 17.2432 245.539 18.1879 244.566 18.8391C243.523 19.5364 242.192 19.8911 240.614 19.8911L240.613 19.8896ZM240.459 7.77076C239.54 7.77076 238.77 8.10008 238.168 8.74974C237.57 9.39495 237.272 10.2771 237.283 11.3693V11.5928H243.614L243.608 11.3619C243.578 10.207 243.261 9.31152 242.663 8.69909C242.063 8.08367 241.321 7.77076 240.459 7.77076Z" fill="white"/>
<path d="M256.224 19.8896C254.256 19.8896 252.68 19.5022 251.545 18.7362C250.489 18.0255 249.765 17.0629 249.392 15.8723L252.88 15.3568C253.074 16.0496 253.429 16.592 253.935 16.9705C254.485 17.3818 255.255 17.5904 256.224 17.5904C257.283 17.5904 258.098 17.3937 258.648 17.0078C259.057 16.7097 259.261 16.3059 259.261 15.8083C259.261 15.4596 259.144 15.1645 258.916 14.9321C258.678 14.7115 258.228 14.5357 257.491 14.3688C254.358 13.6998 252.356 13.0874 251.536 12.545C250.419 11.8059 249.875 10.809 249.875 9.49628C249.875 8.31017 250.347 7.33864 251.319 6.52805C252.289 5.71892 253.831 5.30768 255.902 5.30768C257.973 5.30768 259.365 5.61909 260.311 6.233C261.185 6.79923 261.813 7.63218 262.182 8.711L258.922 9.29512C258.738 8.77805 258.425 8.36978 257.991 8.07772C257.513 7.75587 256.832 7.59195 255.969 7.59195C254.881 7.59195 254.114 7.74097 253.625 8.04642C253.256 8.29229 253.072 8.61416 253.072 9.00903C253.072 9.35473 253.235 9.64827 253.557 9.88221C253.803 10.058 254.457 10.362 257.313 10.9893C259.362 11.4393 260.807 11.9951 261.607 12.6374C262.375 13.2736 262.753 14.1423 262.753 15.2912C262.753 16.5503 262.221 17.6053 261.128 18.5172C260.037 19.4262 258.386 19.8866 256.222 19.8866L256.224 19.8896Z" fill="white"/>
</g>
</svg>
