<svg width="184" height="46" viewBox="0 0 184 46" fill="none" xmlns="http://www.w3.org/2000/svg">
<path fill-rule="evenodd" clip-rule="evenodd" d="M34.3374 14.944L27.6016 10.0679H19.4014L12.6213 14.9441L10.0318 22.8329L12.6213 30.7218L19.4014 35.5979L27.6016 35.5979L34.3374 30.7218L36.91 22.8329L34.3374 14.944ZM16.1969 0.633545H30.6798L30.6799 0.633558H30.8811L42.6771 9.11422L47.184 22.8378L42.6771 36.5614L30.8811 45.0421H16.3029L16.1969 45.0421L4.47798 36.5614L0.0834388 23.0919L0 22.8378L0.0819162 22.5884L4.47798 9.1142L16.1969 0.633545Z" fill="white"/>
<path d="M169.782 20.4134C171.018 18.3234 172.196 16.2333 173.314 14.1433C174.433 12.0532 175.463 9.94841 176.405 7.82892H184C182.322 11.1259 180.585 14.3199 178.79 17.4108C176.994 20.5017 175.095 23.6074 173.093 26.7278V38.4291H166.205V26.8161C164.203 23.6957 162.29 20.5753 160.465 17.455C158.669 14.3346 156.932 11.1259 155.254 7.82892H163.247C164.189 9.94841 165.204 12.0532 166.293 14.1433C167.383 16.2333 168.545 18.3234 169.782 20.4134Z" fill="white"/>
<path d="M131.962 38.4291V7.82892H152.45V13.6134H138.85V20.016H150.949V25.8005H138.85V38.4291H131.962Z" fill="white"/>
<path d="M117.989 7.82892H124.877V38.4291H117.989V7.82892Z" fill="white"/>
<path d="M92.3206 32.8211C92.6444 32.8506 93.0124 32.88 93.4245 32.9094C93.8661 32.9094 94.3812 32.9094 94.97 32.9094C98.4142 32.9094 100.961 32.041 102.609 30.3042C104.287 28.5674 105.126 26.1683 105.126 23.1068C105.126 19.8981 104.331 17.4695 102.741 15.821C101.152 14.1725 98.6349 13.3483 95.1908 13.3483C94.7198 13.3483 94.234 13.363 93.7336 13.3924C93.2332 13.3924 92.7622 13.4219 92.3206 13.4807V32.8211ZM112.235 23.1068C112.235 25.7562 111.823 28.067 110.999 30.0393C110.174 32.0116 108.997 33.6454 107.466 34.9406C105.965 36.2359 104.125 37.2073 101.947 37.8549C99.7683 38.5026 97.325 38.8264 94.6167 38.8264C93.3804 38.8264 91.9379 38.7675 90.2894 38.6498C88.6409 38.5614 87.0219 38.3554 85.4323 38.0316V8.22615C87.0219 7.93178 88.6704 7.74043 90.3777 7.65212C92.1146 7.53437 93.6011 7.47549 94.8375 7.47549C97.4574 7.47549 99.8272 7.76987 101.947 8.35862C104.096 8.94737 105.935 9.87465 107.466 11.1405C108.997 12.4063 110.174 14.0253 110.999 15.9976C111.823 17.9699 112.235 20.3397 112.235 23.1068Z" fill="white"/>
<path d="M64.9445 7.47549C69.5367 7.47549 73.0545 8.29974 75.4978 9.94824C77.9411 11.5673 79.1628 14.0989 79.1628 17.5431C79.1628 19.692 78.6623 21.4436 77.6615 22.7977C76.69 24.1224 75.277 25.1674 73.4225 25.9328C74.0406 26.6982 74.6883 27.5813 75.3653 28.5821C76.0424 29.5536 76.7047 30.5839 77.3524 31.6731C78.0294 32.7328 78.677 33.8515 79.2952 35.0289C79.9134 36.177 80.4874 37.3104 81.0173 38.429H73.29C72.7307 37.4281 72.1567 36.4125 71.5679 35.3822C71.0086 34.3519 70.4198 33.351 69.8017 32.3796C69.2129 31.4081 68.6242 30.4956 68.0354 29.6419C67.4467 28.7588 66.8579 27.964 66.2692 27.2575H62.8691V38.429H55.9808V8.27031C57.4821 7.97593 59.0275 7.76987 60.6172 7.65212C62.2362 7.53437 63.6787 7.47549 64.9445 7.47549ZM65.3419 13.3483C64.8414 13.3483 64.3852 13.363 63.973 13.3924C63.5904 13.4219 63.2224 13.4513 62.8691 13.4807V21.7821H64.812C67.4025 21.7821 69.2571 21.4583 70.3757 20.8107C71.4943 20.163 72.0536 19.0591 72.0536 17.4989C72.0536 15.9976 71.4796 14.9379 70.3315 14.3197C69.2129 13.6721 67.5497 13.3483 65.3419 13.3483Z" fill="white"/>
</svg>
