<svg width="136" height="78" viewBox="0 0 136 78" fill="none" xmlns="http://www.w3.org/2000/svg">
<path d="M26.7596 53.3425H31.4239V72.5143H42.5538V77.0177H26.7596V53.3425Z" fill="white"/>
<path d="M44.697 77.0177L55.3766 52.4096H55.6339L66.3135 77.0177H60.9094L54.0899 59.7116L57.4674 57.3956L49.2969 77.0177H44.697ZM51.999 68.4612H59.108L60.7485 72.3856H50.5514L51.999 68.4612Z" fill="white"/>
<path d="M76.7129 53.3425C79.1791 53.3425 81.1413 53.8464 82.5995 54.8544C84.0578 55.8408 84.7869 57.3205 84.7869 59.2935C84.7869 60.7517 84.4224 61.9741 83.6932 62.9606C82.9855 63.9256 82.0098 64.6547 80.766 65.1479C79.5436 65.6197 78.139 65.8556 76.552 65.8556L75.8122 63.3466C77.7637 63.3466 79.49 63.6146 80.9912 64.1507C82.5137 64.6869 83.7147 65.4589 84.5939 66.4668C85.4732 67.4533 85.9128 68.6435 85.9128 70.0374C85.9128 71.3241 85.6769 72.4178 85.2051 73.3185C84.7547 74.1977 84.1328 74.9161 83.3394 75.4737C82.5674 76.0098 81.6881 76.4065 80.7016 76.6639C79.7152 76.8998 78.6965 77.0177 77.6457 77.0177H69.7647V53.3425H76.7129ZM77.2597 63.0249C78.1819 63.0249 78.8574 62.7461 79.2863 62.1885C79.7366 61.631 79.9618 60.9983 79.9618 60.2906C79.9618 59.4757 79.683 58.8646 79.1254 58.4571C78.5893 58.0497 77.8602 57.8459 76.9381 57.8459H74.429V63.0249H77.2597ZM77.4206 72.6751C78.4499 72.6751 79.3184 72.4714 80.0261 72.0639C80.7338 71.635 81.0877 70.9595 81.0877 70.0374C81.0877 69.3512 80.8947 68.8365 80.5086 68.4934C80.1226 68.1288 79.6187 67.8822 78.9968 67.7535C78.3963 67.6034 77.7637 67.5283 77.0989 67.5283H74.429V72.6751H77.4206Z" fill="white"/>
<path d="M103.234 59.0683C102.333 58.5751 101.411 58.1676 100.467 57.8459C99.5452 57.5242 98.6766 57.3634 97.8617 57.3634C96.8538 57.3634 96.0603 57.5671 95.4813 57.9746C94.9023 58.382 94.6128 58.9932 94.6128 59.8081C94.6128 60.3657 94.8273 60.8697 95.2562 61.32C95.7065 61.7489 96.2748 62.1349 96.961 62.478C97.6687 62.8212 98.3979 63.1321 99.1484 63.4109C100.071 63.754 100.961 64.1936 101.818 64.7298C102.676 65.2444 103.384 65.9628 103.941 66.885C104.499 67.7857 104.778 68.9866 104.778 70.4877C104.778 71.6887 104.467 72.8038 103.845 73.8332C103.223 74.8625 102.312 75.6989 101.111 76.3422C99.9097 76.9641 98.43 77.2751 96.6715 77.2751C95.3205 77.2751 93.9373 77.0713 92.5219 76.6639C91.128 76.2564 89.8091 75.6131 88.5653 74.7338L90.624 71.0989C91.439 71.6994 92.3718 72.1926 93.4226 72.5786C94.4734 72.9646 95.417 73.1576 96.2534 73.1576C96.8109 73.1576 97.3685 73.0826 97.9261 72.9325C98.5051 72.7609 98.9769 72.4821 99.3414 72.0961C99.7274 71.7101 99.9204 71.174 99.9204 70.4877C99.9204 70.0159 99.7596 69.587 99.4379 69.201C99.1377 68.815 98.7195 68.4612 98.1834 68.1395C97.6687 67.8178 97.1004 67.5391 96.4785 67.3032C95.7494 67.0244 94.9988 66.7027 94.2268 66.3381C93.4548 65.9736 92.7257 65.5339 92.0394 65.0193C91.3746 64.4831 90.8278 63.8291 90.3989 63.0571C89.9914 62.2636 89.7877 61.2986 89.7877 60.162C89.7877 58.7895 90.0879 57.5993 90.6884 56.5914C91.3103 55.5835 92.1788 54.79 93.2939 54.211C94.4091 53.6105 95.6958 53.2781 97.154 53.2138C99.0626 53.2138 100.607 53.439 101.786 53.8893C102.987 54.3397 104.059 54.8758 105.003 55.4977L103.234 59.0683Z" fill="white"/>
<rect x="89.0645" y="21.8739" width="4.62211" height="12.1634" transform="rotate(-12.5518 89.0645 21.8739)" fill="white"/>
<path fill-rule="evenodd" clip-rule="evenodd" d="M103.544 5.19194L86.2097 9.05128L90.069 26.3855L107.403 22.5261L103.544 5.19194ZM100.089 10.9455L92.0159 12.743L93.8134 20.8165L101.887 19.019L100.089 10.9455Z" fill="white"/>
<path fill-rule="evenodd" clip-rule="evenodd" d="M100.632 21.2922L97.3957 24.5918L103.95 31.021L109.329 29.8233L100.632 21.2922Z" fill="white"/>
<path fill-rule="evenodd" clip-rule="evenodd" d="M91.964 14.7484L96.4756 13.744L97.4801 18.2556L97.377 18.2786L94.6001 16.513L96.3417 13.7738L91.964 14.7485L91.964 14.7484ZM96.4759 13.7439L97.4804 18.2556L101.992 17.2511L97.5837 18.2326L99.3492 15.4557L96.61 13.7141L96.4759 13.7439Z" fill="white"/>
<path fill-rule="evenodd" clip-rule="evenodd" d="M103.651 10.1525L104.997 12.2368L104.667 14.6616L109.009 13.695L108.005 9.18333L103.651 10.1525Z" fill="white"/>
<path fill-rule="evenodd" clip-rule="evenodd" d="M48.0267 29.1341L67.4451 40.1372L67.5707 40.1092L62.2158 16.0578L57.6316 17.0785L60.8229 30.9831L41.3842 19.7402L41.1958 19.7821L46.5436 43.8021L51.1593 42.7745L48.0267 29.1341ZM15.7649 32.2658C14.7785 31.9801 13.7899 31.7828 12.7989 31.6739C11.8289 31.5603 10.9462 31.5921 10.1508 31.7692C9.16695 31.9882 8.43673 32.3595 7.9601 32.883C7.48347 33.4066 7.33371 34.0661 7.51081 34.8615C7.63198 35.4058 7.95082 35.8511 8.46734 36.1974C9.00013 36.5182 9.63873 36.7715 10.3831 36.9573C11.1485 37.1384 11.9278 37.2835 12.721 37.3925C13.6956 37.527 14.6599 37.7627 15.6137 38.0996C16.5628 38.4155 17.4097 38.963 18.1544 39.7419C18.8944 40.4999 19.4275 41.6115 19.7537 43.0768C20.0147 44.249 19.9535 45.4051 19.5702 46.545C19.1868 47.6849 18.479 48.6993 17.4466 49.5883C16.4095 50.4563 15.0327 51.0814 13.3163 51.4636C11.9975 51.7572 10.6031 51.8589 9.13302 51.7688C7.68386 51.674 6.2567 51.3327 4.85154 50.7447L6.07111 46.7493C6.99703 47.1583 8.01478 47.437 9.12436 47.5854C10.2339 47.7339 11.1969 47.7172 12.0133 47.5354C12.5575 47.4143 13.0855 47.2198 13.5971 46.9521C14.125 46.6588 14.5249 46.2842 14.7969 45.8282C15.0898 45.3675 15.1616 44.8022 15.0125 44.1324C14.91 43.6719 14.6598 43.2882 14.2619 42.9813C13.8849 42.6698 13.3999 42.4153 12.8066 42.2178C12.2344 42.0157 11.6191 41.867 10.9608 41.7719C10.1885 41.6583 9.38593 41.5074 8.55313 41.3193C7.72034 41.1313 6.9131 40.8606 6.13141 40.5073C5.36599 40.1285 4.69007 39.6089 4.10364 38.9486C3.53349 38.2626 3.12491 37.3649 2.87791 36.2555C2.57964 34.9158 2.61404 33.6888 2.9811 32.5745C3.3691 31.4555 4.04443 30.4923 5.00708 29.6848C5.96507 28.8563 7.14878 28.2522 8.55821 27.8725C10.4212 27.4577 11.9773 27.342 13.2264 27.5252C14.4965 27.7038 15.6596 27.9941 16.7158 28.3961L15.7649 32.2658ZM20.4865 25.3486L36.2486 21.8393L37.2273 26.2351L26.018 28.7308L27.1155 33.6603L37.0375 31.4513L38.0162 35.8471L28.0942 38.0562L29.2058 43.0485L40.8547 40.455L41.8334 44.8508L25.6317 48.458L20.4865 25.3486ZM66.5971 15.0824L82.1709 11.615L83.1496 16.0108L77.5292 17.2621L81.6957 35.9757L77.1429 36.9894L72.9764 18.2758L67.5758 19.4782L66.5971 15.0824ZM114.333 12.5097L120.575 19.7728L122.176 26.9631L126.729 25.9494L125.128 18.7591L127.78 9.51568L122.61 10.6668L121.823 13.983L119.668 11.3218L114.333 12.5097ZM110.917 8.53494L116.42 7.30976L114.142 4.49682L108.522 5.74815L110.917 8.53494ZM123.797 5.66723L129.232 4.45722L130.25 0.910594L124.629 2.16193L123.797 5.66723Z" fill="white"/>
<rect x="130.484" y="4.17848" width="4.62211" height="4.62211" transform="rotate(-12.5518 130.484 4.17848)" fill="white"/>
<rect x="33.3278" y="65.8308" width="4.62211" height="4.62211" transform="rotate(-0.0425797 33.3278 65.8308)" fill="white"/>
<rect x="37.95" y="59.0175" width="2.26787" height="2.26787" transform="rotate(-0.0425797 37.95 59.0175)" fill="white"/>
<rect x="40.1394" y="64.1258" width="1.75654" height="1.75654" transform="rotate(-0.0425797 40.1394 64.1258)" fill="white"/>
<rect x="26.7596" y="72.3991" width="4.69509" height="4.62211" transform="rotate(-0.0425797 26.7596 72.3991)" fill="white"/>
</svg>
