<svg width="379" height="231" viewBox="0 0 379 231" fill="none" xmlns="http://www.w3.org/2000/svg">
<g filter="url(#filter0_d_22_3966)">
<rect x="10" width="369" height="220" rx="17.3511" fill="#080C10"/>
<mask id="mask0_22_3966" style="mask-type:alpha" maskUnits="userSpaceOnUse" x="10" y="0" width="369" height="220">
<rect x="10" width="369" height="220" rx="17.3511" fill="url(#paint0_linear_22_3966)"/>
</mask>
<g mask="url(#mask0_22_3966)">
<path d="M341.94 136.063L341.984 136.124L342.035 136.179C343.867 138.133 345.952 139.262 348.216 139.592C350.464 139.92 352.771 139.444 355.041 138.397C359.545 136.32 364.129 131.894 368.338 126.247C376.776 114.927 384.095 98.1708 386.445 83.4467C386.575 84.4815 386.701 85.702 386.824 87.0974C387.58 95.6984 388.158 110.599 388.592 128.509C389.449 163.853 389.742 210.779 389.75 243.728L-14.3968 236.676L6.5513 154.84C8.60755 161.109 11.8707 167.199 15.658 172.035C18.0112 175.04 20.5937 177.595 23.2524 179.408C25.9033 181.216 28.7067 182.338 31.4737 182.338C35.0207 182.338 38.1672 180.208 40.9903 177.479C43.3007 175.247 45.5639 172.44 47.7873 169.682C48.2949 169.053 48.8004 168.426 49.3039 167.809C52.0604 164.432 54.7659 161.341 57.5903 159.37C60.3712 157.429 63.1215 156.67 66.0969 157.683C68.6349 158.548 70.9987 159.44 73.2548 160.292C74.0672 160.599 74.8655 160.9 75.653 161.193C78.6069 162.292 81.4025 163.269 84.091 163.896C89.5275 165.165 94.6021 165.014 99.8853 161.625C102.575 159.9 105.182 156.551 107.804 153.034C108.14 152.583 108.478 152.127 108.818 151.669C111.193 148.465 113.666 145.129 116.406 142.33C119.538 139.132 122.88 136.787 126.607 136.147C130.279 135.515 134.577 136.498 139.735 140.489C145.043 144.595 149.013 148.246 152.114 151.238C152.982 152.075 153.792 152.87 154.549 153.614C156.459 155.491 158.037 157.042 159.386 158.116C161.271 159.616 163.167 160.568 165.284 159.784C166.262 159.422 167.158 158.73 168.035 157.814C168.917 156.894 169.845 155.679 170.873 154.178C172.963 151.126 174.902 147.152 176.78 143.252C176.873 143.059 176.965 142.866 177.058 142.673C178.86 138.928 180.614 135.283 182.451 132.408C183.414 130.902 184.37 129.656 185.329 128.74C186.289 127.822 187.191 127.293 188.045 127.107C189.606 126.768 191.703 127.48 194.496 131.245C195.444 132.523 196.541 133.393 197.848 133.576C199.161 133.759 200.336 133.199 201.324 132.425C202.313 131.65 203.274 130.538 204.219 129.292C205.145 128.073 206.109 126.652 207.11 125.177L207.195 125.051C209.279 121.979 211.556 118.643 214.233 115.903C216.907 113.166 219.882 111.126 223.323 110.516C226.424 109.967 228.063 110.33 229.068 111.067C230.111 111.833 230.794 113.225 231.425 115.56C231.709 116.612 231.972 117.819 232.263 119.157C233.223 123.572 234.496 129.423 237.893 135.904C242.324 144.359 248.342 150.663 254.081 154.055C256.948 155.749 259.809 156.754 262.41 156.878C265.039 157.003 267.438 156.221 269.184 154.317C270.047 153.376 270.849 151.927 271.623 150.276C272.409 148.598 273.222 146.584 274.072 144.431C274.243 143.998 274.416 143.559 274.591 143.116C276.164 139.116 277.889 134.734 279.898 130.869C282.154 126.533 284.643 123.106 287.446 121.553C288.806 120.8 290.233 120.492 291.784 120.73C293.355 120.971 295.156 121.789 297.209 123.468C306.002 130.658 311.424 132.157 315.92 131.565C317.804 131.317 319.475 130.701 321 130.138C321.228 130.054 321.452 129.971 321.673 129.891C323.415 129.26 325.057 128.75 327 128.75C330.216 128.75 333.371 129.773 336.04 131.227C338.719 132.687 340.815 134.531 341.94 136.063Z" fill="url(#paint1_linear_22_3966)" fill-opacity="0.13" stroke="#5DFDCB" stroke-width="2.5"/>
<g filter="url(#filter1_f_22_3966)">
<path d="M31.4737 181.088C21.7474 181.088 9.97368 165.255 6.5 150L-16 237.899L391 245C391 178.984 389.842 54.2109 385.211 83.2474C380.579 112.284 356.263 149.526 342.947 135.324C340.439 131.905 333.947 127.5 327 127.5C318.316 127.5 315.368 136.703 298 122.5C280.632 108.297 274.053 147.159 268.263 153.472C262.474 159.784 247.684 151.894 239 135.324C230.316 118.754 236 107 223.105 109.286C207.907 111.979 202.319 139.691 195.5 130.5C184 115 177.947 141.636 169.842 153.472C161.737 165.307 161.921 156.07 140.5 139.5C119.079 122.93 109.053 154.261 99.2105 160.573C89.3684 166.885 80.3947 161.234 66.5 156.5C52.6053 151.766 43.6316 181.088 31.4737 181.088Z" fill="url(#paint2_linear_22_3966)" fill-opacity="0.13"/>
<path d="M341.94 136.063L341.984 136.124L342.035 136.179C343.867 138.133 345.952 139.262 348.216 139.592C350.464 139.92 352.771 139.444 355.041 138.397C359.545 136.32 364.129 131.894 368.338 126.247C376.776 114.927 384.095 98.1707 386.445 83.4467C386.575 84.4814 386.701 85.7019 386.824 87.0974C387.58 95.6984 388.158 110.599 388.592 128.509C389.449 163.853 389.742 210.779 389.75 243.728L-14.3968 236.676L6.5513 154.84C8.60755 161.109 11.8707 167.199 15.658 172.035C18.0112 175.04 20.5937 177.595 23.2524 179.408C25.9033 181.216 28.7067 182.338 31.4737 182.338C35.0207 182.338 38.1672 180.207 40.9903 177.479C43.3007 175.247 45.5639 172.44 47.7873 169.682C48.2949 169.053 48.8004 168.426 49.3039 167.809C52.0604 164.432 54.7659 161.341 57.5903 159.37C60.3712 157.429 63.1215 156.669 66.0969 157.683C68.6349 158.548 70.9987 159.44 73.2548 160.292C74.0672 160.599 74.8655 160.9 75.653 161.193C78.6069 162.292 81.4025 163.269 84.091 163.896C89.5275 165.165 94.6021 165.014 99.8853 161.625C102.575 159.9 105.182 156.551 107.804 153.034C108.14 152.583 108.478 152.127 108.818 151.668C111.193 148.465 113.666 145.129 116.406 142.33C119.538 139.132 122.88 136.787 126.607 136.147C130.279 135.515 134.577 136.498 139.735 140.489C145.043 144.595 149.013 148.246 152.114 151.237C152.982 152.075 153.792 152.87 154.549 153.614C156.459 155.491 158.037 157.042 159.386 158.116C161.271 159.616 163.167 160.568 165.284 159.784C166.262 159.422 167.158 158.73 168.035 157.814C168.917 156.894 169.845 155.679 170.873 154.178C172.963 151.126 174.902 147.152 176.78 143.252C176.873 143.059 176.965 142.866 177.058 142.673C178.86 138.928 180.614 135.283 182.451 132.408C183.414 130.902 184.37 129.656 185.329 128.74C186.289 127.822 187.191 127.293 188.045 127.107C189.606 126.768 191.703 127.48 194.496 131.245C195.444 132.523 196.541 133.393 197.848 133.576C199.161 133.759 200.336 133.199 201.324 132.425C202.313 131.65 203.274 130.538 204.219 129.292C205.145 128.073 206.109 126.652 207.11 125.176L207.195 125.051C209.279 121.979 211.556 118.643 214.233 115.903C216.907 113.166 219.882 111.126 223.323 110.516C226.424 109.967 228.063 110.33 229.068 111.067C230.111 111.833 230.794 113.225 231.425 115.56C231.709 116.612 231.972 117.819 232.263 119.157C233.223 123.572 234.496 129.423 237.893 135.904C242.324 144.359 248.342 150.663 254.081 154.055C256.948 155.749 259.809 156.754 262.41 156.878C265.039 157.003 267.438 156.221 269.184 154.316C270.047 153.376 270.849 151.927 271.623 150.276C272.409 148.598 273.222 146.584 274.072 144.431C274.243 143.998 274.416 143.559 274.591 143.116C276.164 139.116 277.889 134.734 279.898 130.869C282.154 126.533 284.643 123.106 287.446 121.553C288.806 120.8 290.233 120.492 291.784 120.73C293.355 120.971 295.156 121.789 297.209 123.468C306.002 130.658 311.424 132.157 315.92 131.565C317.804 131.317 319.475 130.701 321 130.138C321.228 130.054 321.452 129.971 321.673 129.891C323.415 129.26 325.057 128.75 327 128.75C330.216 128.75 333.371 129.773 336.04 131.227C338.719 132.687 340.815 134.531 341.94 136.063Z" stroke="#5DFDCB" stroke-width="2.5"/>
</g>
</g>
<path d="M45.6128 46.6825V29.8572H46.6907V46.6825H45.6128ZM48.4718 35.4109C48.4192 34.8807 48.1936 34.4688 47.7948 34.1753C47.3961 33.8817 46.855 33.7349 46.1715 33.7349C45.707 33.7349 45.3149 33.8007 44.995 33.9321C44.6752 34.0592 44.4298 34.2366 44.2589 34.4645C44.0924 34.6923 44.0092 34.9508 44.0092 35.24C44.0004 35.481 44.0508 35.6913 44.1603 35.871C44.2742 36.0506 44.4298 36.2061 44.627 36.3376C44.8241 36.4647 45.052 36.5764 45.3105 36.6728C45.569 36.7648 45.845 36.8437 46.1386 36.9094L47.3479 37.1986C47.9351 37.33 48.474 37.5053 48.9647 37.7244C49.4555 37.9434 49.8805 38.2129 50.2398 38.5328C50.5991 38.8526 50.8773 39.2294 51.0745 39.6632C51.276 40.097 51.379 40.5943 51.3834 41.1552C51.379 41.9789 51.1687 42.6931 50.7524 43.2978C50.3406 43.898 49.7447 44.3647 48.9647 44.6977C48.1892 45.0263 47.2537 45.1906 46.1583 45.1906C45.0717 45.1906 44.1253 45.0241 43.3191 44.6911C42.5172 44.3581 41.8907 43.8652 41.4394 43.2123C40.9924 42.5551 40.758 41.7423 40.7361 40.774H43.4899C43.5206 41.2253 43.6499 41.6021 43.8777 41.9044C44.1099 42.2024 44.4188 42.428 44.8044 42.5814C45.1944 42.7303 45.6347 42.8048 46.1255 42.8048C46.6074 42.8048 47.0259 42.7347 47.3808 42.5945C47.7401 42.4543 48.0183 42.2593 48.2155 42.0096C48.4127 41.7598 48.5112 41.4728 48.5112 41.1486C48.5112 40.8463 48.4214 40.5921 48.2418 40.3862C48.0665 40.1803 47.808 40.005 47.4662 39.8604C47.1288 39.7158 46.7148 39.5844 46.224 39.4661L44.7584 39.098C43.6236 38.822 42.7275 38.3904 42.0703 37.8032C41.4131 37.2161 41.0866 36.4252 41.091 35.4306C41.0866 34.6156 41.3035 33.9036 41.7417 33.2946C42.1842 32.6855 42.7911 32.2101 43.5622 31.8684C44.3334 31.5266 45.2097 31.3557 46.1912 31.3557C47.1902 31.3557 48.0621 31.5266 48.807 31.8684C49.5562 32.2101 50.139 32.6855 50.5553 33.2946C50.9715 33.9036 51.1862 34.6091 51.1993 35.4109H48.4718ZM53.015 42.6339V40.3928L58.6344 31.5398H60.5666V34.6419H59.423L55.8805 40.2482V40.3533H63.866V42.6339H53.015ZM59.4756 45V41.9504L59.5282 40.958V31.5398H62.1966V45H59.4756ZM65.7621 45V42.9494L70.5534 38.5131C70.9609 38.1187 71.3026 37.7638 71.5787 37.4483C71.8591 37.1329 72.0716 36.824 72.2162 36.5216C72.3608 36.2149 72.4331 35.8841 72.4331 35.5292C72.4331 35.1348 72.3433 34.7953 72.1636 34.5105C71.984 34.2213 71.7386 34 71.4275 33.8467C71.1164 33.6889 70.7637 33.6101 70.3694 33.6101C69.9575 33.6101 69.5982 33.6933 69.2915 33.8598C68.9848 34.0263 68.7482 34.2651 68.5817 34.5762C68.4152 34.8873 68.3319 35.2575 68.3319 35.6869H65.6307C65.6307 34.8062 65.83 34.0416 66.2287 33.3932C66.6275 32.7447 67.1861 32.243 67.9047 31.8881C68.6233 31.5332 69.4514 31.3557 70.3891 31.3557C71.353 31.3557 72.1921 31.5266 72.9063 31.8684C73.6249 32.2058 74.1835 32.6746 74.5823 33.2749C74.981 33.8751 75.1803 34.5631 75.1803 35.3386C75.1803 35.8469 75.0796 36.3485 74.878 36.8437C74.6808 37.3388 74.3281 37.8887 73.8199 38.4933C73.3116 39.0936 72.5952 39.8144 71.6707 40.6557L69.7055 42.5814V42.6734H75.3578V45H65.7621ZM80.4892 43.1597L80.4169 43.8827C80.3599 44.4611 80.2504 45.0372 80.0883 45.6112C79.9305 46.1896 79.764 46.7132 79.5888 47.182C79.4179 47.6509 79.2799 48.0189 79.1747 48.2862H77.3607C77.4264 48.0277 77.5163 47.6662 77.6302 47.2017C77.7441 46.7417 77.8515 46.2247 77.9522 45.6507C78.053 45.0767 78.1166 44.4917 78.1428 43.8958L78.1757 43.1597H80.4892ZM87.6465 45.184C86.9542 45.1796 86.286 45.0635 85.6419 44.8357C85.0022 44.6078 84.4282 44.2376 83.92 43.725C83.4117 43.2123 83.0086 42.5332 82.7106 41.6875C82.4171 40.8419 82.2703 39.8034 82.2703 38.5722C82.2747 37.4418 82.4039 36.4318 82.6581 35.5423C82.9166 34.6485 83.2846 33.8905 83.7622 33.2683C84.2442 32.6461 84.8204 32.1729 85.4908 31.8487C86.1611 31.52 86.9126 31.3557 87.7451 31.3557C88.6433 31.3557 89.4364 31.531 90.1243 31.8815C90.8122 32.2277 91.3643 32.6987 91.7805 33.2946C92.2012 33.8905 92.4553 34.5587 92.5429 35.2992H89.7365C89.627 34.8303 89.397 34.4623 89.0464 34.195C88.6959 33.9277 88.2621 33.7941 87.7451 33.7941C86.8688 33.7941 86.2028 34.1753 85.7471 34.9377C85.2958 35.7001 85.0657 36.7363 85.057 38.0464H85.149C85.3506 37.6477 85.6222 37.3081 85.964 37.0277C86.3101 36.7429 86.7023 36.526 87.1404 36.377C87.583 36.2237 88.0496 36.147 88.5404 36.147C89.3378 36.147 90.0476 36.3354 90.6698 36.7122C91.292 37.0847 91.7827 37.5973 92.142 38.2502C92.5013 38.903 92.681 39.6501 92.681 40.4913C92.681 41.4027 92.4684 42.2133 92.0434 42.9231C91.6228 43.6329 91.0335 44.1894 90.2755 44.5925C89.5218 44.9912 88.6455 45.1884 87.6465 45.184ZM87.6334 42.9494C88.0715 42.9494 88.4637 42.8443 88.8098 42.6339C89.156 42.4236 89.4276 42.1388 89.6248 41.7795C89.822 41.4202 89.9206 41.0171 89.9206 40.5702C89.9206 40.1233 89.822 39.7224 89.6248 39.3675C89.432 39.0126 89.1647 38.7299 88.823 38.5196C88.4812 38.3093 88.0912 38.2042 87.6531 38.2042C87.3245 38.2042 87.0199 38.2655 86.7395 38.3882C86.4635 38.5109 86.2203 38.6817 86.01 38.9008C85.804 39.1199 85.6419 39.374 85.5236 39.6632C85.4053 39.948 85.3462 40.2525 85.3462 40.5768C85.3462 41.0106 85.4448 41.4071 85.6419 41.7664C85.8435 42.1257 86.1151 42.4127 86.4569 42.6274C86.803 42.8421 87.1952 42.9494 87.6334 42.9494ZM99.674 45.184C98.6925 45.184 97.8184 45.0153 97.0516 44.678C96.2892 44.3362 95.6867 43.8674 95.2442 43.2715C94.806 42.6712 94.5804 41.9789 94.5672 41.1946H97.4328C97.4503 41.5232 97.5577 41.8124 97.7548 42.0621C97.9564 42.3075 98.2237 42.4981 98.5567 42.6339C98.8897 42.7698 99.2643 42.8377 99.6805 42.8377C100.114 42.8377 100.498 42.761 100.831 42.6077C101.164 42.4543 101.424 42.2418 101.613 41.9701C101.801 41.6985 101.895 41.3852 101.895 41.0303C101.895 40.671 101.795 40.3533 101.593 40.0773C101.396 39.7969 101.111 39.5778 100.739 39.42C100.371 39.2623 99.9325 39.1834 99.4242 39.1834H98.1689V37.0934H99.4242C99.8536 37.0934 100.233 37.0189 100.561 36.87C100.894 36.721 101.153 36.5151 101.337 36.2522C101.521 35.9849 101.613 35.6738 101.613 35.3189C101.613 34.9815 101.532 34.6857 101.37 34.4316C101.212 34.1731 100.988 33.9715 100.699 33.8269C100.414 33.6824 100.081 33.6101 99.7003 33.6101C99.3147 33.6101 98.962 33.6802 98.6421 33.8204C98.3223 33.9562 98.0659 34.1512 97.8731 34.4053C97.6804 34.6594 97.5774 34.9574 97.5642 35.2992H94.8367C94.8498 34.5236 95.0711 33.8401 95.5005 33.2486C95.9299 32.6571 96.5083 32.1948 97.2356 31.8618C97.9673 31.5244 98.7933 31.3557 99.7134 31.3557C100.642 31.3557 101.455 31.5244 102.152 31.8618C102.848 32.1992 103.39 32.6549 103.775 33.2289C104.165 33.7985 104.358 34.4382 104.354 35.148C104.358 35.9016 104.123 36.5304 103.65 37.0343C103.181 37.5382 102.57 37.858 101.817 37.9938V38.099C102.807 38.2261 103.56 38.57 104.077 39.1309C104.599 39.6873 104.857 40.384 104.853 41.2209C104.857 41.9877 104.636 42.669 104.189 43.2649C103.747 43.8608 103.135 44.3296 102.356 44.6714C101.576 45.0131 100.682 45.184 99.674 45.184ZM106.695 42.6339V40.3928L112.314 31.5398H114.247V34.6419H113.103L109.56 40.2482V40.3533H117.546V42.6339H106.695ZM113.156 45V41.9504L113.208 40.958V31.5398H115.877V45H113.156ZM122.258 43.1597L122.186 43.8827C122.129 44.4611 122.02 45.0372 121.857 45.6112C121.7 46.1896 121.533 46.7132 121.358 47.182C121.187 47.6509 121.049 48.0189 120.944 48.2862H119.13C119.196 48.0277 119.285 47.6662 119.399 47.2017C119.513 46.7417 119.621 46.2247 119.721 45.6507C119.822 45.0767 119.886 44.4917 119.912 43.8958L119.945 43.1597H122.258ZM129.334 45.184C128.352 45.184 127.478 45.0153 126.711 44.678C125.949 44.3362 125.346 43.8674 124.904 43.2715C124.466 42.6712 124.24 41.9789 124.227 41.1946H127.092C127.11 41.5232 127.217 41.8124 127.414 42.0621C127.616 42.3075 127.883 42.4981 128.216 42.6339C128.549 42.7698 128.924 42.8377 129.34 42.8377C129.774 42.8377 130.157 42.761 130.49 42.6077C130.823 42.4543 131.084 42.2418 131.272 41.9701C131.461 41.6985 131.555 41.3852 131.555 41.0303C131.555 40.671 131.454 40.3533 131.253 40.0773C131.055 39.7969 130.771 39.5778 130.398 39.42C130.03 39.2623 129.592 39.1834 129.084 39.1834H127.828V37.0934H129.084C129.513 37.0934 129.892 37.0189 130.221 36.87C130.554 36.721 130.812 36.5151 130.996 36.2522C131.18 35.9849 131.272 35.6738 131.272 35.3189C131.272 34.9815 131.191 34.6857 131.029 34.4316C130.871 34.1731 130.648 33.9715 130.359 33.8269C130.074 33.6824 129.741 33.6101 129.36 33.6101C128.974 33.6101 128.622 33.6802 128.302 33.8204C127.982 33.9562 127.725 34.1512 127.533 34.4053C127.34 34.6594 127.237 34.9574 127.224 35.2992H124.496C124.509 34.5236 124.731 33.8401 125.16 33.2486C125.589 32.6571 126.168 32.1948 126.895 31.8618C127.627 31.5244 128.453 31.3557 129.373 31.3557C130.302 31.3557 131.115 31.5244 131.811 31.8618C132.508 32.1992 133.049 32.6549 133.435 33.2289C133.825 33.7985 134.017 34.4382 134.013 35.148C134.017 35.9016 133.783 36.5304 133.31 37.0343C132.841 37.5382 132.23 37.858 131.476 37.9938V38.099C132.466 38.2261 133.22 38.57 133.737 39.1309C134.258 39.6873 134.517 40.384 134.513 41.2209C134.517 41.9877 134.296 42.669 133.849 43.2649C133.406 43.8608 132.795 44.3296 132.015 44.6714C131.235 45.0131 130.341 45.184 129.334 45.184ZM137.091 45L142.671 33.9584V33.8664H136.17V31.5398H145.615V33.8992L140.028 45H137.091ZM152.554 45.2958C151.423 45.2914 150.451 45.0131 149.636 44.4611C148.825 43.909 148.201 43.1093 147.762 42.0621C147.329 41.0149 147.114 39.7552 147.118 38.283C147.118 36.8152 147.335 35.5642 147.769 34.5302C148.207 33.4961 148.832 32.7096 149.642 32.1707C150.457 31.6274 151.428 31.3557 152.554 31.3557C153.68 31.3557 154.648 31.6274 155.459 32.1707C156.274 32.714 156.9 33.5027 157.338 34.5368C157.777 35.5664 157.993 36.8152 157.989 38.283C157.989 39.7596 157.77 41.0215 157.332 42.0687C156.898 43.1159 156.276 43.9156 155.465 44.4676C154.655 45.0197 153.684 45.2958 152.554 45.2958ZM152.554 42.9363C153.325 42.9363 153.941 42.5485 154.401 41.773C154.861 40.9974 155.088 39.8341 155.084 38.283C155.084 37.2621 154.979 36.4121 154.769 35.7329C154.563 35.0538 154.269 34.5433 153.888 34.2016C153.511 33.8598 153.066 33.6889 152.554 33.6889C151.787 33.6889 151.174 34.0723 150.713 34.8391C150.253 35.6059 150.021 36.7538 150.017 38.283C150.017 39.3171 150.12 40.1803 150.326 40.8725C150.536 41.5605 150.832 42.0775 151.213 42.4236C151.594 42.7654 152.041 42.9363 152.554 42.9363ZM162.545 43.1597L162.473 43.8827C162.416 44.4611 162.307 45.0372 162.144 45.6112C161.987 46.1896 161.82 46.7132 161.645 47.182C161.474 47.6509 161.336 48.0189 161.231 48.2862H159.417C159.483 48.0277 159.573 47.6662 159.686 47.2017C159.8 46.7417 159.908 46.2247 160.008 45.6507C160.109 45.0767 160.173 44.4917 160.199 43.8958L160.232 43.1597H162.545ZM169.814 45.2958C168.684 45.2914 167.711 45.0131 166.896 44.4611C166.086 43.909 165.461 43.1093 165.023 42.0621C164.589 41.0149 164.375 39.7552 164.379 38.283C164.379 36.8152 164.596 35.5642 165.03 34.5302C165.468 33.4961 166.092 32.7096 166.903 32.1707C167.718 31.6274 168.688 31.3557 169.814 31.3557C170.941 31.3557 171.909 31.6274 172.719 32.1707C173.534 32.714 174.161 33.5027 174.599 34.5368C175.037 35.5664 175.254 36.8152 175.25 38.283C175.25 39.7596 175.031 41.0215 174.593 42.0687C174.159 43.1159 173.537 43.9156 172.726 44.4676C171.915 45.0197 170.945 45.2958 169.814 45.2958ZM169.814 42.9363C170.586 42.9363 171.201 42.5485 171.661 41.773C172.121 40.9974 172.349 39.8341 172.345 38.283C172.345 37.2621 172.24 36.4121 172.029 35.7329C171.823 35.0538 171.53 34.5433 171.149 34.2016C170.772 33.8598 170.327 33.6889 169.814 33.6889C169.048 33.6889 168.434 34.0723 167.974 34.8391C167.514 35.6059 167.282 36.7538 167.278 38.283C167.278 39.3171 167.38 40.1803 167.586 40.8725C167.797 41.5605 168.093 42.0775 168.474 42.4236C168.855 42.7654 169.302 42.9363 169.814 42.9363ZM182.195 45.184C181.266 45.184 180.438 45.0131 179.711 44.6714C178.988 44.3296 178.414 43.8586 177.989 43.2583C177.564 42.658 177.343 41.9701 177.325 41.1946H180.085C180.116 41.716 180.335 42.1388 180.743 42.4631C181.15 42.7873 181.634 42.9494 182.195 42.9494C182.642 42.9494 183.036 42.8508 183.378 42.6537C183.724 42.4521 183.994 42.1739 184.187 41.819C184.384 41.4597 184.482 41.0478 184.482 40.5834C184.482 40.1101 184.382 39.6939 184.18 39.3346C183.983 38.9753 183.709 38.6949 183.359 38.4933C183.008 38.2918 182.607 38.1888 182.156 38.1844C181.761 38.1844 181.378 38.2655 181.006 38.4276C180.638 38.5897 180.351 38.811 180.145 39.0914L177.614 38.6379L178.252 31.5398H186.48V33.8664H180.598L180.25 37.238H180.329C180.565 36.905 180.922 36.629 181.4 36.4099C181.878 36.1908 182.412 36.0813 183.004 36.0813C183.814 36.0813 184.537 36.2719 185.172 36.6531C185.808 37.0343 186.31 37.5579 186.678 38.2239C187.046 38.8855 187.227 39.6479 187.223 40.5111C187.227 41.418 187.017 42.2243 186.592 42.9297C186.171 43.6308 185.582 44.1828 184.824 44.5859C184.071 44.9847 183.194 45.184 182.195 45.184ZM189.208 45V42.9494L193.999 38.5131C194.407 38.1187 194.748 37.7638 195.024 37.4483C195.305 37.1329 195.517 36.824 195.662 36.5216C195.807 36.2149 195.879 35.8841 195.879 35.5292C195.879 35.1348 195.789 34.7953 195.609 34.5105C195.43 34.2213 195.184 34 194.873 33.8467C194.562 33.6889 194.21 33.6101 193.815 33.6101C193.403 33.6101 193.044 33.6933 192.737 33.8598C192.431 34.0263 192.194 34.2651 192.027 34.5762C191.861 34.8873 191.778 35.2575 191.778 35.6869H189.076C189.076 34.8062 189.276 34.0416 189.675 33.3932C190.073 32.7447 190.632 32.243 191.351 31.8881C192.069 31.5332 192.897 31.3557 193.835 31.3557C194.799 31.3557 195.638 31.5266 196.352 31.8684C197.071 32.2058 197.629 32.6746 198.028 33.2749C198.427 33.8751 198.626 34.5631 198.626 35.3386C198.626 35.8469 198.525 36.3485 198.324 36.8437C198.127 37.3388 197.774 37.8887 197.266 38.4933C196.757 39.0936 196.041 39.8144 195.117 40.6557L193.151 42.5814V42.6734H198.804V45H189.208Z" fill="white"/>
<path d="M208.835 42.4621V35.4822H210.6V42.4621H208.835ZM206.227 39.8545V38.0898H213.207V39.8545H206.227ZM218.466 44V42.4621L222.059 39.1348C222.365 38.839 222.621 38.5729 222.828 38.3362C223.038 38.0996 223.198 37.868 223.306 37.6412C223.415 37.4112 223.469 37.1631 223.469 36.8969C223.469 36.6011 223.401 36.3465 223.267 36.1329C223.132 35.916 222.948 35.75 222.715 35.635C222.481 35.5167 222.217 35.4575 221.921 35.4575C221.612 35.4575 221.343 35.52 221.113 35.6449C220.883 35.7697 220.705 35.9488 220.58 36.1821C220.455 36.4155 220.393 36.6931 220.393 37.0152H218.367C218.367 36.3547 218.517 35.7812 218.816 35.2949C219.115 34.8085 219.534 34.4322 220.073 34.1661C220.611 33.8999 221.233 33.7668 221.936 33.7668C222.659 33.7668 223.288 33.895 223.824 34.1513C224.363 34.4043 224.782 34.7559 225.081 35.2061C225.38 35.6564 225.529 36.1723 225.529 36.7539C225.529 37.1351 225.454 37.5114 225.303 37.8828C225.155 38.2541 224.89 38.6665 224.509 39.12C224.128 39.5702 223.59 40.1108 222.897 40.7417L221.423 42.186V42.255H225.662V44H218.466ZM228.456 44.1282C228.131 44.1282 227.851 44.0131 227.618 43.7831C227.388 43.5498 227.273 43.2705 227.273 42.9451C227.273 42.6231 227.388 42.347 227.618 42.117C227.851 41.887 228.131 41.772 228.456 41.772C228.771 41.772 229.048 41.887 229.284 42.117C229.521 42.347 229.639 42.6231 229.639 42.9451C229.639 43.162 229.583 43.3608 229.471 43.5416C229.363 43.719 229.22 43.862 229.043 43.9704C228.865 44.0756 228.67 44.1282 228.456 44.1282ZM231.191 42.2255V40.5446L235.405 33.9048H236.854V36.2314H235.997L233.34 40.4361V40.515H239.329V42.2255H231.191ZM236.036 44V41.7128L236.075 40.9685V33.9048H238.077V44H236.036ZM244.482 44.138C243.746 44.138 243.091 44.0115 242.516 43.7585C241.944 43.5021 241.492 43.1505 241.16 42.7036C240.831 42.2534 240.662 41.7342 240.652 41.1459H242.801C242.815 41.3924 242.895 41.6093 243.043 41.7966C243.194 41.9806 243.395 42.1236 243.644 42.2255C243.894 42.3273 244.175 42.3783 244.487 42.3783C244.813 42.3783 245.1 42.3208 245.35 42.2057C245.6 42.0907 245.795 41.9313 245.937 41.7276C246.078 41.5239 246.148 41.2889 246.148 41.0227C246.148 40.7532 246.073 40.515 245.922 40.308C245.774 40.0976 245.56 39.9333 245.281 39.815C245.005 39.6967 244.676 39.6376 244.295 39.6376H243.354V38.0701H244.295C244.617 38.0701 244.901 38.0142 245.148 37.9025C245.398 37.7907 245.591 37.6363 245.729 37.4391C245.868 37.2387 245.937 37.0053 245.937 36.7392C245.937 36.4861 245.876 36.2643 245.754 36.0737C245.636 35.8798 245.468 35.7287 245.251 35.6202C245.038 35.5118 244.788 35.4575 244.502 35.4575C244.213 35.4575 243.948 35.5101 243.708 35.6153C243.469 35.7172 243.276 35.8634 243.132 36.054C242.987 36.2446 242.91 36.468 242.9 36.7244H240.854C240.864 36.1427 241.03 35.6301 241.352 35.1864C241.674 34.7428 242.108 34.3961 242.654 34.1464C243.202 33.8933 243.822 33.7668 244.512 33.7668C245.209 33.7668 245.818 33.8933 246.341 34.1464C246.863 34.3994 247.269 34.7412 247.558 35.1716C247.851 35.5988 247.995 36.0786 247.992 36.611C247.995 37.1762 247.82 37.6478 247.465 38.0257C247.113 38.4036 246.655 38.6435 246.089 38.7454V38.8242C246.832 38.9195 247.397 39.1775 247.785 39.5981C248.176 40.0155 248.37 40.538 248.367 41.1657C248.37 41.7407 248.204 42.2517 247.869 42.6987C247.537 43.1456 247.078 43.4972 246.494 43.7535C245.909 44.0099 245.238 44.138 244.482 44.138ZM255.427 42.1072V41.5748C255.427 41.1706 255.512 40.7992 255.683 40.4608C255.857 40.119 256.109 39.8463 256.437 39.6425C256.769 39.4355 257.173 39.332 257.65 39.332C258.133 39.332 258.539 39.4338 258.867 39.6376C259.199 39.8413 259.449 40.1141 259.617 40.4558C259.787 40.7943 259.873 41.1673 259.873 41.5748V42.1072C259.873 42.5114 259.787 42.8843 259.617 43.2261C259.446 43.5646 259.194 43.8357 258.862 44.0394C258.53 44.2465 258.126 44.35 257.65 44.35C257.167 44.35 256.761 44.2465 256.432 44.0394C256.104 43.8357 255.854 43.5646 255.683 43.2261C255.512 42.8843 255.427 42.5114 255.427 42.1072ZM256.861 41.5748V42.1072C256.861 42.3405 256.917 42.5606 257.029 42.7677C257.144 42.9747 257.351 43.0782 257.65 43.0782C257.949 43.0782 258.153 42.9764 258.261 42.7726C258.373 42.5689 258.429 42.347 258.429 42.1072V41.5748C258.429 41.3349 258.376 41.1114 258.271 40.9044C258.166 40.6974 257.959 40.5939 257.65 40.5939C257.354 40.5939 257.149 40.6974 257.034 40.9044C256.919 41.1114 256.861 41.3349 256.861 41.5748ZM250.246 36.33V35.7977C250.246 35.3902 250.333 35.0172 250.507 34.6787C250.681 34.3369 250.933 34.0642 251.261 33.8605C251.593 33.6567 251.994 33.5548 252.464 33.5548C252.95 33.5548 253.358 33.6567 253.687 33.8605C254.015 34.0642 254.265 34.3369 254.436 34.6787C254.607 35.0172 254.692 35.3902 254.692 35.7977V36.33C254.692 36.7375 254.605 37.1105 254.431 37.449C254.26 37.7875 254.009 38.0586 253.677 38.2623C253.348 38.4628 252.944 38.563 252.464 38.563C251.984 38.563 251.578 38.4611 251.247 38.2574C250.918 38.0503 250.668 37.7792 250.497 37.444C250.33 37.1056 250.246 36.7342 250.246 36.33ZM251.69 35.7977V36.33C251.69 36.5699 251.746 36.7917 251.858 36.9955C251.973 37.1992 252.175 37.3011 252.464 37.3011C252.766 37.3011 252.972 37.1992 253.08 36.9955C253.192 36.7917 253.248 36.5699 253.248 36.33V35.7977C253.248 35.5578 253.195 35.3343 253.09 35.1273C252.985 34.9202 252.776 34.8167 252.464 34.8167C252.172 34.8167 251.97 34.9219 251.858 35.1322C251.746 35.3425 251.69 35.5643 251.69 35.7977ZM250.897 44L257.837 33.9048H259.129L252.188 44H250.897Z" fill="#5DFDCB"/>
<path d="M40.6165 66.1406V64.8182H48.4964V66.1406H45.3196V75H43.7884V66.1406H40.6165ZM52.2276 75.1541C51.5117 75.1541 50.887 74.9901 50.3533 74.6619C49.8197 74.3338 49.4054 73.8748 49.1104 73.2848C48.8155 72.6948 48.668 72.0054 48.668 71.2166C48.668 70.4245 48.8155 69.7318 49.1104 69.1385C49.4054 68.5452 49.8197 68.0845 50.3533 67.7564C50.887 67.4283 51.5117 67.2642 52.2276 67.2642C52.9435 67.2642 53.5683 67.4283 54.1019 67.7564C54.6355 68.0845 55.0498 68.5452 55.3448 69.1385C55.6398 69.7318 55.7873 70.4245 55.7873 71.2166C55.7873 72.0054 55.6398 72.6948 55.3448 73.2848C55.0498 73.8748 54.6355 74.3338 54.1019 74.6619C53.5683 74.9901 52.9435 75.1541 52.2276 75.1541ZM52.2326 73.9062C52.6966 73.9062 53.0811 73.7836 53.386 73.5384C53.6909 73.2931 53.9163 72.9666 54.0621 72.5589C54.2113 72.1513 54.2859 71.7022 54.2859 71.2116C54.2859 70.7244 54.2113 70.277 54.0621 69.8693C53.9163 69.4583 53.6909 69.1286 53.386 68.88C53.0811 68.6314 52.6966 68.5071 52.2326 68.5071C51.7653 68.5071 51.3775 68.6314 51.0692 68.88C50.7643 69.1286 50.5373 69.4583 50.3881 69.8693C50.2423 70.277 50.1694 70.7244 50.1694 71.2116C50.1694 71.7022 50.2423 72.1513 50.3881 72.5589C50.5373 72.9666 50.7643 73.2931 51.0692 73.5384C51.3775 73.7836 51.7653 73.9062 52.2326 73.9062ZM61.0112 67.3636V68.5568H56.84V67.3636H61.0112ZM57.9586 65.5341H59.4451V72.7578C59.4451 73.0462 59.4882 73.2633 59.5744 73.4091C59.6606 73.5516 59.7716 73.6494 59.9075 73.7024C60.0467 73.7521 60.1975 73.777 60.3599 73.777C60.4792 73.777 60.5836 73.7687 60.6731 73.7521C60.7626 73.7356 60.8322 73.7223 60.8819 73.7124L61.1504 74.9403C61.0642 74.9735 60.9416 75.0066 60.7825 75.0398C60.6234 75.0762 60.4245 75.0961 60.1859 75.0994C59.7948 75.1061 59.4302 75.0365 59.0922 74.8906C58.7541 74.7448 58.4806 74.5194 58.2718 74.2145C58.063 73.9096 57.9586 73.5268 57.9586 73.0661V65.5341ZM64.8778 75.169C64.3939 75.169 63.9564 75.0795 63.5653 74.9006C63.1742 74.7183 62.8643 74.4548 62.6357 74.1101C62.4103 73.7654 62.2976 73.3428 62.2976 72.8423C62.2976 72.4115 62.3804 72.0568 62.5462 71.7784C62.7119 71.5 62.9356 71.2796 63.2173 71.1172C63.4991 70.9548 63.8139 70.8321 64.1619 70.7493C64.5099 70.6664 64.8646 70.6035 65.2259 70.5604C65.6832 70.5073 66.0545 70.4643 66.3395 70.4311C66.6245 70.3946 66.8317 70.3366 66.9609 70.2571C67.0902 70.1776 67.1548 70.0483 67.1548 69.8693V69.8345C67.1548 69.4003 67.0322 69.0639 66.7869 68.8253C66.545 68.5866 66.1837 68.4673 65.7031 68.4673C65.2027 68.4673 64.8082 68.5784 64.5199 68.8004C64.2348 69.0192 64.0376 69.2628 63.9283 69.5312L62.5312 69.2131C62.697 68.7491 62.9389 68.3745 63.2571 68.0895C63.5786 67.8011 63.9482 67.5923 64.3658 67.4631C64.7834 67.3305 65.2225 67.2642 65.6832 67.2642C65.9882 67.2642 66.3113 67.3007 66.6527 67.3736C66.9974 67.4432 67.3189 67.5724 67.6172 67.7614C67.9188 67.9503 68.1657 68.2204 68.358 68.5717C68.5502 68.9197 68.6463 69.3722 68.6463 69.929V75H67.1946V73.956H67.1349C67.0388 74.1482 66.8946 74.3371 66.7024 74.5227C66.5102 74.7083 66.2633 74.8625 65.9616 74.9851C65.66 75.1077 65.2988 75.169 64.8778 75.169ZM65.201 73.9759C65.612 73.9759 65.9633 73.8946 66.255 73.7322C66.55 73.5698 66.7737 73.3577 66.9261 73.0959C67.0819 72.8307 67.1598 72.5473 67.1598 72.2457V71.2614C67.1068 71.3144 67.004 71.3641 66.8516 71.4105C66.7024 71.4536 66.5317 71.4917 66.3395 71.5249C66.1473 71.5547 65.96 71.5829 65.7777 71.6094C65.5954 71.6326 65.4429 71.6525 65.3203 71.669C65.032 71.7055 64.7685 71.7668 64.5298 71.853C64.2945 71.9392 64.1056 72.0634 63.9631 72.2259C63.8239 72.3849 63.7543 72.5971 63.7543 72.8622C63.7543 73.2301 63.8902 73.5085 64.1619 73.6974C64.4337 73.883 64.7801 73.9759 65.201 73.9759ZM72.1127 64.8182V75H70.6262V64.8182H72.1127ZM77.937 75V64.8182H81.6657C82.3882 64.8182 82.9864 64.9375 83.4604 65.1761C83.9344 65.4115 84.289 65.7313 84.5243 66.1357C84.7596 66.5367 84.8773 66.9891 84.8773 67.4929C84.8773 67.9171 84.7994 68.2751 84.6436 68.5668C84.4879 68.8551 84.2791 69.0871 84.0172 69.2628C83.7587 69.4351 83.4737 69.5611 83.1621 69.6406V69.7401C83.5002 69.7566 83.83 69.866 84.1515 70.0682C84.4763 70.267 84.7447 70.5504 84.9569 70.9183C85.169 71.2862 85.275 71.7337 85.275 72.2607C85.275 72.781 85.1524 73.2483 84.9071 73.6626C84.6652 74.0736 84.2907 74.4001 83.7836 74.642C83.2765 74.8807 82.6285 75 81.8397 75H77.937ZM79.4732 73.6825H81.6905C82.4263 73.6825 82.9533 73.54 83.2715 73.255C83.5897 72.9699 83.7488 72.6136 83.7488 72.1861C83.7488 71.8646 83.6676 71.5696 83.5051 71.3011C83.3427 71.0327 83.1107 70.8189 82.8091 70.6598C82.5108 70.5007 82.1562 70.4212 81.7452 70.4212H79.4732V73.6825ZM79.4732 69.223H81.5314C81.8761 69.223 82.186 69.1567 82.4611 69.0241C82.7395 68.8916 82.9599 68.706 83.1223 68.4673C83.2881 68.2254 83.3709 67.9403 83.3709 67.6122C83.3709 67.1913 83.2234 66.8383 82.9284 66.5533C82.6335 66.2682 82.181 66.1257 81.5712 66.1257H79.4732V69.223ZM87.0971 75V64.8182H90.7264C91.5152 64.8182 92.1698 64.9541 92.6902 65.2259C93.2138 65.4976 93.6049 65.8738 93.8635 66.3544C94.122 66.8317 94.2512 67.3835 94.2512 68.0099C94.2512 68.633 94.1203 69.1816 93.8585 69.6555C93.6 70.1262 93.2089 70.4924 92.6852 70.7543C92.1648 71.0161 91.5102 71.147 90.7214 71.147H87.9721V69.8246H90.5822C91.0794 69.8246 91.4837 69.7533 91.7953 69.6108C92.1101 69.4683 92.3405 69.2611 92.4863 68.9893C92.6322 68.7176 92.7051 68.3911 92.7051 68.0099C92.7051 67.6255 92.6305 67.2924 92.4814 67.0107C92.3355 66.7289 92.1052 66.5135 91.7903 66.3643C91.4788 66.2119 91.0694 66.1357 90.5623 66.1357H88.6333V75H87.0971ZM92.1234 70.4062L94.639 75H92.889L90.4231 70.4062H92.1234ZM104.577 68.1293H103.026C102.966 67.7978 102.855 67.5062 102.693 67.2543C102.531 67.0024 102.332 66.7886 102.096 66.6129C101.861 66.4373 101.598 66.3047 101.306 66.2152C101.018 66.1257 100.711 66.081 100.386 66.081C99.7995 66.081 99.2742 66.2285 98.8102 66.5234C98.3495 66.8184 97.9849 67.2509 97.7164 67.821C97.4513 68.3911 97.3187 69.0871 97.3187 69.9091C97.3187 70.7377 97.4513 71.437 97.7164 72.0071C97.9849 72.5772 98.3511 73.008 98.8152 73.2997C99.2792 73.5914 99.8012 73.7372 100.381 73.7372C100.703 73.7372 101.008 73.6941 101.296 73.608C101.588 73.5185 101.851 73.3875 102.086 73.2152C102.322 73.0429 102.521 72.8324 102.683 72.5838C102.849 72.3319 102.963 72.0436 103.026 71.7188L104.577 71.7237C104.494 72.2242 104.334 72.6849 104.095 73.1058C103.86 73.5234 103.556 73.8847 103.185 74.1896C102.817 74.4912 102.396 74.7249 101.922 74.8906C101.448 75.0563 100.931 75.1392 100.371 75.1392C99.4896 75.1392 98.7041 74.9304 98.0147 74.5128C97.3253 74.0919 96.7818 73.4903 96.3841 72.7081C95.9896 71.9259 95.7924 70.9929 95.7924 69.9091C95.7924 68.822 95.9913 67.889 96.389 67.1101C96.7868 66.3279 97.3303 65.728 98.0197 65.3104C98.7091 64.8894 99.493 64.679 100.371 64.679C100.912 64.679 101.415 64.7569 101.883 64.9126C102.353 65.0651 102.776 65.2905 103.15 65.5888C103.525 65.8838 103.835 66.245 104.08 66.6726C104.325 67.0968 104.491 67.5824 104.577 68.1293ZM106.276 75V73.8864L109.722 70.3168C110.089 69.929 110.393 69.5893 110.631 69.2976C110.873 69.0026 111.054 68.7225 111.173 68.4574C111.293 68.1922 111.352 67.9105 111.352 67.6122C111.352 67.2741 111.273 66.9825 111.114 66.7372C110.955 66.4886 110.737 66.2981 110.462 66.1655C110.187 66.0296 109.877 65.9616 109.533 65.9616C109.168 65.9616 108.85 66.0362 108.578 66.1854C108.306 66.3345 108.098 66.545 107.952 66.8168C107.806 67.0885 107.733 67.4067 107.733 67.7713H106.266C106.266 67.1515 106.409 66.6096 106.694 66.1456C106.979 65.6816 107.37 65.322 107.867 65.0668C108.364 64.8082 108.929 64.679 109.562 64.679C110.202 64.679 110.766 64.8066 111.253 65.0618C111.743 65.3137 112.126 65.6584 112.401 66.0959C112.676 66.5301 112.814 67.0206 112.814 67.5675C112.814 67.9453 112.743 68.3149 112.6 68.6761C112.461 69.0374 112.217 69.4401 111.869 69.8842C111.521 70.325 111.037 70.8603 110.418 71.4901L108.394 73.608V73.6825H112.978V75H106.276ZM118.407 75.169C117.621 75.1657 116.95 74.9586 116.393 74.5476C115.837 74.1366 115.411 73.5384 115.116 72.7528C114.821 71.9673 114.673 71.0211 114.673 69.9141C114.673 68.8104 114.821 67.8674 115.116 67.0852C115.414 66.303 115.842 65.7064 116.398 65.2955C116.959 64.8845 117.628 64.679 118.407 64.679C119.186 64.679 119.854 64.8861 120.411 65.3004C120.967 65.7114 121.393 66.308 121.688 67.0902C121.987 67.8691 122.136 68.8104 122.136 69.9141C122.136 71.0244 121.988 71.9723 121.693 72.7578C121.398 73.54 120.972 74.1383 120.415 74.5526C119.859 74.9635 119.189 75.169 118.407 75.169ZM118.407 73.8416C119.096 73.8416 119.635 73.5052 120.023 72.8324C120.414 72.1596 120.609 71.1868 120.609 69.9141C120.609 69.0689 120.52 68.3546 120.341 67.7713C120.165 67.1847 119.912 66.7405 119.58 66.4389C119.252 66.134 118.861 65.9815 118.407 65.9815C117.721 65.9815 117.182 66.3196 116.791 66.9957C116.4 67.6719 116.203 68.6446 116.2 69.9141C116.2 70.7625 116.287 71.4801 116.463 72.0668C116.642 72.6501 116.896 73.0926 117.224 73.3942C117.552 73.6925 117.946 73.8416 118.407 73.8416ZM127.241 66.1406V64.8182H135.121V66.1406H131.945V75H130.413V66.1406H127.241ZM135.95 75V67.3636H137.387V68.5767H137.467C137.606 68.1657 137.851 67.8426 138.203 67.6072C138.557 67.3686 138.958 67.2493 139.406 67.2493C139.499 67.2493 139.608 67.2526 139.734 67.2592C139.863 67.2659 139.964 67.2741 140.037 67.2841V68.706C139.977 68.6894 139.871 68.6712 139.719 68.6513C139.566 68.6281 139.414 68.6165 139.262 68.6165C138.91 68.6165 138.597 68.6911 138.322 68.8402C138.05 68.986 137.835 69.1899 137.676 69.4517C137.517 69.7102 137.437 70.0052 137.437 70.3366V75H135.95ZM143.477 75.169C142.994 75.169 142.556 75.0795 142.165 74.9006C141.774 74.7183 141.464 74.4548 141.235 74.1101C141.01 73.7654 140.897 73.3428 140.897 72.8423C140.897 72.4115 140.98 72.0568 141.146 71.7784C141.311 71.5 141.535 71.2796 141.817 71.1172C142.099 70.9548 142.414 70.8321 142.762 70.7493C143.11 70.6664 143.464 70.6035 143.825 70.5604C144.283 70.5073 144.654 70.4643 144.939 70.4311C145.224 70.3946 145.431 70.3366 145.561 70.2571C145.69 70.1776 145.754 70.0483 145.754 69.8693V69.8345C145.754 69.4003 145.632 69.0639 145.387 68.8253C145.145 68.5866 144.783 68.4673 144.303 68.4673C143.802 68.4673 143.408 68.5784 143.119 68.8004C142.834 69.0192 142.637 69.2628 142.528 69.5312L141.131 69.2131C141.297 68.7491 141.539 68.3745 141.857 68.0895C142.178 67.8011 142.548 67.5923 142.965 67.4631C143.383 67.3305 143.822 67.2642 144.283 67.2642C144.588 67.2642 144.911 67.3007 145.252 67.3736C145.597 67.4432 145.919 67.5724 146.217 67.7614C146.518 67.9503 146.765 68.2204 146.958 68.5717C147.15 68.9197 147.246 69.3722 147.246 69.929V75H145.794V73.956H145.735C145.638 74.1482 145.494 74.3371 145.302 74.5227C145.11 74.7083 144.863 74.8625 144.561 74.9851C144.26 75.1077 143.898 75.169 143.477 75.169ZM143.801 73.9759C144.212 73.9759 144.563 73.8946 144.855 73.7322C145.15 73.5698 145.373 73.3577 145.526 73.0959C145.682 72.8307 145.759 72.5473 145.759 72.2457V71.2614C145.706 71.3144 145.604 71.3641 145.451 71.4105C145.302 71.4536 145.131 71.4917 144.939 71.5249C144.747 71.5547 144.56 71.5829 144.377 71.6094C144.195 71.6326 144.043 71.6525 143.92 71.669C143.632 71.7055 143.368 71.7668 143.129 71.853C142.894 71.9392 142.705 72.0634 142.563 72.2259C142.423 72.3849 142.354 72.5971 142.354 72.8622C142.354 73.2301 142.49 73.5085 142.762 73.6974C143.033 73.883 143.38 73.9759 143.801 73.9759ZM152.085 75.1491C151.468 75.1491 150.918 74.9917 150.434 74.6768C149.953 74.3587 149.576 73.9062 149.3 73.3196C149.029 72.7296 148.893 72.022 148.893 71.1967C148.893 70.3714 149.03 69.6655 149.305 69.0788C149.584 68.4922 149.965 68.0431 150.449 67.7315C150.933 67.42 151.481 67.2642 152.094 67.2642C152.568 67.2642 152.95 67.3438 153.238 67.5028C153.53 67.6586 153.755 67.8409 153.914 68.0497C154.076 68.2585 154.202 68.4425 154.292 68.6016H154.381V64.8182H155.868V75H154.416V73.8118H154.292C154.202 73.9742 154.073 74.1598 153.904 74.3686C153.738 74.5774 153.51 74.7597 153.218 74.9155C152.926 75.0713 152.549 75.1491 152.085 75.1491ZM152.413 73.8814C152.84 73.8814 153.201 73.7687 153.496 73.5433C153.795 73.3146 154.02 72.9981 154.173 72.5938C154.328 72.1894 154.406 71.7187 154.406 71.1818C154.406 70.6515 154.33 70.1875 154.178 69.7898C154.025 69.392 153.801 69.0821 153.506 68.8601C153.211 68.638 152.847 68.527 152.413 68.527C151.965 68.527 151.592 68.643 151.294 68.875C150.996 69.107 150.77 69.4235 150.618 69.8246C150.469 70.2256 150.394 70.678 150.394 71.1818C150.394 71.6922 150.47 72.1513 150.623 72.5589C150.775 72.9666 151.001 73.2898 151.299 73.5284C151.601 73.7637 151.972 73.8814 152.413 73.8814ZM157.99 75V67.3636H159.476V75H157.99ZM158.74 66.1854C158.482 66.1854 158.26 66.0992 158.074 65.9268C157.892 65.7512 157.801 65.5424 157.801 65.3004C157.801 65.0552 157.892 64.8464 158.074 64.674C158.26 64.4983 158.482 64.4105 158.74 64.4105C158.999 64.4105 159.219 64.4983 159.401 64.674C159.587 64.8464 159.68 65.0552 159.68 65.3004C159.68 65.5424 159.587 65.7512 159.401 65.9268C159.219 66.0992 158.999 66.1854 158.74 66.1854ZM162.962 70.4659V75H161.476V67.3636H162.903V68.6065H162.997C163.173 68.2022 163.448 67.8774 163.822 67.6321C164.2 67.3868 164.676 67.2642 165.249 67.2642C165.77 67.2642 166.225 67.3736 166.616 67.5923C167.008 67.8078 167.311 68.1293 167.526 68.5568C167.742 68.9844 167.849 69.513 167.849 70.1428V75H166.363V70.3217C166.363 69.7682 166.219 69.3357 165.93 69.0241C165.642 68.7093 165.246 68.5518 164.742 68.5518C164.397 68.5518 164.091 68.6264 163.822 68.7756C163.557 68.9247 163.347 69.1435 163.191 69.4318C163.039 69.7169 162.962 70.0616 162.962 70.4659ZM173.045 78.0227C172.438 78.0227 171.916 77.9432 171.479 77.7841C171.045 77.625 170.69 77.4145 170.415 77.1527C170.14 76.8909 169.934 76.6042 169.798 76.2926L171.076 75.7656C171.165 75.9115 171.285 76.0656 171.434 76.228C171.586 76.3937 171.792 76.5346 172.05 76.6506C172.312 76.7666 172.649 76.8246 173.06 76.8246C173.623 76.8246 174.089 76.687 174.457 76.4119C174.825 76.1402 175.009 75.706 175.009 75.1094V73.608H174.914C174.825 73.7704 174.695 73.951 174.526 74.1499C174.361 74.3487 174.132 74.5211 173.84 74.6669C173.549 74.8127 173.169 74.8857 172.702 74.8857C172.098 74.8857 171.555 74.7448 171.071 74.4631C170.59 74.178 170.209 73.7588 169.928 73.2053C169.649 72.6484 169.51 71.964 169.51 71.152C169.51 70.34 169.647 69.6439 169.923 69.0639C170.201 68.4839 170.582 68.0398 171.066 67.7315C171.55 67.42 172.098 67.2642 172.712 67.2642C173.186 67.2642 173.568 67.3438 173.86 67.5028C174.152 67.6586 174.379 67.8409 174.541 68.0497C174.707 68.2585 174.835 68.4425 174.924 68.6016H175.033V67.3636H176.49V75.169C176.49 75.8253 176.338 76.3639 176.033 76.7848C175.728 77.2057 175.315 77.5173 174.795 77.7195C174.278 77.9216 173.694 78.0227 173.045 78.0227ZM173.03 73.6527C173.457 73.6527 173.819 73.5533 174.114 73.3544C174.412 73.1522 174.637 72.8639 174.79 72.4893C174.946 72.1115 175.023 71.6591 175.023 71.1321C175.023 70.6184 174.947 70.166 174.795 69.7749C174.642 69.3838 174.419 69.0788 174.124 68.8601C173.829 68.638 173.464 68.527 173.03 68.527C172.582 68.527 172.21 68.643 171.911 68.875C171.613 69.1037 171.388 69.4152 171.235 69.8097C171.086 70.2041 171.011 70.6449 171.011 71.1321C171.011 71.6326 171.088 72.0717 171.24 72.4496C171.393 72.8274 171.618 73.1224 171.916 73.3345C172.218 73.5466 172.589 73.6527 173.03 73.6527ZM183.198 64.8182L186.032 73.1108H186.146L188.98 64.8182H190.64L186.976 75H185.202L181.537 64.8182H183.198ZM194.442 75.1541C193.727 75.1541 193.102 74.9901 192.568 74.6619C192.035 74.3338 191.62 73.8748 191.325 73.2848C191.03 72.6948 190.883 72.0054 190.883 71.2166C190.883 70.4245 191.03 69.7318 191.325 69.1385C191.62 68.5452 192.035 68.0845 192.568 67.7564C193.102 67.4283 193.727 67.2642 194.442 67.2642C195.158 67.2642 195.783 67.4283 196.317 67.7564C196.85 68.0845 197.265 68.5452 197.56 69.1385C197.855 69.7318 198.002 70.4245 198.002 71.2166C198.002 72.0054 197.855 72.6948 197.56 73.2848C197.265 73.8748 196.85 74.3338 196.317 74.6619C195.783 74.9901 195.158 75.1541 194.442 75.1541ZM194.447 73.9062C194.911 73.9062 195.296 73.7836 195.601 73.5384C195.906 73.2931 196.131 72.9666 196.277 72.5589C196.426 72.1513 196.501 71.7022 196.501 71.2116C196.501 70.7244 196.426 70.277 196.277 69.8693C196.131 69.4583 195.906 69.1286 195.601 68.88C195.296 68.6314 194.911 68.5071 194.447 68.5071C193.98 68.5071 193.592 68.6314 193.284 68.88C192.979 69.1286 192.752 69.4583 192.603 69.8693C192.457 70.277 192.384 70.7244 192.384 71.2116C192.384 71.7022 192.457 72.1513 192.603 72.5589C192.752 72.9666 192.979 73.2931 193.284 73.5384C193.592 73.7836 193.98 73.9062 194.447 73.9062ZM201.148 64.8182V75H199.661V64.8182H201.148ZM207.985 71.8331V67.3636H209.477V75H208.015V73.6776H207.935C207.76 74.0852 207.478 74.425 207.09 74.6967C206.706 74.9652 206.227 75.0994 205.653 75.0994C205.163 75.0994 204.729 74.9917 204.351 74.7763C203.976 74.5575 203.681 74.2344 203.466 73.8068C203.254 73.3793 203.148 72.8506 203.148 72.2209V67.3636H204.634V72.0419C204.634 72.5623 204.778 72.9766 205.067 73.2848C205.355 73.593 205.73 73.7472 206.19 73.7472C206.469 73.7472 206.746 73.6776 207.021 73.5384C207.299 73.3991 207.529 73.1887 207.712 72.907C207.897 72.6252 207.988 72.2673 207.985 71.8331ZM211.474 75V67.3636H212.901V68.6065H212.995C213.154 68.1856 213.414 67.8575 213.776 67.6222C214.137 67.3835 214.57 67.2642 215.073 67.2642C215.584 67.2642 216.011 67.3835 216.356 67.6222C216.704 67.8608 216.961 68.1889 217.127 68.6065H217.206C217.388 68.1989 217.678 67.8741 218.076 67.6321C218.474 67.3868 218.948 67.2642 219.498 67.2642C220.191 67.2642 220.756 67.4813 221.193 67.9155C221.634 68.3497 221.855 69.0043 221.855 69.8793V75H220.368V70.0185C220.368 69.5014 220.227 69.1269 219.945 68.8949C219.664 68.6629 219.327 68.5469 218.936 68.5469C218.452 68.5469 218.076 68.696 217.808 68.9943C217.539 69.2893 217.405 69.6688 217.405 70.1328V75H215.923V69.924C215.923 69.5097 215.794 69.1766 215.536 68.9247C215.277 68.6728 214.941 68.5469 214.526 68.5469C214.245 68.5469 213.985 68.6214 213.746 68.7706C213.511 68.9164 213.32 69.1203 213.174 69.3821C213.032 69.6439 212.96 69.9472 212.96 70.2919V75H211.474ZM227.138 75.1541C226.386 75.1541 225.738 74.9934 225.194 74.6719C224.654 74.3471 224.236 73.8913 223.941 73.3047C223.65 72.7147 223.504 72.0237 223.504 71.2315C223.504 70.4493 223.65 69.7599 223.941 69.1634C224.236 68.5668 224.647 68.1011 225.174 67.7663C225.705 67.4316 226.324 67.2642 227.034 67.2642C227.465 67.2642 227.882 67.3355 228.287 67.478C228.691 67.6205 229.054 67.8442 229.375 68.1491C229.697 68.4541 229.95 68.8501 230.136 69.3374C230.322 69.8213 230.414 70.4096 230.414 71.1023V71.6293H224.344V70.5156H228.958C228.958 70.1245 228.878 69.7782 228.719 69.4766C228.56 69.1716 228.336 68.9313 228.048 68.7557C227.763 68.58 227.428 68.4922 227.044 68.4922C226.626 68.4922 226.261 68.5949 225.95 68.8004C225.642 69.0026 225.403 69.2678 225.234 69.5959C225.068 69.9207 224.985 70.2737 224.985 70.6548V71.5249C224.985 72.0353 225.075 72.4695 225.254 72.8274C225.436 73.1854 225.69 73.4588 226.015 73.6477C226.339 73.8333 226.719 73.9261 227.153 73.9261C227.435 73.9261 227.692 73.8864 227.924 73.8068C228.156 73.724 228.356 73.6013 228.525 73.4389C228.694 73.2765 228.824 73.076 228.913 72.8374L230.32 73.0909C230.207 73.5052 230.005 73.8681 229.713 74.1797C229.425 74.4879 229.062 74.7282 228.625 74.9006C228.19 75.0696 227.695 75.1541 227.138 75.1541Z" fill="#5F6679"/>
</g>
<defs>
<filter id="filter0_d_22_3966" x="0.746081" y="0" width="378.254" height="230.411" filterUnits="userSpaceOnUse" color-interpolation-filters="sRGB">
<feFlood flood-opacity="0" result="BackgroundImageFix"/>
<feColorMatrix in="SourceAlpha" type="matrix" values="0 0 0 0 0 0 0 0 0 0 0 0 0 0 0 0 0 0 127 0" result="hardAlpha"/>
<feOffset dx="-4.62696" dy="5.7837"/>
<feGaussianBlur stdDeviation="2.31348"/>
<feComposite in2="hardAlpha" operator="out"/>
<feColorMatrix type="matrix" values="0 0 0 0 0.0242344 0 0 0 0 0.00078125 0 0 0 0 0.0625 0 0 0 0.3 0"/>
<feBlend mode="normal" in2="BackgroundImageFix" result="effect1_dropShadow_22_3966"/>
<feBlend mode="normal" in="SourceGraphic" in2="effect1_dropShadow_22_3966" result="shape"/>
</filter>
<filter id="filter1_f_22_3966" x="-26" y="68.9373" width="427" height="186.063" filterUnits="userSpaceOnUse" color-interpolation-filters="sRGB">
<feFlood flood-opacity="0" result="BackgroundImageFix"/>
<feBlend mode="normal" in="SourceGraphic" in2="BackgroundImageFix" result="shape"/>
<feGaussianBlur stdDeviation="5" result="effect1_foregroundBlur_22_3966"/>
</filter>
<linearGradient id="paint0_linear_22_3966" x1="-5.61599" y1="70.125" x2="387.333" y2="162.586" gradientUnits="userSpaceOnUse">
<stop stop-color="#080A0B"/>
<stop offset="1" stop-color="#1A1F21"/>
</linearGradient>
<linearGradient id="paint1_linear_22_3966" x1="222.526" y1="89.5598" x2="238.733" y2="182.446" gradientUnits="userSpaceOnUse">
<stop stop-color="#5DFDCB"/>
<stop offset="1" stop-color="#080C10"/>
</linearGradient>
<linearGradient id="paint2_linear_22_3966" x1="222.526" y1="89.5597" x2="238.733" y2="182.446" gradientUnits="userSpaceOnUse">
<stop stop-color="#5DFDCB"/>
<stop offset="1" stop-color="#080C10"/>
</linearGradient>
</defs>
</svg>
